<svg width="64" height="64" viewBox="0 0 64 64" fill="none" xmlns="http://www.w3.org/2000/svg">
<path d="M5.33388 59.6365V60.7993C5.33388 62.5667 6.76675 63.9995 8.53413 63.9995H17.0683C18.8356 63.9995 20.2685 62.5667 20.2685 60.7993V59.7325H41.6036V60.7993C41.6036 62.5667 43.0365 63.9995 44.8039 63.9995H53.338C55.1054 63.9995 56.5382 62.5667 56.5382 60.7993V59.7325C58.3056 59.7325 59.7385 58.2997 59.7385 56.5323V15.3852L63.022 12.1017C63.8356 11.3072 64.1739 10.1449 63.9139 9.03791C63.303 6.91554 62.128 4.99841 60.5141 3.49079C59.005 1.87429 57.0856 0.697537 54.9606 0.0856625C53.8534 -0.172588 52.6916 0.165412 51.8959 0.977538L48.6135 4.26104H6.40063C2.86713 4.26454 0.0035 7.12804 0 10.6614V53.3318C0.00575 56.4518 2.258 59.114 5.33388 59.6365ZM18.135 60.7993C18.135 61.3884 17.6574 61.866 17.0683 61.866H8.53413C7.945 61.866 7.46737 61.3885 7.46737 60.7993V59.7325H18.1349V60.7993H18.135ZM54.4048 60.7993C54.4048 61.3884 53.9272 61.866 53.338 61.866H44.8039C44.2147 61.866 43.7371 61.3885 43.7371 60.7993V59.7325H54.4048V60.7993ZM53.4053 2.48591C53.6664 2.20166 54.0578 2.07566 54.4357 2.15416C56.1879 2.67041 57.7673 3.65229 59.0057 4.99491C60.3479 6.23354 61.3295 7.81229 61.8465 9.56379C61.9224 9.94141 61.7962 10.3315 61.5137 10.5933L53.5887 18.4874C52.3786 18.033 51.0145 18.3315 50.1046 19.2497C49.1948 20.1679 48.9086 21.5347 49.3741 22.7405L48.8088 23.293C48.464 23.7059 47.8522 23.767 47.4326 23.4307L40.5625 16.567C40.4099 16.4024 40.3326 16.1818 40.3491 15.9579C40.3681 15.667 40.4948 15.3937 40.7044 15.1909L41.2836 14.6373C42.4941 15.0915 43.8584 14.7929 44.7684 13.8745C45.6784 12.9562 45.9646 11.5892 45.4995 10.383L53.4053 2.48591ZM43.3789 10.6614C43.3999 10.8493 43.45 11.0328 43.5271 11.2054C43.6605 11.6173 43.5518 12.0694 43.2455 12.3754C42.9392 12.6814 42.4871 12.7899 42.0752 12.6562C41.2621 12.3143 40.3224 12.5133 39.7176 13.1554L39.1917 13.6813C38.6065 14.2588 38.2579 15.0342 38.2146 15.8554C38.165 16.681 38.4704 17.4884 39.0542 18.0743L40.2277 19.2424L30.1042 29.3607L27.7894 30.3549C27.7701 30.3634 27.7541 30.3752 27.736 30.3837V10.6614H43.3789ZM43.2464 22.2658L33.1281 32.384C32.9359 32.575 32.7823 32.8014 32.6759 33.0507L31.6741 35.3805C31.5396 35.6929 31.3036 35.9508 31.0042 36.1124L26.9613 38.3675L25.632 37.0383L27.885 32.9845C28.0479 32.6845 28.3077 32.4488 28.6222 32.3158L30.9446 31.3173C31.1941 31.2107 31.4207 31.0572 31.6124 30.865L41.7316 20.7468L43.2464 22.2658ZM29.8692 47.9982H27.7356V43.7312H29.8692V47.9982ZM29.8692 41.5975H27.7356V40.3558C27.7794 40.3365 27.8241 40.328 27.8669 40.3057L29.8691 39.1888L29.8692 41.5975ZM32.0029 37.9994L32.0402 37.978C32.7376 37.5935 33.2902 36.9915 33.6138 36.2638H44.804V49.0649H32.0029V37.9994ZM25.6022 32.7029L23.6821 36.1485C23.2658 36.9003 23.4015 37.8372 24.0139 38.44L25.5373 39.9634C25.5565 39.9827 25.5789 39.9965 25.598 40.0147V53.332H11.6394C11.1896 50.6472 9.0855 48.5435 6.4005 48.0942L6.409 15.9057C9.09175 15.451 11.1913 13.3455 11.6383 10.6614H25.6022V32.7029ZM27.7359 50.1317H30.166C30.544 50.7895 31.2441 51.1962 32.0029 51.1984H44.804C45.9824 51.1984 46.9375 50.2432 46.9375 49.0648V36.2637C46.9375 35.0853 45.9823 34.1302 44.804 34.1302H34.5344L34.641 33.8923L44.7593 23.774L45.9328 24.9475C46.4826 25.4935 47.2284 25.7967 48.0033 25.7893C48.8768 25.7839 49.7121 25.4317 50.3256 24.8099L50.8504 24.2852C51.4931 23.6802 51.6927 22.7394 51.3506 21.9254C51.2171 21.5138 51.3257 21.0619 51.6319 20.756C51.938 20.4502 52.3899 20.3418 52.8014 20.4757C52.974 20.5525 53.1575 20.6022 53.3454 20.6229L53.3326 48.093C50.6514 48.5479 48.5518 50.65 48.1001 53.3319H27.7359V50.1317ZM2.13363 10.6614C2.13363 8.30479 4.044 6.39441 6.40063 6.39441H46.4799L44.3462 8.52804H11.6384C10.5979 8.52779 9.71037 9.28091 9.54113 10.3074C9.23913 12.0944 7.84125 13.4958 6.055 13.802C5.02475 13.967 4.26713 14.856 4.26713 15.8993V48.0942C4.26638 49.1342 5.01925 50.0215 6.04537 50.1903C7.833 50.4925 9.2345 51.8914 9.54 53.6785C9.70687 54.708 10.5955 55.4647 11.6383 55.4653H48.1001C49.142 55.4652 50.03 54.7099 50.1975 53.6817C50.5031 51.8974 51.8997 50.4992 53.6836 50.1913C54.7139 50.0263 55.4715 49.1373 55.4715 48.094V19.6522L57.605 17.5187V56.5322C57.605 57.1213 57.1275 57.5989 56.5382 57.5989H6.40063C4.044 57.5989 2.13363 55.6885 2.13363 53.3319V10.6614Z" fill="#111827"/>
<path d="M19.2018 38.3972H11.7344C9.96705 38.3972 8.53418 39.8301 8.53418 41.5975V43.731C8.53418 45.4983 9.96705 46.9312 11.7344 46.9312H19.2017C20.9691 46.9312 22.4019 45.4983 22.4019 43.731V41.5975C22.4021 39.8301 20.9692 38.3972 19.2018 38.3972ZM20.2684 43.7311C20.2684 44.3202 19.7908 44.7978 19.2017 44.7978H11.7344C11.1453 44.7978 10.6677 44.3202 10.6677 43.7311V41.5975C10.6677 41.0083 11.1453 40.5307 11.7344 40.5307H19.2017C19.7908 40.5307 20.2684 41.0083 20.2684 41.5975V43.7311Z" fill="#111827"/>
<path d="M19.2018 27.7297H11.7344C9.96705 27.7297 8.53418 29.1626 8.53418 30.93V33.0635C8.53418 34.8309 9.96705 36.2637 11.7344 36.2637H19.2017C20.9691 36.2637 22.4019 34.8309 22.4019 33.0635V30.93C22.4021 29.1625 20.9692 27.7296 19.2018 27.7297ZM20.2684 33.0634C20.2684 33.6525 19.7908 34.1301 19.2017 34.1301H11.7344C11.1453 34.1301 10.6677 33.6525 10.6677 33.0634V30.9299C10.6677 30.3407 11.1453 29.8631 11.7344 29.8631H19.2017C19.7908 29.8631 20.2684 30.3407 20.2684 30.9299V33.0634Z" fill="#111827"/>
<path d="M8.53418 20.2623V22.3958C8.53418 24.1633 9.96705 25.596 11.7344 25.596H19.2017C20.9691 25.596 22.4019 24.1631 22.4019 22.3958V20.2623C22.4019 18.4949 20.9691 17.062 19.2017 17.062H11.7344C9.96693 17.062 8.53418 18.4949 8.53418 20.2623ZM10.6677 20.2623C10.6677 19.6731 11.1453 19.1955 11.7344 19.1955H19.2018C19.7909 19.1955 20.2686 19.6731 20.2686 20.2623V22.3958C20.2686 22.9849 19.7909 23.4625 19.2018 23.4625H11.7344C11.1453 23.4625 10.6677 22.9849 10.6677 22.3958V20.2623Z" fill="#111827"/>
<path fill-rule="evenodd" clip-rule="evenodd" d="M20.2683 49.0649H14.9344C14.3453 49.0649 13.8677 49.5424 13.8677 50.1317C13.8677 50.7209 14.3453 51.1984 14.9344 51.1984H20.2683C20.8574 51.1984 21.3351 50.7209 21.3351 50.1317C21.3351 49.5424 20.8576 49.0649 20.2683 49.0649Z" fill="#111827"/>
<path fill-rule="evenodd" clip-rule="evenodd" d="M14.9347 14.9287H20.2685C20.8577 14.9287 21.3353 14.451 21.3353 13.8619C21.3353 13.2728 20.8577 12.7952 20.2685 12.7952H14.9347C14.3455 12.7952 13.8679 13.2728 13.8679 13.8619C13.8678 14.4509 14.3454 14.9287 14.9347 14.9287Z" fill="#111827"/>
<path d="M35.203 40.5307C35.7921 40.5307 36.2697 40.0531 36.2697 39.464C36.2697 38.8748 35.7921 38.3972 35.203 38.3972C34.6138 38.3972 34.1362 38.8748 34.1362 39.464C34.1362 40.0531 34.6138 40.5307 35.203 40.5307Z" fill="#111827"/>
<path fill-rule="evenodd" clip-rule="evenodd" d="M41.6035 44.7979H35.203C34.6139 44.7979 34.1362 45.2754 34.1362 45.8646C34.1362 46.4537 34.6137 46.9314 35.203 46.9314H41.6035C42.1926 46.9314 42.6702 46.4539 42.6702 45.8646C42.6702 45.2754 42.1927 44.7979 41.6035 44.7979Z" fill="#111827"/>
<path fill-rule="evenodd" clip-rule="evenodd" d="M50.1376 38.3974C50.7267 38.3974 51.2043 37.9199 51.2043 37.3306V35.1971C51.2043 34.608 50.7267 34.1304 50.1376 34.1304C49.5486 34.1304 49.0708 34.6079 49.0708 35.1971V37.3306C49.0708 37.9199 49.5484 38.3974 50.1376 38.3974Z" fill="#111827"/>
<path fill-rule="evenodd" clip-rule="evenodd" d="M50.1376 44.7979C50.7267 44.7979 51.2043 44.3203 51.2043 43.7311V41.5975C51.2043 41.0084 50.7267 40.5308 50.1376 40.5308C49.5486 40.5308 49.0708 41.0084 49.0708 41.5975V43.731C49.0708 44.3203 49.5484 44.7979 50.1376 44.7979Z" fill="#111827"/>
<path fill-rule="evenodd" clip-rule="evenodd" d="M48.9449 13.098C49.2279 13.0987 49.4995 12.9862 49.6991 12.7855L54.4707 8.01596C54.7404 7.74633 54.8456 7.35334 54.747 6.98496C54.6482 6.61671 54.3606 6.32896 53.9922 6.23021C53.624 6.13158 53.2309 6.23683 52.9612 6.50646L48.1907 11.277C47.8857 11.582 47.7946 12.0408 47.9596 12.4393C48.1247 12.8381 48.5136 13.098 48.9449 13.098Z" fill="#111827"/>
<path fill-rule="evenodd" clip-rule="evenodd" d="M51.2132 15.8077C51.6297 16.224 52.305 16.224 52.7215 15.8077L57.492 11.0372C57.9085 10.6204 57.9083 9.94478 57.4915 9.52828C57.0748 9.11178 56.3992 9.11203 55.9827 9.52878L51.2132 14.2993C50.7968 14.7158 50.7968 15.3912 51.2132 15.8077Z" fill="#111827"/>
<path d="M30.9361 14.9287C31.5253 14.9287 32.0029 14.4511 32.0029 13.8619C32.0029 13.2728 31.5253 12.7952 30.9361 12.7952C30.347 12.7952 29.8694 13.2728 29.8694 13.8619C29.8694 14.4511 30.347 14.9287 30.9361 14.9287Z" fill="#111827"/>
<path d="M35.203 19.1958C35.7921 19.1958 36.2697 18.7182 36.2697 18.129C36.2697 17.5399 35.7921 17.0623 35.203 17.0623C34.6138 17.0623 34.1362 17.5399 34.1362 18.129C34.1362 18.7182 34.6138 19.1958 35.203 19.1958Z" fill="#111827"/>
<path d="M35.203 14.9287C35.7921 14.9287 36.2697 14.4511 36.2697 13.8619C36.2697 13.2728 35.7921 12.7952 35.203 12.7952C34.6138 12.7952 34.1362 13.2728 34.1362 13.8619C34.1362 14.4511 34.6138 14.9287 35.203 14.9287Z" fill="#111827"/>
<path fill-rule="evenodd" clip-rule="evenodd" d="M30.9361 25.5963C31.5253 25.5963 32.0029 25.1186 32.0029 24.5295V18.129C32.0029 17.5399 31.5254 17.0623 30.9361 17.0623C30.3469 17.0623 29.8694 17.5398 29.8694 18.129V24.5295C29.8693 25.1188 30.3469 25.5963 30.9361 25.5963Z" fill="#111827"/>
</svg>
