<svg width="64" height="64" viewBox="0 0 64 64" fill="none" xmlns="http://www.w3.org/2000/svg">
<path d="M30.3051 59.1441L26.9753 58.1865V43.5243C26.9753 43.3253 26.8963 43.1347 26.7555 42.994L23.4775 39.7161V16.6971C23.5974 16.5623 23.7094 16.4206 23.8135 16.2727H46.761V19.2988L43.6969 22.363H40.5266C40.1125 22.363 39.7766 22.6988 39.7766 23.113V27.4255C39.7766 27.8396 40.1125 28.1755 40.5266 28.1755H54.4954C54.9095 28.1755 55.2454 27.8396 55.2454 27.4255V23.113C55.2454 22.6988 54.9095 22.363 54.4954 22.363H51.3251L48.261 19.2988V16.2727H51.4496C51.753 16.2727 52.0264 16.09 52.1425 15.8097C52.2586 15.5295 52.1945 15.2068 51.9799 14.9923L48.0413 11.0537C47.9006 10.9131 47.7099 10.8341 47.511 10.8341H42.3685L22.0331 0.703715C21.8185 0.596715 21.5656 0.598965 21.353 0.709465L4.56675 9.42846H2.21875C1.34 9.42846 0.625 10.1433 0.625 11.0222V16.0847C0.625 16.9635 1.34 17.6785 2.21875 17.6785H7.28125C8.09638 17.6785 8.76938 17.0631 8.86288 16.2727H16.068C16.1721 16.4205 16.2841 16.5623 16.404 16.6971V39.7162L13.1261 42.9941C12.9854 43.1347 12.9064 43.3253 12.9064 43.5243V58.1865L9.57638 59.1441C9.255 59.2365 9.03363 59.5306 9.03363 59.865V62.6252C9.03363 63.0393 9.3695 63.3752 9.78363 63.3752H30.0979C30.512 63.3752 30.8479 63.0393 30.8479 62.6252V59.865C30.8479 59.5306 30.6265 59.2366 30.3051 59.1441ZM53.7455 26.6755H41.2768V23.863H53.7455V26.6755ZM45.8183 22.363L47.5111 20.6701L49.204 22.363H45.8183ZM25.4754 43.835V57.755L23.4778 57.1805V41.8373L25.4754 43.835ZM41.4446 12.3341H45.7005L43.5725 14.462L41.4445 12.3341H41.4446ZM41.762 14.7727H37.5061L39.6341 12.6448L41.762 14.7727ZM35.6955 14.4621L33.5675 12.3342H37.8234L35.6954 14.4621H35.6955ZM33.8849 14.7727H29.629L31.757 12.6448L33.8849 14.7727ZM27.8184 14.4621L25.6904 12.3342H29.9463L27.8184 14.4621ZM21.9779 47.8205V55.8578L18.1855 51.8392L21.9779 47.8205ZM17.9043 49.9516V41.9143L21.6966 45.933L17.9043 49.9516ZM21.9779 44.0455L18.1855 40.0268L21.9779 36.0081V44.0455ZM19.941 16.7886C18.1571 16.7886 16.706 15.3373 16.706 13.5536C16.706 11.7698 18.1571 10.3185 19.941 10.3185C21.7249 10.3185 23.1761 11.7697 23.1761 13.5536C23.1761 15.3375 21.7249 16.7886 19.941 16.7886ZM21.9779 17.8273V20.4208L19.9651 18.288C20.685 18.2843 21.3674 18.1195 21.9779 17.8273ZM20.9489 8.92734C20.6239 8.85659 20.287 8.81834 19.9411 8.81834C19.5953 8.81834 19.2584 8.85659 18.9334 8.92734V3.65659L20.9489 2.60972V8.92734ZM17.4334 9.53959C16.8968 9.87609 16.4323 10.3172 16.0683 10.8341H8.86313C8.78663 10.1867 8.32088 9.65834 7.70688 9.48784L17.4334 4.43572V9.53959ZM8.87525 13.3947L10.2533 14.7727H8.87525V13.3947ZM9.93588 12.3341H14.1918L12.0638 14.462L9.93588 12.3341ZM17.9043 18.2895L21.6966 22.3082L17.9043 26.327V18.2895ZM21.9779 24.1957V32.2331L18.1855 28.2145L21.9779 24.1957ZM21.6966 34.1206L17.9043 38.1392V30.102L21.6966 34.1206ZM17.9043 53.7267L20.9889 56.9953H17.9043V53.7267ZM24.673 13.4382L26.0075 14.7727H24.5159C24.6198 14.3835 24.6759 13.975 24.6759 13.5535C24.6759 13.5148 24.6739 13.4767 24.673 13.4382ZM45.3831 14.7727L47.5111 12.6447L49.6391 14.7727H45.3833H45.3831ZM23.8138 10.8341C23.4498 10.3172 22.9854 9.87609 22.4486 9.53959V2.58659L39.0045 10.8342L23.8138 10.8341ZM7.375 16.0847C7.375 16.1346 7.33113 16.1785 7.28125 16.1785H2.21875C2.16888 16.1785 2.125 16.1346 2.125 16.0847V11.0222C2.125 10.9723 2.16888 10.9285 2.21875 10.9285H7.28125C7.33113 10.9285 7.375 10.9722 7.375 11.0222V16.0847ZM13.8743 14.7727L15.2088 13.4382C15.2079 13.4766 15.2059 13.5148 15.2059 13.5535C15.2059 13.975 15.262 14.3835 15.3659 14.7727H13.8743ZM14.4065 43.835L16.404 41.8373V57.1805L14.4065 57.755V43.835ZM29.3479 61.8751H10.5339V60.4296L17.2599 58.4952H22.622L29.348 60.4296L29.3479 61.8751ZM19.9408 11.5998C18.8635 11.5998 17.9871 12.4762 17.9871 13.5535C17.9871 14.6307 18.8635 15.5071 19.9408 15.5071C21.018 15.5071 21.8945 14.6307 21.8945 13.5535C21.8945 12.4762 21.018 11.5998 19.9408 11.5998ZM19.9408 14.0071C19.6906 14.0071 19.4871 13.8036 19.4871 13.5535C19.4871 13.3033 19.6906 13.0998 19.9408 13.0998C20.1909 13.0998 20.3945 13.3033 20.3945 13.5535C20.3945 13.8036 20.191 14.0071 19.9408 14.0071ZM43.3841 50.2062C43.3841 50.6203 43.0483 50.9562 42.6341 50.9562H41.1313V52.4592C41.1313 52.8733 40.7954 53.2092 40.3813 53.2092C39.9671 53.2092 39.6313 52.8733 39.6313 52.4592V50.2062C39.6313 49.7921 39.9671 49.4562 40.3813 49.4562H42.6341C43.0483 49.4562 43.3841 49.7921 43.3841 50.2062ZM38.2635 55.8775C38.2635 56.2916 37.9276 56.6275 37.5135 56.6275H36.0106V58.1303C36.0106 58.5445 35.6748 58.8803 35.2606 58.8803C34.8465 58.8803 34.5106 58.5445 34.5106 58.1303V55.8775C34.5106 55.4633 34.8465 55.1275 35.2606 55.1275H37.5135C37.9276 55.1275 38.2635 55.4633 38.2635 55.8775ZM39.6311 46.788V44.5351C39.6311 44.121 39.967 43.7851 40.3811 43.7851H42.634C43.0481 43.7851 43.384 44.121 43.384 44.5351C43.384 44.9492 43.0481 45.2851 42.634 45.2851H41.1311V46.788C41.1311 47.2021 40.7953 47.538 40.3811 47.538C39.967 47.538 39.6311 47.2021 39.6311 46.788ZM38.2635 44.5351C38.2635 44.9492 37.9276 45.2851 37.5135 45.2851H36.0106V46.788C36.0106 47.2021 35.6748 47.538 35.2606 47.538C34.8465 47.538 34.5106 47.2021 34.5106 46.788V44.5351C34.5106 44.121 34.8465 43.7851 35.2606 43.7851H37.5135C37.9276 43.7851 38.2635 44.121 38.2635 44.5351ZM38.2635 50.2062C38.2635 50.6203 37.9276 50.9562 37.5135 50.9562H36.0106V52.4592C36.0106 52.8733 35.6748 53.2092 35.2606 53.2092C34.8465 53.2092 34.5106 52.8733 34.5106 52.4592V50.2062C34.5106 49.7921 34.8465 49.4562 35.2606 49.4562H37.5135C37.9276 49.4562 38.2635 49.7921 38.2635 50.2062ZM43.3841 55.8775C43.3841 56.2916 43.0483 56.6275 42.6341 56.6275H41.1313V58.1303C41.1313 58.5445 40.7954 58.8803 40.3813 58.8803C39.9671 58.8803 39.6313 58.5445 39.6313 58.1303V55.8775C39.6313 55.4633 39.9671 55.1275 40.3813 55.1275H42.6341C43.0483 55.1275 43.3841 55.4633 43.3841 55.8775ZM62.625 31.5506H44.0654C43.6513 31.5506 43.3154 31.8865 43.3154 32.3006V34.9726C43.3154 35.3867 43.6513 35.7226 44.0654 35.7226H44.6834V40.9871H32.4613C32.0471 40.9871 31.7113 41.323 31.7113 41.7371V62.6251C31.7113 63.0392 32.0471 63.3751 32.4613 63.3751H61.257C61.6711 63.3751 62.007 63.0392 62.007 62.6251V35.7225H62.6249C63.039 35.7225 63.3749 35.3866 63.3749 34.9725V32.3005C63.3749 31.8863 63.039 31.5505 62.6249 31.5505L62.625 31.5506ZM44.8154 33.0506H61.875V34.2226H44.8154V33.0506ZM33.2113 42.4871H44.6834V61.8751H33.2113V42.4871ZM56.0133 52.2291V61.8752H50.6773V52.2291H56.0133ZM60.507 61.8752H57.5133V52.2291H57.7599C58.174 52.2291 58.5099 51.8932 58.5099 51.4791C58.5099 51.065 58.174 50.7291 57.7599 50.7291H48.9306C48.5165 50.7291 48.1806 51.065 48.1806 51.4791C48.1806 51.8932 48.5165 52.2291 48.9306 52.2291H49.1773V61.8752H46.1835V35.7226H60.5071V61.8752H60.507ZM49.4909 47.8006H57.1404C57.5545 47.8006 57.8904 47.4647 57.8904 47.0506V39.4011C57.8904 38.987 57.5545 38.6511 57.1404 38.6511H49.4909C49.0768 38.6511 48.7409 38.987 48.7409 39.4011V47.0506C48.7409 47.4647 49.0768 47.8006 49.4909 47.8006ZM50.2409 43.9757H52.5656V46.3006H50.2409V43.9757ZM54.0656 46.3006V43.9757H56.3905V46.3006H54.0656ZM56.3905 42.4757H54.0658V40.151H56.3905V42.4757ZM52.5658 40.151V42.4757H50.2409V40.151H52.5658Z" fill="#111827"/>
</svg>
