<svg width="64" height="64" viewBox="0 0 64 64" fill="none" xmlns="http://www.w3.org/2000/svg">
<g clip-path="url(#clip0_986_19703)">
<path d="M37.885 13.3472C36.7352 12.686 35.5884 12.0195 34.4403 11.3551C35.0666 9.884 35.7144 8.3675 36.3031 6.8485C36.5292 6.26512 36.4518 5.60962 36.0961 5.095C35.374 4.05012 33.9873 3.989 33.0532 4.87762C30.5952 7.21613 28.1678 9.502 25.7215 11.8197C25.2496 12.2669 25.0169 12.8741 25.083 13.4858C25.1485 14.0915 25.5005 14.6286 26.0486 14.9595C27.2168 15.6646 28.3937 16.3289 29.5609 16.9959C28.9797 18.3659 28.2644 20.0268 27.6959 21.4963C27.335 22.4289 27.7485 23.4641 28.6575 23.9042C29.3715 24.25 30.1945 24.183 30.9449 23.4689C33.335 21.1943 35.879 18.8021 38.2788 16.5254C38.756 16.0725 38.9879 15.4613 38.9147 14.8483C38.8409 14.2281 38.4656 13.6811 37.885 13.3472ZM36.9881 15.1649C34.4217 17.5995 29.7436 22.1045 29.4964 22.2259C29.4781 22.2188 29.4331 22.2021 29.4444 22.1726C30.0931 20.4782 30.8985 18.6464 31.5596 17.0801C31.7454 16.64 31.6717 16.0457 31.0882 15.7099C29.7332 14.9301 28.3636 14.1669 27.0176 13.3541C26.9176 13.2937 26.9219 13.2654 27.0112 13.1806C28.6199 11.6564 33.9368 6.49388 34.4868 6.12325C34.5363 6.13387 34.5547 6.16062 34.5549 6.17125C33.8921 7.88 33.1528 9.5855 32.4424 11.2636C32.218 11.7936 32.4058 12.3451 32.9098 12.6361C34.2571 13.4139 35.6014 14.1978 36.9504 14.9726C37.0877 15.0516 37.0926 15.0659 36.9881 15.1649ZM57.4375 48.5475C57.9554 48.5475 58.375 48.1278 58.375 47.61V26.9654L61.7593 28.5995C62.2451 28.8337 62.8095 28.8032 63.2684 28.5151C63.7265 28.2274 64 27.7325 64 27.1912V21.58C64 20.9829 63.6524 20.4304 63.1165 20.1733L45.9912 11.9036C44.9015 5.16362 39.0429 0 32 0C24.1845 0 17.826 6.35837 17.826 14.174C17.826 15.7349 18.0802 17.2372 18.5485 18.6427L1.875 26.694V21.7768L15.2459 15.32C15.712 15.0949 15.9075 14.5344 15.6824 14.0681C15.4574 13.602 14.8971 13.4064 14.4304 13.6315L0.88575 20.1723C0.347625 20.4304 0 20.983 0 21.58V27.1912C0 27.7325 0.2735 28.2275 0.731625 28.5151C1.19075 28.8035 1.75537 28.8336 2.2415 28.5993L5.625 26.9654V58.375H1.6875C0.757 58.375 0 59.132 0 60.0625V62.3125C0 63.243 0.757 64 1.6875 64H62.3125C63.243 64 64 63.243 64 62.3125V60.0625C64 59.132 63.243 58.375 62.3125 58.375H58.375V51.36C58.375 50.8423 57.9554 50.4225 57.4375 50.4225C56.9196 50.4225 56.5 50.8423 56.5 51.36V58.375H32.9375V51.4605C36.4421 50.9996 39.1567 47.9954 39.1567 44.3671V38.2324C39.1567 37.2489 38.3567 36.4487 37.3731 36.4487H35.75V33.2014C35.75 32.6836 35.3304 32.2639 34.8125 32.2639C34.2946 32.2639 33.875 32.6836 33.875 33.2014V36.4487H30.125V33.2014C30.125 32.6836 29.7054 32.2639 29.1875 32.2639C28.6696 32.2639 28.25 32.6836 28.25 33.2014V36.4487H26.6269C25.6434 36.4487 24.8433 37.2489 24.8433 38.2324V44.3671C24.8433 47.9954 27.5579 50.9996 31.0625 51.4605V58.375H7.5V26.06L19.2598 20.3815C21.5654 25.0942 26.4096 28.3477 32 28.3477C37.5904 28.3477 42.4346 25.0941 44.7402 20.3815L56.5 26.06V47.61C56.5 48.1278 56.9196 48.5475 57.4375 48.5475ZM26.7183 44.3671V38.3237H37.2817V44.3671C37.2817 47.2795 34.9124 49.6489 32 49.6489C29.0876 49.6489 26.7183 47.2794 26.7183 44.3671ZM62.125 60.25V62.125H1.875V60.25H62.125ZM32 26.4729C25.2184 26.4729 19.701 20.9556 19.701 14.174C19.701 7.39225 25.2184 1.875 32 1.875C38.7816 1.875 44.299 7.39225 44.299 14.174C44.299 20.9556 38.7816 26.4729 32 26.4729ZM45.4515 18.6427C45.9196 17.2371 46.174 15.7347 46.174 14.174C46.174 14.1404 46.173 14.107 46.1727 14.0735L62.125 21.7768V26.694L45.4515 18.6427Z" fill="#111827"/>
</g>
<defs>
<clipPath id="clip0_986_19703">
<rect width="64" height="64" fill="white"/>
</clipPath>
</defs>
</svg>
