<svg width="64" height="64" viewBox="0 0 64 64" fill="none" xmlns="http://www.w3.org/2000/svg">
<path d="M45.375 7.0625H44.4375V6.125C44.4375 5.60725 44.0179 5.1875 43.5 5.1875C42.9821 5.1875 42.5625 5.60725 42.5625 6.125V7.0625H41.625C41.1071 7.0625 40.6875 7.48225 40.6875 8C40.6875 8.51775 41.1071 8.9375 41.625 8.9375H42.5625V9.875C42.5625 10.3927 42.9821 10.8125 43.5 10.8125C44.0179 10.8125 44.4375 10.3927 44.4375 9.875V8.9375H45.375C45.8929 8.9375 46.3125 8.51775 46.3125 8C46.3125 7.48225 45.8929 7.0625 45.375 7.0625Z" fill="#111827"/>
<path d="M60.9688 34.9409H60.0312V34.0034C60.0312 33.4857 59.6116 33.0659 59.0938 33.0659C58.5759 33.0659 58.1562 33.4857 58.1562 34.0034V34.9409H57.2188C56.7009 34.9409 56.2812 35.3607 56.2812 35.8784C56.2812 36.3962 56.7009 36.8159 57.2188 36.8159H58.1562V37.7534C58.1562 38.2712 58.5759 38.6909 59.0938 38.6909C59.6116 38.6909 60.0312 38.2712 60.0312 37.7534V36.8159H60.9688C61.4866 36.8159 61.9062 36.3962 61.9062 35.8784C61.9062 35.3607 61.4866 34.9409 60.9688 34.9409Z" fill="#111827"/>
<path d="M7.65161 22.6685H6.71411V21.731C6.71411 21.2132 6.29436 20.7935 5.77661 20.7935C5.25886 20.7935 4.83911 21.2132 4.83911 21.731V22.6685H3.90161C3.38386 22.6685 2.96411 23.0882 2.96411 23.606C2.96411 24.1237 3.38386 24.5435 3.90161 24.5435H4.83911V25.481C4.83911 25.9987 5.25886 26.4185 5.77661 26.4185C6.29436 26.4185 6.71411 25.9987 6.71411 25.481V24.5435H7.65161C8.16936 24.5435 8.58911 24.1237 8.58911 23.606C8.58911 23.0882 8.16936 22.6685 7.65161 22.6685Z" fill="#111827"/>
<path d="M17.25 36.0132H16.6875V35.4507C16.6875 34.9329 16.2678 34.5132 15.75 34.5132C15.2322 34.5132 14.8125 34.9329 14.8125 35.4507V36.0132H14.25C13.7322 36.0132 13.3125 36.4329 13.3125 36.9507C13.3125 37.4684 13.7322 37.8882 14.25 37.8882H14.8125V38.4507C14.8125 38.9684 15.2322 39.3882 15.75 39.3882C16.2678 39.3882 16.6875 38.9684 16.6875 38.4507V37.8882H17.25C17.7677 37.8882 18.1875 37.4684 18.1875 36.9507C18.1875 36.4329 17.7677 36.0132 17.25 36.0132Z" fill="#111827"/>
<path d="M35 36.0132H34.4375V35.4507C34.4375 34.9329 34.0179 34.5132 33.5 34.5132C32.9821 34.5132 32.5625 34.9329 32.5625 35.4507V36.0132H32C31.4822 36.0132 31.0625 36.4329 31.0625 36.9507C31.0625 37.4684 31.4822 37.8882 32 37.8882H32.5625V38.4507C32.5625 38.9684 32.9821 39.3882 33.5 39.3882C34.0179 39.3882 34.4375 38.9684 34.4375 38.4507V37.8882H35C35.5179 37.8882 35.9375 37.4684 35.9375 36.9507C35.9375 36.4329 35.5179 36.0132 35 36.0132Z" fill="#111827"/>
<path d="M26.125 36.0132H25.5625V35.4507C25.5625 34.9329 25.1428 34.5132 24.625 34.5132C24.1072 34.5132 23.6875 34.9329 23.6875 35.4507V36.0132H23.125C22.6072 36.0132 22.1875 36.4329 22.1875 36.9507C22.1875 37.4684 22.6072 37.8882 23.125 37.8882H23.6875V38.4507C23.6875 38.9684 24.1072 39.3882 24.625 39.3882C25.1428 39.3882 25.5625 38.9684 25.5625 38.4507V37.8882H26.125C26.6427 37.8882 27.0625 37.4684 27.0625 36.9507C27.0625 36.4329 26.6427 36.0132 26.125 36.0132Z" fill="#111827"/>
<path d="M35.125 9.5625H20.0416C19.5239 9.5625 19.1041 9.98225 19.1041 10.5C19.1041 11.0178 19.5239 11.4375 20.0416 11.4375H34.1875V21.0625H14.8125V11.4375H16C16.5178 11.4375 16.9375 11.0178 16.9375 10.5C16.9375 9.98225 16.5178 9.5625 16 9.5625H13.875C13.3572 9.5625 12.9375 9.98225 12.9375 10.5V22C12.9375 22.5177 13.3572 22.9375 13.875 22.9375H35.125C35.6429 22.9375 36.0625 22.5177 36.0625 22V10.5C36.0625 9.98225 35.6429 9.5625 35.125 9.5625Z" fill="#111827"/>
<path d="M63.0625 53.1874H59.4789V51.6249C59.4789 50.4188 58.4975 49.4374 57.2914 49.4374H54.7668V27.0624H59.9151C60.196 27.0624 60.4621 26.9364 60.6403 26.7191C60.8183 26.5019 60.8895 26.2163 60.8345 25.9408L58.3325 13.4408C58.2448 13.0026 57.86 12.6873 57.4132 12.6873H49.9171C49.4704 12.6873 49.0856 13.0026 48.9979 13.4408L46.4959 25.9408C46.4409 26.2163 46.5121 26.5019 46.6901 26.7191C46.8682 26.9364 47.1344 27.0624 47.4152 27.0624H52.8919V49.4374H50.2915C49.0854 49.4374 48.104 50.4188 48.104 51.6249V53.1874H42.4375V51.3124H44.125C44.9176 51.3124 45.5625 50.6675 45.5625 49.8749V39.1249C45.5625 38.3323 44.9176 37.6874 44.125 37.6874H42.6875V32.5274C42.6875 30.41 40.9649 28.6874 38.8475 28.6874H10.4025C8.28513 28.6874 6.5625 30.41 6.5625 32.5274V33.0831C6.5625 33.6009 6.98225 34.0206 7.5 34.0206C8.01775 34.0206 8.4375 33.6009 8.4375 33.0831V32.5274C8.4375 31.4439 9.319 30.5624 10.4025 30.5624H38.8475C39.931 30.5624 40.8125 31.4439 40.8125 32.5274V37.6874H40.125C39.3324 37.6874 38.6875 38.3323 38.6875 39.1249V43.6874H36C35.4821 43.6874 35.0625 44.1071 35.0625 44.6249C35.0625 45.1426 35.4821 45.5624 36 45.5624H38.6875V49.4374H10.5625V45.5624H32C32.5179 45.5624 32.9375 45.1426 32.9375 44.6249C32.9375 44.1071 32.5179 43.6874 32 43.6874H10.5625V39.1249C10.5625 38.3323 9.91763 37.6874 9.125 37.6874H8.4375V37.1249C8.4375 36.6071 8.01775 36.1874 7.5 36.1874C6.98225 36.1874 6.5625 36.6071 6.5625 37.1249V37.6874H5.125C4.33238 37.6874 3.6875 38.3323 3.6875 39.1249V49.8749C3.6875 50.6675 4.33238 51.3124 5.125 51.3124H6.8125V53.1874H0.9375C0.41975 53.1874 0 53.6071 0 54.1249V57.8749C0 58.3926 0.41975 58.8124 0.9375 58.8124H63.0625C63.5804 58.8124 64 58.3926 64 57.8749V54.1249C64 53.6071 63.5804 53.1874 63.0625 53.1874ZM48.5589 25.1874L50.6854 14.5624H56.6446L58.7713 25.1874H48.5589ZM49.9789 51.6249C49.9789 51.4526 50.119 51.3124 50.2914 51.3124H57.2914C57.4637 51.3124 57.6039 51.4526 57.6039 51.6249V53.1874H49.9789V51.6249ZM40.5625 39.5624H43.6875V49.4374H40.5625V39.5624ZM40.5625 51.3124V53.1874H8.6875V51.3124H40.5625ZM5.5625 49.4374V39.5624H8.6875V49.4374H5.5625ZM62.125 56.9374H1.875V55.0624H62.125V56.9374Z" fill="#111827"/>
</svg>
