<svg width="62" height="62" viewBox="0 0 62 62" fill="none" xmlns="http://www.w3.org/2000/svg">
<path d="M58.2289 4.76975H56.1344V3.16975C56.1344 1.63763 54.8835 0.386719 53.3514 0.386719H35.4508C33.9186 0.386719 32.6677 1.63763 32.6677 3.16975V8.22187C32.6677 9.75399 33.9186 11.0049 35.4508 11.0049H53.3417C54.8738 11.0049 56.1247 9.75399 56.1247 8.22187V6.62187H58.2192C59.0629 6.62187 59.7514 7.31035 59.7514 8.15399V13.5067C59.7514 15.7079 57.9574 17.5019 55.7562 17.5019H51.8871C48.6677 17.5019 46.0398 20.1297 46.0398 23.3491V26.4619H44.2265C43.7126 26.4619 43.2956 26.8788 43.2956 27.3928V36.4594C43.2956 38.4861 44.9441 40.1249 46.9611 40.1249C48.9877 40.1249 50.6265 38.4764 50.6265 36.4594V27.3928C50.6265 26.8788 50.2095 26.4619 49.6956 26.4619H47.8823V23.3491C47.8823 21.1479 49.6762 19.354 51.8774 19.354H55.7465C58.9659 19.354 61.5938 16.7261 61.5938 13.5067V8.15399C61.6132 6.28247 60.0908 4.76975 58.2289 4.76975ZM54.2726 8.22187C54.2726 8.73581 53.8556 9.15278 53.3417 9.15278H35.4508C34.9368 9.15278 34.5198 8.73581 34.5198 8.22187V3.16975C34.5198 2.65581 34.9368 2.23884 35.4508 2.23884H53.3417C53.8653 2.23884 54.2726 2.65581 54.2726 3.16975V8.22187ZM48.7938 36.4594C48.7938 37.4582 47.9792 38.2728 46.9804 38.2728C45.9817 38.2728 45.1671 37.4582 45.1671 36.4594V28.3237H48.7938V36.4594Z" fill="#111827"/>
<path d="M34.0157 40.7842H27.5381L26.9854 36.2751C29.8945 34.5782 31.6981 31.5236 31.6981 28.12V24.6097H32.1054C33.6957 24.6097 34.9854 23.3103 34.9854 21.72C34.9854 20.6533 34.3551 19.7127 33.4242 19.2667C33.2109 14.4473 29.8945 10.3067 25.2787 9.02666L25.3757 7.9115C25.3854 7.79514 25.3951 7.68847 25.3951 7.57211C25.3951 5.62302 23.8048 4.03271 21.8557 4.03271C20.8666 4.03271 19.9163 4.44968 19.2472 5.17696C18.5781 5.90423 18.2387 6.89332 18.326 7.87271L18.423 9.00726C13.8072 10.2873 10.5006 14.4279 10.2775 19.2473C9.34661 19.6933 8.71631 20.6339 8.71631 21.7103C8.71631 23.3006 10.0157 24.6 11.606 24.6H12.0715V28.1103C12.0715 31.5236 13.8654 34.5782 16.7745 36.2557L16.2218 40.7745H9.73449C4.5854 40.7745 0.406006 44.9636 0.406006 50.103V60.6727C0.406006 61.1867 0.822976 61.6036 1.33691 61.6036H12.3236H31.4654H42.4521C42.966 61.6036 43.383 61.1867 43.383 60.6727V50.103C43.3539 44.9733 39.1648 40.7842 34.0157 40.7842ZM17.0266 42.6461H26.7139H28.0618L26.8496 49.4242H16.8909L15.6787 42.6461H17.0266ZM18.5781 10.9176L18.8593 14.1854C18.8981 14.6703 19.3054 15.0388 19.7806 15.0388H19.8581C20.3721 15 20.7502 14.5442 20.7018 14.04L20.1587 7.72726C20.1199 7.25211 20.2751 6.79635 20.5951 6.43756C20.9151 6.08847 21.3612 5.89453 21.8363 5.89453C22.7672 5.89453 23.5139 6.6509 23.5139 7.57211C23.5139 7.6109 23.5139 7.64968 23.5042 7.71756L22.9709 14.0109C22.9321 14.5248 23.3102 14.9709 23.8145 15.0097C24.3284 15.0582 24.7745 14.6703 24.8133 14.1661L25.0945 10.8982C28.6533 12.0327 31.223 15.2327 31.5333 18.9757H12.1296C12.4496 15.2521 15.0096 12.0521 18.5781 10.9176ZM10.5587 21.7297C10.5587 21.2933 10.8787 20.9151 11.2763 20.8667C11.3345 20.857 11.383 20.857 11.4315 20.857H32.2509C32.2993 20.857 32.3381 20.8667 32.3866 20.8667C32.8036 20.9345 33.1236 21.303 33.1236 21.7394C33.1236 22.3115 32.6581 22.7673 32.0957 22.7673H30.7672H12.983H11.5866C11.0242 22.7576 10.5587 22.3018 10.5587 21.7297ZM13.9042 28.12V24.6097H29.8363V28.12C29.8363 31.0388 28.2072 33.657 25.5793 34.9467C24.5321 35.4606 23.4072 35.7127 22.2339 35.7127H21.5066C20.3236 35.7127 19.1987 35.4509 18.1612 34.937C15.5333 33.657 13.9042 31.0485 13.9042 28.12ZM18.5199 37.08C19.4702 37.4 20.4787 37.5745 21.4969 37.5745H22.2242C23.2521 37.5745 24.2509 37.4097 25.2012 37.0897L25.6569 40.7939H18.0642L18.5199 37.08ZM2.23873 50.1224C2.23873 46.0012 5.59388 42.6461 9.7151 42.6461H13.7878L14.9999 49.4242H12.2945C11.7806 49.4242 11.3636 49.8412 11.3636 50.3551V59.7612H7.61085V55.5236C7.61085 55.0097 7.19388 54.5927 6.67995 54.5927C6.16601 54.5927 5.74904 55.0097 5.74904 55.5236V59.7612H2.23873V50.1224ZM13.2254 59.7612V51.2764H16.1054H27.6254H30.5151V59.7612H13.2254ZM41.4921 59.7612H37.9818V55.5236C37.9818 55.0097 37.5648 54.5927 37.0509 54.5927C36.5369 54.5927 36.1199 55.0097 36.1199 55.5236V59.7612H32.3672V50.3551C32.3672 49.8412 31.9502 49.4242 31.4363 49.4242H28.7309L29.943 42.6461H34.0157C38.1369 42.6461 41.4921 46.0012 41.4921 50.1224V59.7612Z" fill="#111827"/>
</svg>
