<svg width="64" height="64" viewBox="0 0 64 64" fill="none" xmlns="http://www.w3.org/2000/svg">
<path d="M37.6387 1.08105C37.9316 0.951723 38.2684 0.965336 38.5625 1.19922L38.6855 1.31348L42.0957 4.9502L42.3916 5.2666H49.5273C50.0706 5.26664 50.6083 5.42725 51.0801 5.73828C51.4934 6.01082 51.8435 6.3911 52.0967 6.84863L52.1992 7.0498L53.0947 8.95801L53.3643 9.5332H62C62.4929 9.5332 63 9.97883 63 10.667V14.9336C62.9998 19.1562 59.8065 22.4668 56 22.4668H51V26.7588L37 21.4268V2.13672C37.0002 1.59316 37.2955 1.23266 37.6387 1.08105ZM48 9.66699C46.2829 9.66699 45 11.1306 45 12.7998C45 14.469 46.2829 15.9336 48 15.9336C49.7171 15.9336 51 14.469 51 12.7998C51 11.1306 49.7171 9.66699 48 9.66699ZM9 32.6572L8.35547 32.4121C4.10751 30.7969 1 26.4836 1 21.333C1.0001 19.4676 2.40341 18.0664 4 18.0664C5.59659 18.0664 6.9999 19.4676 7 21.333C7 24.1755 9.1829 26.5996 12 26.5996H33.0723L51 33.4287V61.8662C51 62.5544 50.4929 63 50 63H42C41.5071 63 41 62.5544 41 61.8662V45.9336H19V61.8662C19 62.5544 18.4929 63 18 63H10C9.5071 63 9 62.5544 9 61.8662V32.6572Z" stroke="black" stroke-width="2"/>
</svg>
