<svg width="353" height="343" viewBox="0 0 353 343" fill="none" xmlns="http://www.w3.org/2000/svg">
<path fill-rule="evenodd" clip-rule="evenodd" d="M319.22 139.925C322.049 166.969 332.1 190.928 334.585 218.006C338.285 258.309 370.217 312.937 337.255 336.423C302.524 361.169 259.705 307.18 217.444 301.47C190.265 297.798 163.255 319.073 137.577 309.442C110.101 299.136 95.8179 271.109 76.8359 248.73C48.9519 215.856 5.60089 190.758 0.736886 148.11C-6.43811 85.199 40.1629 59.3708 80.5119 52.2508C125.197 46.8828 162.412 75.6988 191.937 65.7234C235.615 50.9667 272.446 -18.5128 312.275 4.70598C352.244 28.006 314.408 93.9109 319.22 139.925Z" fill="#FBC034"/>
</svg>
