<svg width="44" height="44" viewBox="0 0 44 44" fill="none" xmlns="http://www.w3.org/2000/svg">
<path fill-rule="evenodd" clip-rule="evenodd" d="M6.60107 10.9969C6.60107 10.4134 6.83286 9.85382 7.24544 9.44124C7.65802 9.02866 8.2176 8.79687 8.80107 8.79688H35.2011C35.7846 8.79688 36.3441 9.02866 36.7567 9.44124C37.1693 9.85382 37.4011 10.4134 37.4011 10.9969C37.4011 11.5804 37.1693 12.1399 36.7567 12.5525C36.3441 12.9651 35.7846 13.1969 35.2011 13.1969H8.80107C8.2176 13.1969 7.65802 12.9651 7.24544 12.5525C6.83286 12.1399 6.60107 11.5804 6.60107 10.9969ZM6.60107 21.9969C6.60107 21.4134 6.83286 20.8538 7.24544 20.4412C7.65802 20.0287 8.2176 19.7969 8.80107 19.7969H35.2011C35.7846 19.7969 36.3441 20.0287 36.7567 20.4412C37.1693 20.8538 37.4011 21.4134 37.4011 21.9969C37.4011 22.5804 37.1693 23.1399 36.7567 23.5525C36.3441 23.9651 35.7846 24.1969 35.2011 24.1969H8.80107C8.2176 24.1969 7.65802 23.9651 7.24544 23.5525C6.83286 23.1399 6.60107 22.5804 6.60107 21.9969ZM19.8011 32.9969C19.8011 32.4134 20.0329 31.8538 20.4454 31.4412C20.858 31.0287 21.4176 30.7969 22.0011 30.7969H35.2011C35.7846 30.7969 36.3441 31.0287 36.7567 31.4412C37.1693 31.8538 37.4011 32.4134 37.4011 32.9969C37.4011 33.5804 37.1693 34.1399 36.7567 34.5525C36.3441 34.9651 35.7846 35.1969 35.2011 35.1969H22.0011C21.4176 35.1969 20.858 34.9651 20.4454 34.5525C20.0329 34.1399 19.8011 33.5804 19.8011 32.9969Z" fill="#005ED3"/>
</svg>
