<svg width="292" height="164" viewBox="0 0 292 164" fill="none" xmlns="http://www.w3.org/2000/svg">
<g filter="url(#filter0_d_17_287)">
<rect x="26" y="18" width="242" height="80" rx="24" fill="#F4F3F8" shape-rendering="crispEdges"/>
<g filter="url(#filter1_d_17_287)">
<rect x="50" y="26" width="64" height="64" rx="24" fill="#005ED3"/>
<path d="M68.6668 56.6667H76.6668C77.0204 56.6667 77.3596 56.5262 77.6096 56.2761C77.8597 56.0261 78.0001 55.687 78.0001 55.3333V47.3333C78.0001 46.9797 77.8597 46.6406 77.6096 46.3905C77.3596 46.1405 77.0204 46 76.6668 46H68.6668C68.3132 46 67.974 46.1405 67.724 46.3905C67.4739 46.6406 67.3335 46.9797 67.3335 47.3333V55.3333C67.3335 55.687 67.4739 56.0261 67.724 56.2761C67.974 56.5262 68.3132 56.6667 68.6668 56.6667ZM70.0001 48.6667H75.3335V54H70.0001V48.6667ZM95.3335 50H82.0001C81.6465 50 81.3074 50.1405 81.0573 50.3905C80.8073 50.6406 80.6668 50.9797 80.6668 51.3333C80.6668 51.687 80.8073 52.0261 81.0573 52.2761C81.3074 52.5262 81.6465 52.6667 82.0001 52.6667H95.3335C95.6871 52.6667 96.0262 52.5262 96.2763 52.2761C96.5263 52.0261 96.6668 51.687 96.6668 51.3333C96.6668 50.9797 96.5263 50.6406 96.2763 50.3905C96.0262 50.1405 95.6871 50 95.3335 50ZM95.3335 63.3333H82.0001C81.6465 63.3333 81.3074 63.4738 81.0573 63.7239C80.8073 63.9739 80.6668 64.313 80.6668 64.6667C80.6668 65.0203 80.8073 65.3594 81.0573 65.6095C81.3074 65.8595 81.6465 66 82.0001 66H95.3335C95.6871 66 96.0262 65.8595 96.2763 65.6095C96.5263 65.3594 96.6668 65.0203 96.6668 64.6667C96.6668 64.313 96.5263 63.9739 96.2763 63.7239C96.0262 63.4738 95.6871 63.3333 95.3335 63.3333ZM71.2561 68.6667H71.2721C71.6217 68.6655 71.9569 68.5272 72.2055 68.2813L77.6001 62.948C77.7385 62.8289 77.851 62.6826 77.9306 62.5182C78.0101 62.3538 78.055 62.1749 78.0626 61.9924C78.0701 61.81 78.0401 61.6279 77.9744 61.4575C77.9087 61.2872 77.8086 61.1321 77.6805 61.002C77.5524 60.8718 77.3989 60.7694 77.2296 60.701C77.0603 60.6327 76.8787 60.5998 76.6961 60.6045C76.5136 60.6092 76.3339 60.6513 76.1683 60.7283C76.0027 60.8053 75.8547 60.9155 75.7335 61.052L71.2948 65.4373L69.6255 63.704C69.5037 63.5781 69.3583 63.4774 69.1976 63.4077C69.0369 63.338 68.8641 63.3006 68.689 63.2977C68.3353 63.2919 67.9937 63.4267 67.7395 63.6727C67.4852 63.9186 67.3391 64.2555 67.3332 64.6092C67.3273 64.9629 67.4622 65.3044 67.7081 65.5587L70.3135 68.2667C70.4365 68.3922 70.5831 68.4921 70.7449 68.5608C70.9066 68.6294 71.0804 68.6654 71.2561 68.6667Z" fill="#F4F3F8"/>
</g>
<path d="M131.2 57.5V54.725C131.91 54.135 132.725 53.45 133.645 52.67C134.565 51.88 135.5 51.045 136.45 50.165C137.4 49.275 138.275 48.39 139.075 47.51C139.875 46.62 140.52 45.78 141.01 44.99C141.51 44.19 141.76 43.495 141.76 42.905C141.76 42.235 141.595 41.625 141.265 41.075C140.945 40.515 140.51 40.07 139.96 39.74C139.41 39.4 138.8 39.23 138.13 39.23C137.46 39.23 136.845 39.4 136.285 39.74C135.735 40.07 135.29 40.515 134.95 41.075C134.62 41.625 134.455 42.235 134.455 42.905H131.335C131.335 41.635 131.645 40.49 132.265 39.47C132.895 38.44 133.72 37.625 134.74 37.025C135.77 36.415 136.9 36.11 138.13 36.11C139.37 36.11 140.5 36.415 141.52 37.025C142.54 37.635 143.355 38.455 143.965 39.485C144.575 40.505 144.88 41.645 144.88 42.905C144.88 43.605 144.735 44.325 144.445 45.065C144.155 45.805 143.75 46.56 143.23 47.33C142.72 48.1 142.125 48.88 141.445 49.67C140.765 50.46 140.035 51.25 139.255 52.04C138.475 52.83 137.68 53.61 136.87 54.38H145.06V57.5H131.2ZM163.346 57.5H159.296L153.041 48.845L151.766 50.39V57.5H148.646V36.5H151.766V45.545L159.326 36.5H163.406L155.096 46.415L163.346 57.5ZM171.036 56V50.06H165.096V46.94H171.036V41H174.156V46.94H180.096V50.06H174.156V56H171.036Z" fill="#111827"/>
<path d="M131.2 80.5V66.5H135.82C136.573 66.5 137.25 66.6833 137.85 67.05C138.457 67.4167 138.937 67.9133 139.29 68.54C139.65 69.16 139.83 69.8533 139.83 70.62C139.83 71.4 139.647 72.1033 139.28 72.73C138.92 73.35 138.433 73.8433 137.82 74.21C137.213 74.57 136.547 74.75 135.82 74.75H132.88V80.5H131.2ZM132.88 73.07H135.67C136.123 73.07 136.537 72.96 136.91 72.74C137.29 72.5133 137.59 72.21 137.81 71.83C138.037 71.4433 138.15 71.01 138.15 70.53C138.15 70.0433 138.037 69.61 137.81 69.23C137.59 68.8433 137.29 68.54 136.91 68.32C136.537 68.0933 136.123 67.98 135.67 67.98H132.88V73.07ZM141.552 80.5V70.5H143.232V71.75C143.585 71.2833 144.032 70.9133 144.572 70.64C145.112 70.36 145.698 70.22 146.332 70.22C146.718 70.22 147.092 70.27 147.452 70.37L146.772 72.05C146.498 71.9633 146.232 71.92 145.972 71.92C145.472 71.92 145.012 72.0433 144.592 72.29C144.178 72.53 143.848 72.8567 143.602 73.27C143.355 73.6833 143.232 74.1433 143.232 74.65V80.5H141.552ZM152.573 80.76C151.653 80.76 150.813 80.5233 150.053 80.05C149.299 79.5767 148.696 78.9433 148.243 78.15C147.796 77.35 147.573 76.4667 147.573 75.5C147.573 74.7667 147.703 74.0833 147.963 73.45C148.223 72.81 148.579 72.25 149.033 71.77C149.493 71.2833 150.026 70.9033 150.633 70.63C151.239 70.3567 151.886 70.22 152.573 70.22C153.493 70.22 154.329 70.4567 155.083 70.93C155.843 71.4033 156.446 72.04 156.893 72.84C157.346 73.64 157.573 74.5267 157.573 75.5C157.573 76.2267 157.443 76.9067 157.183 77.54C156.923 78.1733 156.563 78.7333 156.103 79.22C155.649 79.7 155.119 80.0767 154.513 80.35C153.913 80.6233 153.266 80.76 152.573 80.76ZM152.573 79.08C153.199 79.08 153.763 78.9167 154.263 78.59C154.769 78.2567 155.166 77.82 155.453 77.28C155.746 76.7333 155.893 76.14 155.893 75.5C155.893 74.8467 155.743 74.2467 155.443 73.7C155.149 73.1533 154.753 72.7167 154.253 72.39C153.753 72.0633 153.193 71.9 152.573 71.9C151.946 71.9 151.383 72.0667 150.883 72.4C150.383 72.7267 149.986 73.1633 149.693 73.71C149.399 74.2567 149.253 74.8533 149.253 75.5C149.253 76.1667 149.403 76.7733 149.703 77.32C150.003 77.86 150.406 78.29 150.913 78.61C151.419 78.9233 151.973 79.08 152.573 79.08ZM161.634 68.03V70.5H164.564V72.18H161.634V80.5H159.954V72.18H158.664V70.5H159.954V68.03C159.954 67.5167 160.077 67.0533 160.324 66.64C160.577 66.22 160.914 65.8867 161.334 65.64C161.761 65.3867 162.227 65.26 162.734 65.26C163.107 65.26 163.471 65.3367 163.824 65.49C164.177 65.6367 164.491 65.8567 164.764 66.15L163.564 67.34C163.471 67.2133 163.347 67.1167 163.194 67.05C163.047 66.9767 162.894 66.94 162.734 66.94C162.434 66.94 162.174 67.0467 161.954 67.26C161.741 67.4733 161.634 67.73 161.634 68.03ZM170.346 80.76C169.426 80.76 168.586 80.5233 167.826 80.05C167.073 79.5767 166.469 78.9433 166.016 78.15C165.569 77.35 165.346 76.4667 165.346 75.5C165.346 74.7667 165.476 74.0833 165.736 73.45C165.996 72.81 166.353 72.25 166.806 71.77C167.266 71.2833 167.799 70.9033 168.406 70.63C169.013 70.3567 169.659 70.22 170.346 70.22C171.099 70.22 171.789 70.3733 172.416 70.68C173.049 70.98 173.589 71.4 174.036 71.94C174.489 72.48 174.826 73.1067 175.046 73.82C175.273 74.5333 175.356 75.2967 175.296 76.11H167.136C167.216 76.6767 167.403 77.1833 167.696 77.63C167.989 78.07 168.363 78.42 168.816 78.68C169.276 78.94 169.786 79.0733 170.346 79.08C170.946 79.08 171.489 78.9267 171.976 78.62C172.463 78.3067 172.856 77.88 173.156 77.34L174.866 77.74C174.466 78.6267 173.863 79.3533 173.056 79.92C172.249 80.48 171.346 80.76 170.346 80.76ZM167.086 74.79H173.606C173.553 74.23 173.373 73.72 173.066 73.26C172.759 72.7933 172.369 72.42 171.896 72.14C171.423 71.86 170.906 71.72 170.346 71.72C169.786 71.72 169.273 71.8567 168.806 72.13C168.339 72.4033 167.953 72.7733 167.646 73.24C167.346 73.7 167.159 74.2167 167.086 74.79ZM180.07 80.69C179.53 80.67 179.004 80.57 178.49 80.39C177.984 80.2033 177.537 79.9533 177.15 79.64C176.77 79.32 176.494 78.9533 176.32 78.54L177.76 77.92C177.86 78.1467 178.04 78.36 178.3 78.56C178.56 78.76 178.86 78.92 179.2 79.04C179.54 79.16 179.884 79.22 180.23 79.22C180.597 79.22 180.94 79.1633 181.26 79.05C181.58 78.9367 181.84 78.77 182.04 78.55C182.247 78.3233 182.35 78.0533 182.35 77.74C182.35 77.4067 182.237 77.1467 182.01 76.96C181.79 76.7667 181.51 76.6167 181.17 76.51C180.837 76.3967 180.497 76.29 180.15 76.19C179.464 76.0167 178.85 75.81 178.31 75.57C177.77 75.3233 177.344 75.0133 177.03 74.64C176.724 74.26 176.57 73.7767 176.57 73.19C176.57 72.57 176.74 72.0333 177.08 71.58C177.427 71.1267 177.88 70.7767 178.44 70.53C179 70.2833 179.6 70.16 180.24 70.16C181.047 70.16 181.784 70.3333 182.45 70.68C183.117 71.0267 183.614 71.4967 183.94 72.09L182.59 72.88C182.477 72.64 182.304 72.43 182.07 72.25C181.837 72.0633 181.57 71.9167 181.27 71.81C180.97 71.7033 180.664 71.6467 180.35 71.64C179.964 71.6267 179.6 71.6767 179.26 71.79C178.927 71.9033 178.657 72.0767 178.45 72.31C178.25 72.5367 178.15 72.82 178.15 73.16C178.15 73.4933 178.257 73.7467 178.47 73.92C178.69 74.0933 178.974 74.2333 179.32 74.34C179.674 74.44 180.057 74.5567 180.47 74.69C181.077 74.8833 181.644 75.1067 182.17 75.36C182.697 75.6133 183.12 75.93 183.44 76.31C183.767 76.69 183.927 77.16 183.92 77.72C183.92 78.3333 183.737 78.87 183.37 79.33C183.004 79.7833 182.527 80.13 181.94 80.37C181.36 80.61 180.737 80.7167 180.07 80.69ZM188.684 80.69C188.144 80.67 187.617 80.57 187.104 80.39C186.597 80.2033 186.15 79.9533 185.764 79.64C185.384 79.32 185.107 78.9533 184.934 78.54L186.374 77.92C186.474 78.1467 186.654 78.36 186.914 78.56C187.174 78.76 187.474 78.92 187.814 79.04C188.154 79.16 188.497 79.22 188.844 79.22C189.21 79.22 189.554 79.1633 189.874 79.05C190.194 78.9367 190.454 78.77 190.654 78.55C190.86 78.3233 190.964 78.0533 190.964 77.74C190.964 77.4067 190.85 77.1467 190.624 76.96C190.404 76.7667 190.124 76.6167 189.784 76.51C189.45 76.3967 189.11 76.29 188.764 76.19C188.077 76.0167 187.464 75.81 186.924 75.57C186.384 75.3233 185.957 75.0133 185.644 74.64C185.337 74.26 185.184 73.7767 185.184 73.19C185.184 72.57 185.354 72.0333 185.694 71.58C186.04 71.1267 186.494 70.7767 187.054 70.53C187.614 70.2833 188.214 70.16 188.854 70.16C189.66 70.16 190.397 70.3333 191.064 70.68C191.73 71.0267 192.227 71.4967 192.554 72.09L191.204 72.88C191.09 72.64 190.917 72.43 190.684 72.25C190.45 72.0633 190.184 71.9167 189.884 71.81C189.584 71.7033 189.277 71.6467 188.964 71.64C188.577 71.6267 188.214 71.6767 187.874 71.79C187.54 71.9033 187.27 72.0767 187.064 72.31C186.864 72.5367 186.764 72.82 186.764 73.16C186.764 73.4933 186.87 73.7467 187.084 73.92C187.304 74.0933 187.587 74.2333 187.934 74.34C188.287 74.44 188.67 74.5567 189.084 74.69C189.69 74.8833 190.257 75.1067 190.784 75.36C191.31 75.6133 191.734 75.93 192.054 76.31C192.38 76.69 192.54 77.16 192.534 77.72C192.534 78.3333 192.35 78.87 191.984 79.33C191.617 79.7833 191.14 80.13 190.554 80.37C189.974 80.61 189.35 80.7167 188.684 80.69ZM194.11 70.5H195.79V80.5H194.11V70.5ZM194.97 68.87C194.703 68.87 194.48 68.7833 194.3 68.61C194.12 68.4367 194.03 68.22 194.03 67.96C194.03 67.7 194.12 67.4833 194.3 67.31C194.48 67.1367 194.7 67.05 194.96 67.05C195.22 67.05 195.44 67.1367 195.62 67.31C195.8 67.4833 195.89 67.7 195.89 67.96C195.89 68.22 195.8 68.4367 195.62 68.61C195.447 68.7833 195.23 68.87 194.97 68.87ZM202.455 80.76C201.535 80.76 200.695 80.5233 199.935 80.05C199.182 79.5767 198.579 78.9433 198.125 78.15C197.679 77.35 197.455 76.4667 197.455 75.5C197.455 74.7667 197.585 74.0833 197.845 73.45C198.105 72.81 198.462 72.25 198.915 71.77C199.375 71.2833 199.909 70.9033 200.515 70.63C201.122 70.3567 201.769 70.22 202.455 70.22C203.375 70.22 204.212 70.4567 204.965 70.93C205.725 71.4033 206.329 72.04 206.775 72.84C207.229 73.64 207.455 74.5267 207.455 75.5C207.455 76.2267 207.325 76.9067 207.065 77.54C206.805 78.1733 206.445 78.7333 205.985 79.22C205.532 79.7 205.002 80.0767 204.395 80.35C203.795 80.6233 203.149 80.76 202.455 80.76ZM202.455 79.08C203.082 79.08 203.645 78.9167 204.145 78.59C204.652 78.2567 205.049 77.82 205.335 77.28C205.629 76.7333 205.775 76.14 205.775 75.5C205.775 74.8467 205.625 74.2467 205.325 73.7C205.032 73.1533 204.635 72.7167 204.135 72.39C203.635 72.0633 203.075 71.9 202.455 71.9C201.829 71.9 201.265 72.0667 200.765 72.4C200.265 72.7267 199.869 73.1633 199.575 73.71C199.282 74.2567 199.135 74.8533 199.135 75.5C199.135 76.1667 199.285 76.7733 199.585 77.32C199.885 77.86 200.289 78.29 200.795 78.61C201.302 78.9233 201.855 79.08 202.455 79.08ZM217.95 74.28V80.5H216.27V74.65C216.27 74.1433 216.147 73.6833 215.9 73.27C215.653 72.8567 215.323 72.53 214.91 72.29C214.497 72.0433 214.037 71.92 213.53 71.92C213.03 71.92 212.57 72.0433 212.15 72.29C211.737 72.53 211.407 72.8567 211.16 73.27C210.913 73.6833 210.79 74.1433 210.79 74.65V80.5H209.11V70.5H210.79V71.75C211.143 71.2833 211.59 70.9133 212.13 70.64C212.67 70.36 213.257 70.22 213.89 70.22C214.637 70.22 215.317 70.4033 215.93 70.77C216.55 71.13 217.04 71.6167 217.4 72.23C217.767 72.8433 217.95 73.5267 217.95 74.28ZM227.795 70.5H229.475V80.5H227.795L227.725 78.81C227.411 79.39 226.978 79.86 226.425 80.22C225.878 80.58 225.225 80.76 224.465 80.76C223.731 80.76 223.045 80.6233 222.405 80.35C221.765 80.07 221.198 79.6867 220.705 79.2C220.218 78.7067 219.838 78.14 219.565 77.5C219.291 76.86 219.155 76.17 219.155 75.43C219.155 74.7167 219.288 74.0433 219.555 73.41C219.821 72.7767 220.191 72.2233 220.665 71.75C221.145 71.27 221.698 70.8967 222.325 70.63C222.951 70.3567 223.625 70.22 224.345 70.22C225.131 70.22 225.821 70.4067 226.415 70.78C227.008 71.1467 227.488 71.6233 227.855 72.21L227.795 70.5ZM224.435 79.13C225.095 79.13 225.665 78.97 226.145 78.65C226.631 78.3233 227.005 77.8833 227.265 77.33C227.531 76.7767 227.665 76.1667 227.665 75.5C227.665 74.82 227.531 74.2067 227.265 73.66C226.998 73.1067 226.621 72.67 226.135 72.35C225.655 72.0233 225.088 71.86 224.435 71.86C223.775 71.86 223.175 72.0233 222.635 72.35C222.095 72.6767 221.665 73.1167 221.345 73.67C221.031 74.2167 220.875 74.8267 220.875 75.5C220.875 76.1733 221.038 76.7867 221.365 77.34C221.691 77.8867 222.125 78.3233 222.665 78.65C223.205 78.97 223.795 79.13 224.435 79.13ZM231.591 80.5V65.5H233.271V80.5H231.591ZM238.723 80.69C238.183 80.67 237.656 80.57 237.143 80.39C236.636 80.2033 236.189 79.9533 235.803 79.64C235.423 79.32 235.146 78.9533 234.973 78.54L236.413 77.92C236.513 78.1467 236.693 78.36 236.953 78.56C237.213 78.76 237.513 78.92 237.853 79.04C238.193 79.16 238.536 79.22 238.883 79.22C239.249 79.22 239.593 79.1633 239.913 79.05C240.233 78.9367 240.493 78.77 240.693 78.55C240.899 78.3233 241.003 78.0533 241.003 77.74C241.003 77.4067 240.889 77.1467 240.663 76.96C240.443 76.7667 240.163 76.6167 239.823 76.51C239.489 76.3967 239.149 76.29 238.803 76.19C238.116 76.0167 237.503 75.81 236.963 75.57C236.423 75.3233 235.996 75.0133 235.683 74.64C235.376 74.26 235.223 73.7767 235.223 73.19C235.223 72.57 235.393 72.0333 235.733 71.58C236.079 71.1267 236.533 70.7767 237.093 70.53C237.653 70.2833 238.253 70.16 238.893 70.16C239.699 70.16 240.436 70.3333 241.103 70.68C241.769 71.0267 242.266 71.4967 242.593 72.09L241.243 72.88C241.129 72.64 240.956 72.43 240.723 72.25C240.489 72.0633 240.223 71.9167 239.923 71.81C239.623 71.7033 239.316 71.6467 239.003 71.64C238.616 71.6267 238.253 71.6767 237.913 71.79C237.579 71.9033 237.309 72.0767 237.103 72.31C236.903 72.5367 236.803 72.82 236.803 73.16C236.803 73.4933 236.909 73.7467 237.123 73.92C237.343 74.0933 237.626 74.2333 237.973 74.34C238.326 74.44 238.709 74.5567 239.123 74.69C239.729 74.8833 240.296 75.1067 240.823 75.36C241.349 75.6133 241.773 75.93 242.093 76.31C242.419 76.69 242.579 77.16 242.573 77.72C242.573 78.3333 242.389 78.87 242.023 79.33C241.656 79.7833 241.179 80.13 240.593 80.37C240.013 80.61 239.389 80.7167 238.723 80.69Z" fill="#6B7280"/>
</g>
<defs>
<filter id="filter0_d_17_287" x="2" y="12" width="290" height="128" filterUnits="userSpaceOnUse" color-interpolation-filters="sRGB">
<feFlood flood-opacity="0" result="BackgroundImageFix"/>
<feColorMatrix in="SourceAlpha" type="matrix" values="0 0 0 0 0 0 0 0 0 0 0 0 0 0 0 0 0 0 127 0" result="hardAlpha"/>
<feOffset dy="18"/>
<feGaussianBlur stdDeviation="12"/>
<feComposite in2="hardAlpha" operator="out"/>
<feColorMatrix type="matrix" values="0 0 0 0 0 0 0 0 0 0 0 0 0 0 0 0 0 0 0.15 0"/>
<feBlend mode="normal" in2="BackgroundImageFix" result="effect1_dropShadow_17_287"/>
<feBlend mode="normal" in="SourceGraphic" in2="effect1_dropShadow_17_287" result="shape"/>
</filter>
<filter id="filter1_d_17_287" x="0" y="0" width="164" height="164" filterUnits="userSpaceOnUse" color-interpolation-filters="sRGB">
<feFlood flood-opacity="0" result="BackgroundImageFix"/>
<feColorMatrix in="SourceAlpha" type="matrix" values="0 0 0 0 0 0 0 0 0 0 0 0 0 0 0 0 0 0 127 0" result="hardAlpha"/>
<feOffset dy="24"/>
<feGaussianBlur stdDeviation="25"/>
<feComposite in2="hardAlpha" operator="out"/>
<feColorMatrix type="matrix" values="0 0 0 0 0.0509804 0 0 0 0 0.0470588 0 0 0 0 0.219608 0 0 0 0.15 0"/>
<feBlend mode="normal" in2="BackgroundImageFix" result="effect1_dropShadow_17_287"/>
<feBlend mode="normal" in="SourceGraphic" in2="effect1_dropShadow_17_287" result="shape"/>
</filter>
</defs>
</svg>
