<svg width="1280" height="424" viewBox="0 0 1280 424" fill="none" xmlns="http://www.w3.org/2000/svg">
<path d="M1152.36 0.158539H127.213C57.1707 0.158539 0.390625 56.9638 0.390625 127.037V296.207C0.390625 366.28 57.1707 423.085 127.213 423.085H1152.36C1222.4 423.085 1279.18 366.28 1279.18 296.207V127.037C1279.18 56.9638 1222.4 0.158539 1152.36 0.158539Z" fill="#F4F3F8"/>
<path d="M338.582 42.4512H254.034C183.993 42.4512 127.212 99.2565 127.212 169.329V253.915C127.212 323.987 183.993 380.793 254.034 380.793H338.582C408.624 380.793 465.404 323.987 465.404 253.915V169.329C465.404 99.2565 408.624 42.4512 338.582 42.4512Z" fill="#005ED3"/>
<path d="M225.852 204.573H268.126C269.995 204.573 271.787 203.831 273.108 202.508C274.43 201.187 275.172 199.394 275.172 197.524V155.232C275.172 153.362 274.43 151.57 273.108 150.247C271.787 148.926 269.995 148.183 268.126 148.183H225.852C223.984 148.183 222.191 148.926 220.87 150.247C219.549 151.57 218.807 153.362 218.807 155.232V197.524C218.807 199.394 219.549 201.187 220.87 202.508C222.191 203.831 223.984 204.573 225.852 204.573ZM232.898 162.281H261.081V190.476H232.898V162.281ZM366.766 169.329H296.309C294.44 169.329 292.648 170.072 291.327 171.394C290.006 172.716 289.263 174.509 289.263 176.378C289.263 178.248 290.006 180.04 291.327 181.362C292.648 182.684 294.44 183.427 296.309 183.427H366.766C368.634 183.427 370.426 182.684 371.748 181.362C373.069 180.04 373.811 178.248 373.811 176.378C373.811 174.509 373.069 172.716 371.748 171.394C370.426 170.072 368.634 169.329 366.766 169.329ZM366.766 239.817H296.309C294.44 239.817 292.648 240.56 291.327 241.882C290.006 243.204 289.263 244.996 289.263 246.866C289.263 248.735 290.006 250.528 291.327 251.85C292.648 253.172 294.44 253.915 296.309 253.915H366.766C368.634 253.915 370.426 253.172 371.748 251.85C373.069 250.528 373.811 248.735 373.811 246.866C373.811 244.996 373.069 243.204 371.748 241.882C370.426 240.56 368.634 239.817 366.766 239.817ZM239.535 268.012H239.619C241.467 268.006 243.238 267.275 244.552 265.975L273.058 237.78C273.789 237.15 274.384 236.377 274.804 235.508C275.225 234.639 275.462 233.693 275.502 232.728C275.542 231.764 275.383 230.801 275.036 229.9C274.689 229 274.16 228.18 273.483 227.492C272.806 226.804 271.995 226.263 271.1 225.901C270.206 225.54 269.246 225.366 268.281 225.391C267.317 225.416 266.367 225.638 265.492 226.045C264.617 226.452 263.835 227.035 263.194 227.757L239.739 250.94L230.918 241.777C230.275 241.111 229.506 240.579 228.657 240.21C227.808 239.842 226.895 239.644 225.97 239.629C224.101 239.598 222.295 240.311 220.952 241.611C219.608 242.911 218.836 244.692 218.805 246.562C218.774 248.432 219.487 250.237 220.786 251.582L234.554 265.898C235.204 266.561 235.978 267.089 236.833 267.453C237.688 267.815 238.606 268.006 239.535 268.012Z" fill="#F4F3F8"/>
<path d="M556.293 208.979V194.308C560.045 191.189 564.352 187.568 569.213 183.444C574.075 179.268 579.016 174.854 584.036 170.202C589.056 165.496 593.68 160.818 597.907 156.166C602.134 151.461 605.543 147.02 608.132 142.843C610.774 138.614 612.095 134.94 612.095 131.821C612.095 128.279 611.223 125.054 609.479 122.146C607.788 119.186 605.49 116.833 602.584 115.089C599.677 113.291 596.454 112.393 592.913 112.393C589.373 112.393 586.123 113.291 583.164 115.089C580.258 116.833 577.906 119.186 576.109 122.146C574.366 125.054 573.494 128.279 573.494 131.821H557.007C557.007 125.107 558.645 119.054 561.921 113.662C565.25 108.216 569.61 103.908 575 100.736C580.443 97.511 586.414 95.8986 592.913 95.8986C599.466 95.8986 605.437 97.511 610.827 100.736C616.217 103.961 620.523 108.296 623.747 113.741C626.97 119.133 628.582 125.16 628.582 131.821C628.582 135.522 627.816 139.328 626.283 143.24C624.751 147.152 622.611 151.143 619.863 155.214C617.168 159.285 614.024 163.408 610.431 167.585C606.837 171.761 602.98 175.937 598.858 180.114C594.736 184.29 590.535 188.414 586.255 192.485H629.533V208.979H556.293ZM726.161 208.979H704.76L671.707 163.223L664.969 171.391V208.979H648.482V97.9604H664.969V145.778L704.918 97.9604H726.478L682.566 150.377L726.161 208.979ZM766.797 201.049V169.646H735.408V153.152H766.797V121.75H783.284V153.152H814.672V169.646H783.284V201.049H766.797Z" fill="#111827"/>
<path d="M556.293 330.57V256.558H580.707C584.686 256.558 588.263 257.527 591.434 259.466C594.641 261.404 597.178 264.029 599.043 267.343C600.945 270.62 601.897 274.285 601.897 278.339C601.897 282.462 600.929 286.18 598.99 289.493C597.088 292.771 594.514 295.379 591.275 297.317C588.068 299.221 584.548 300.172 580.707 300.172H565.171V330.57H556.293ZM565.171 291.291H579.914C582.308 291.291 584.496 290.709 586.467 289.546C588.475 288.348 590.06 286.744 591.222 284.735C592.422 282.691 593.019 280.4 593.019 277.863C593.019 275.29 592.422 272.999 591.222 270.99C590.06 268.946 588.475 267.343 586.467 266.18C584.496 264.981 582.308 264.382 579.914 264.382H565.171V291.291ZM610.996 330.57V277.704H619.873V284.312C621.739 281.845 624.101 279.889 626.954 278.444C629.808 276.964 632.904 276.224 636.255 276.224C638.294 276.224 640.271 276.488 642.173 277.017L638.58 285.898C637.132 285.44 635.726 285.211 634.352 285.211C631.71 285.211 629.279 285.863 627.06 287.167C624.872 288.436 623.129 290.163 621.829 292.348C620.524 294.533 619.873 296.965 619.873 299.644V330.57H610.996ZM669.234 331.945C664.372 331.945 659.933 330.693 655.917 328.191C651.933 325.689 648.747 322.34 646.353 318.147C643.991 313.917 642.812 309.248 642.812 304.137C642.812 300.261 643.499 296.648 644.873 293.3C646.247 289.916 648.128 286.956 650.527 284.418C652.958 281.845 655.775 279.836 658.982 278.392C662.184 276.947 665.603 276.224 669.234 276.224C674.095 276.224 678.513 277.475 682.497 279.977C686.513 282.48 689.7 285.846 692.062 290.075C694.455 294.304 695.655 298.992 695.655 304.137C695.655 307.979 694.968 311.574 693.594 314.922C692.22 318.27 690.318 321.23 687.887 323.803C685.488 326.341 682.687 328.332 679.485 329.777C676.315 331.222 672.896 331.945 669.234 331.945ZM669.234 323.063C672.542 323.063 675.522 322.2 678.164 320.473C680.838 318.711 682.936 316.402 684.452 313.547C686.001 310.657 686.777 307.521 686.777 304.137C686.777 300.683 685.985 297.511 684.399 294.621C682.846 291.731 680.753 289.423 678.111 287.696C675.469 285.969 672.51 285.105 669.234 285.105C665.92 285.105 662.945 285.987 660.303 287.749C657.661 289.476 655.563 291.784 654.015 294.674C652.461 297.564 651.69 300.718 651.69 304.137C651.69 307.662 652.483 310.869 654.068 313.759C655.653 316.614 657.783 318.887 660.462 320.578C663.136 322.235 666.063 323.063 669.234 323.063ZM717.114 264.646V277.704H732.597V286.586H717.114V330.57H708.237V286.586H701.42V277.704H708.237V264.646C708.237 261.933 708.887 259.483 710.192 257.298C711.529 255.078 713.31 253.316 715.529 252.011C717.785 250.672 720.248 250.003 722.927 250.003C724.898 250.003 726.821 250.408 728.687 251.218C730.552 251.994 732.211 253.157 733.654 254.708L727.313 260.999C726.821 260.329 726.166 259.818 725.358 259.466C724.581 259.078 723.772 258.884 722.927 258.884C721.342 258.884 719.968 259.448 718.805 260.576C717.68 261.703 717.114 263.06 717.114 264.646ZM763.151 331.945C758.289 331.945 753.85 330.693 749.834 328.191C745.855 325.689 742.664 322.34 740.27 318.147C737.908 313.917 736.729 309.248 736.729 304.137C736.729 300.261 737.416 296.648 738.79 293.3C740.164 289.916 742.051 286.956 744.444 284.418C746.875 281.845 749.692 279.836 752.899 278.392C756.107 276.947 759.52 276.224 763.151 276.224C767.13 276.224 770.776 277.034 774.089 278.656C777.434 280.242 780.287 282.462 782.649 285.317C785.043 288.172 786.824 291.485 787.987 295.256C789.186 299.027 789.625 303.062 789.308 307.362H746.188C746.611 310.358 747.599 313.036 749.147 315.398C750.696 317.724 752.672 319.574 755.066 320.949C757.496 322.323 760.191 323.028 763.151 323.063C766.321 323.063 769.19 322.253 771.764 320.631C774.337 318.975 776.414 316.719 777.999 313.864L787.035 315.979C784.922 320.667 781.735 324.508 777.471 327.504C773.207 330.464 768.435 331.945 763.151 331.945ZM745.924 300.384H780.377C780.097 297.423 779.146 294.727 777.524 292.295C775.901 289.828 773.841 287.854 771.341 286.374C768.842 284.894 766.11 284.154 763.151 284.154C760.191 284.154 757.481 284.877 755.013 286.321C752.545 287.766 750.505 289.722 748.883 292.189C747.298 294.621 746.31 297.353 745.924 300.384ZM814.535 331.575C811.681 331.469 808.902 330.94 806.186 329.989C803.512 329.002 801.15 327.68 799.105 326.024C797.097 324.332 795.638 322.393 794.719 320.208L802.328 316.931C802.856 318.129 803.808 319.257 805.181 320.314C806.555 321.371 808.141 322.217 809.937 322.852C811.734 323.486 813.552 323.803 815.38 323.803C817.319 323.803 819.132 323.504 820.823 322.905C822.514 322.306 823.888 321.424 824.945 320.261C826.038 319.063 826.583 317.635 826.583 315.979C826.583 314.217 825.986 312.843 824.786 311.856C823.623 310.834 822.144 310.041 820.347 309.477C818.588 308.878 816.791 308.314 814.957 307.785C811.332 306.869 808.088 305.776 805.234 304.507C802.381 303.203 800.13 301.564 798.47 299.591C796.854 297.582 796.04 295.027 796.04 291.925C796.04 288.648 796.938 285.81 798.735 283.414C800.568 281.017 802.962 279.167 805.921 277.863C808.88 276.559 812.051 275.907 815.433 275.907C819.697 275.907 823.592 276.823 827.111 278.656C830.636 280.489 833.262 282.973 834.985 286.11L827.851 290.286C827.254 289.018 826.34 287.907 825.103 286.956C823.872 285.969 822.461 285.194 820.876 284.63C819.29 284.066 817.673 283.766 816.014 283.731C813.974 283.661 812.051 283.925 810.254 284.524C808.495 285.123 807.068 286.04 805.974 287.273C804.917 288.471 804.389 289.969 804.389 291.767C804.389 293.529 804.954 294.868 806.08 295.784C807.242 296.701 808.743 297.441 810.571 298.005C812.442 298.533 814.466 299.15 816.648 299.855C819.856 300.877 822.852 302.058 825.632 303.397C828.416 304.736 830.652 306.41 832.343 308.419C834.07 310.428 834.916 312.913 834.879 315.873C834.879 319.116 833.912 321.953 831.973 324.385C830.039 326.781 827.518 328.614 824.416 329.883C821.351 331.152 818.059 331.716 814.535 331.575ZM860.053 331.575C857.2 331.469 854.415 330.94 851.704 329.989C849.025 329.002 846.663 327.68 844.623 326.024C842.615 324.332 841.151 322.393 840.237 320.208L847.846 316.931C848.375 318.129 849.326 319.257 850.7 320.314C852.074 321.371 853.659 322.217 855.456 322.852C857.252 323.486 859.065 323.803 860.899 323.803C862.833 323.803 864.65 323.504 866.341 322.905C868.032 322.306 869.406 321.424 870.463 320.261C871.552 319.063 872.101 317.635 872.101 315.979C872.101 314.217 871.499 312.843 870.304 311.856C869.142 310.834 867.662 310.041 865.866 309.477C864.101 308.878 862.304 308.314 860.476 307.785C856.846 306.869 853.606 305.776 850.753 304.507C847.899 303.203 845.643 301.564 843.989 299.591C842.367 297.582 841.558 295.027 841.558 291.925C841.558 288.648 842.457 285.81 844.253 283.414C846.082 281.017 848.481 279.167 851.44 277.863C854.399 276.559 857.57 275.907 860.951 275.907C865.211 275.907 869.105 276.823 872.63 278.656C876.149 280.489 878.775 282.973 880.503 286.11L873.369 290.286C872.767 289.018 871.853 287.907 870.622 286.956C869.385 285.969 867.979 285.194 866.394 284.63C864.809 284.066 863.187 283.766 861.533 283.731C859.488 283.661 857.569 283.925 855.773 284.524C854.008 285.123 852.581 286.04 851.493 287.273C850.436 288.471 849.907 289.969 849.907 291.767C849.907 293.529 850.467 294.868 851.598 295.784C852.761 296.701 854.256 297.441 856.09 298.005C857.955 298.533 859.979 299.15 862.167 299.855C865.369 300.877 868.365 302.058 871.15 303.397C873.93 304.736 876.17 306.41 877.861 308.419C879.584 310.428 880.429 312.913 880.397 315.873C880.397 319.116 879.425 321.953 877.491 324.385C875.552 326.781 873.031 328.614 869.935 329.883C866.87 331.152 863.572 331.716 860.053 331.575ZM888.725 277.704H897.603V330.57H888.725V277.704ZM893.27 269.087C891.859 269.087 890.681 268.629 889.729 267.713C888.778 266.796 888.303 265.651 888.303 264.276C888.303 262.902 888.778 261.756 889.729 260.84C890.681 259.924 891.843 259.466 893.217 259.466C894.591 259.466 895.753 259.924 896.705 260.84C897.656 261.756 898.131 262.902 898.131 264.276C898.131 265.651 897.656 266.796 896.705 267.713C895.79 268.629 894.644 269.087 893.27 269.087ZM932.822 331.945C927.961 331.945 923.522 330.693 919.506 328.191C915.527 325.689 912.341 322.34 909.942 318.147C907.585 313.917 906.401 309.248 906.401 304.137C906.401 300.261 907.088 296.648 908.462 293.3C909.836 289.916 911.722 286.956 914.116 284.418C916.547 281.845 919.369 279.836 922.571 278.392C925.779 276.947 929.197 276.224 932.822 276.224C937.684 276.224 942.107 277.475 946.086 279.977C950.102 282.48 953.294 285.846 955.65 290.075C958.049 294.304 959.244 298.992 959.244 304.137C959.244 307.979 958.557 311.574 957.183 314.922C955.809 318.27 953.907 321.23 951.476 323.803C949.082 326.341 946.281 328.332 943.074 329.777C939.903 331.222 936.49 331.945 932.822 331.945ZM932.822 323.063C936.136 323.063 939.111 322.2 941.753 320.473C944.432 318.711 946.53 316.402 948.041 313.547C949.595 310.657 950.366 307.521 950.366 304.137C950.366 300.683 949.573 297.511 947.988 294.621C946.44 291.731 944.342 289.423 941.7 287.696C939.058 285.969 936.099 285.105 932.822 285.105C929.515 285.105 926.534 285.987 923.892 287.749C921.25 289.476 919.157 291.784 917.604 294.674C916.056 297.564 915.279 300.718 915.279 304.137C915.279 307.662 916.071 310.869 917.657 313.759C919.242 316.614 921.377 318.887 924.051 320.578C926.73 322.235 929.652 323.063 932.822 323.063ZM1014.7 297.688V330.57H1005.82V299.644C1005.82 296.965 1005.17 294.533 1003.87 292.348C1002.56 290.163 1000.82 288.436 998.638 287.167C996.455 285.863 994.025 285.211 991.345 285.211C988.703 285.211 986.273 285.863 984.053 287.167C981.871 288.436 980.127 290.163 978.822 292.348C977.517 294.533 976.867 296.965 976.867 299.644V330.57H967.989V277.704H976.867V284.312C978.732 281.845 981.094 279.889 983.948 278.444C986.801 276.964 989.903 276.224 993.248 276.224C997.195 276.224 1000.79 277.193 1004.03 279.132C1007.3 281.035 1009.89 283.608 1011.8 286.85C1013.73 290.092 1014.7 293.705 1014.7 297.688ZM1066.73 277.704H1075.6V330.57H1066.73L1066.36 321.636C1064.7 324.702 1062.41 327.187 1059.49 329.09C1056.6 330.993 1053.14 331.945 1049.13 331.945C1045.25 331.945 1041.63 331.222 1038.24 329.777C1034.86 328.297 1031.87 326.271 1029.26 323.698C1026.69 321.09 1024.68 318.094 1023.24 314.71C1021.79 311.327 1021.07 307.679 1021.07 303.767C1021.07 299.996 1021.77 296.436 1023.18 293.088C1024.59 289.74 1026.54 286.815 1029.05 284.312C1031.58 281.775 1034.51 279.801 1037.82 278.392C1041.13 276.947 1044.69 276.224 1048.49 276.224C1052.65 276.224 1056.29 277.211 1059.43 279.184C1062.57 281.123 1065.1 283.643 1067.04 286.744L1066.73 277.704ZM1048.97 323.327C1052.46 323.327 1055.47 322.482 1058.01 320.79C1060.57 319.063 1062.55 316.737 1063.92 313.812C1065.33 310.887 1066.04 307.662 1066.04 304.137C1066.04 300.542 1065.33 297.3 1063.92 294.41C1062.51 291.485 1060.52 289.176 1057.95 287.484C1055.42 285.757 1052.42 284.894 1048.97 284.894C1045.48 284.894 1042.31 285.757 1039.46 287.484C1036.61 289.212 1034.33 291.538 1032.64 294.463C1030.98 297.353 1030.16 300.578 1030.16 304.137C1030.16 307.697 1031.02 310.939 1032.75 313.864C1034.47 316.755 1036.76 319.063 1039.62 320.79C1042.47 322.482 1045.59 323.327 1048.97 323.327ZM1086.78 330.57V251.271H1095.66V330.57H1086.78ZM1124.47 331.575C1121.62 331.469 1118.83 330.94 1116.12 329.989C1113.44 329.002 1111.08 327.68 1109.04 326.024C1107.03 324.332 1105.57 322.393 1104.66 320.208L1112.26 316.931C1112.79 318.129 1113.74 319.257 1115.12 320.314C1116.49 321.371 1118.08 322.217 1119.87 322.852C1121.67 323.486 1123.48 323.803 1125.32 323.803C1127.25 323.803 1129.07 323.504 1130.76 322.905C1132.45 322.306 1133.82 321.424 1134.88 320.261C1135.97 319.063 1136.52 317.635 1136.52 315.979C1136.52 314.217 1135.92 312.843 1134.72 311.856C1133.56 310.834 1132.08 310.041 1130.28 309.477C1128.52 308.878 1126.72 308.314 1124.89 307.785C1121.26 306.869 1118.02 305.776 1115.17 304.507C1112.32 303.203 1110.06 301.564 1108.41 299.591C1106.79 297.582 1105.98 295.027 1105.98 291.925C1105.98 288.648 1106.87 285.81 1108.67 283.414C1110.5 281.017 1112.9 279.167 1115.86 277.863C1118.82 276.559 1121.99 275.907 1125.37 275.907C1129.63 275.907 1133.52 276.823 1137.05 278.656C1140.57 280.489 1143.19 282.973 1144.92 286.11L1137.79 290.286C1137.19 289.018 1136.27 287.907 1135.04 286.956C1133.8 285.969 1132.4 285.194 1130.81 284.63C1129.23 284.066 1127.61 283.766 1125.95 283.731C1123.91 283.661 1121.99 283.925 1120.19 284.524C1118.43 285.123 1117 286.04 1115.91 287.273C1114.85 288.471 1114.33 289.969 1114.33 291.767C1114.33 293.529 1114.89 294.868 1116.02 295.784C1117.18 296.701 1118.67 297.441 1120.51 298.005C1122.37 298.533 1124.4 299.15 1126.59 299.855C1129.79 300.877 1132.78 302.058 1135.57 303.397C1138.35 304.736 1140.59 306.41 1142.28 308.419C1144 310.428 1144.85 312.913 1144.82 315.873C1144.82 319.116 1143.84 321.953 1141.91 324.385C1139.97 326.781 1137.45 328.614 1134.35 329.883C1131.29 331.152 1127.99 331.716 1124.47 331.575Z" fill="#6B7280"/>
</svg>
