<svg width="1077" height="415" viewBox="0 0 1077 415" fill="none" xmlns="http://www.w3.org/2000/svg">
<path d="M1033.57 0.281006H43.4344C19.659 0.281006 0.385254 19.5513 0.385254 43.3223V371.512C0.385254 395.284 19.659 414.554 43.4344 414.554H1033.57C1057.34 414.554 1076.61 395.284 1076.61 371.512V43.3223C1076.61 19.5513 1057.34 0.281006 1033.57 0.281006Z" fill="#F4F3F8"/>
<path d="M212.94 124.025L231.667 181.647H292.266L243.24 217.26L261.966 274.884L212.94 239.271L163.914 274.884L182.641 217.26L133.615 181.647H194.214L212.94 124.025Z" fill="#005ED3"/>
<path d="M437.254 204.727V175.836H388.904V158.969L433.218 91.7438H454.043V159.05H464.375V175.836H454.043V204.727H437.254ZM408.438 158.969L437.254 159.05L437.092 114.905L408.438 158.969ZM489.295 206.826C486.82 206.826 484.721 205.965 482.999 204.243C481.331 202.521 480.497 200.423 480.497 197.948C480.497 195.527 481.331 193.456 482.999 191.734C484.721 190.013 486.82 189.152 489.295 189.152C491.77 189.152 493.869 190.013 495.591 191.734C497.313 193.456 498.174 195.527 498.174 197.948C498.174 200.423 497.313 202.521 495.591 204.243C493.869 205.965 491.77 206.826 489.295 206.826ZM551.361 206.826C544.527 206.826 538.312 205.265 532.715 202.145C527.119 199.024 522.653 194.855 519.316 189.636C516.034 184.363 514.393 178.499 514.393 172.043C514.393 166.609 515.738 161.551 518.429 156.871C521.119 152.19 524.698 148.316 529.164 145.25C525.559 142.559 522.626 139.17 520.366 135.081C518.106 130.992 516.976 126.58 516.976 121.846C516.976 115.928 518.509 110.548 521.577 105.705C524.698 100.809 528.868 96.9088 534.088 94.0035C539.307 91.0982 545.065 89.6456 551.361 89.6456C557.657 89.6456 563.415 91.0982 568.635 94.0035C573.854 96.9088 577.998 100.809 581.065 105.705C584.186 110.548 585.747 115.928 585.747 121.846C585.747 126.58 584.617 130.992 582.357 135.081C580.15 139.17 577.218 142.559 573.558 145.25C578.132 148.316 581.738 152.19 584.374 156.871C587.065 161.551 588.41 166.609 588.41 172.043C588.41 178.445 586.742 184.283 583.406 189.555C580.07 194.828 575.603 199.024 570.007 202.145C564.41 205.265 558.195 206.826 551.361 206.826ZM551.361 190.039C554.913 190.039 558.141 189.232 561.047 187.618C563.953 186.004 566.267 183.852 567.989 181.162C569.765 178.418 570.653 175.378 570.653 172.043C570.653 168.761 569.765 165.775 567.989 163.085C566.267 160.341 563.953 158.162 561.047 156.548C558.141 154.934 554.913 154.127 551.361 154.127C547.863 154.127 544.635 154.934 541.675 156.548C538.769 158.162 536.428 160.341 534.653 163.085C532.931 165.775 532.07 168.761 532.07 172.043C532.07 175.378 532.931 178.418 534.653 181.162C536.428 183.852 538.769 186.004 541.675 187.618C544.635 189.232 547.863 190.039 551.361 190.039ZM551.361 137.341C554.428 137.341 557.2 136.641 559.675 135.242C562.204 133.844 564.222 131.987 565.729 129.674C567.236 127.307 567.989 124.697 567.989 121.846C567.989 118.994 567.236 116.412 565.729 114.098C564.222 111.785 562.204 109.929 559.675 108.53C557.2 107.131 554.428 106.432 551.361 106.432C548.294 106.432 545.496 107.131 542.967 108.53C540.491 109.929 538.5 111.785 536.993 114.098C535.487 116.412 534.733 118.994 534.733 121.846C534.733 124.697 535.487 127.307 536.993 129.674C538.5 131.987 540.491 133.844 542.967 135.242C545.496 136.641 548.294 137.341 551.361 137.341Z" fill="#111827"/>
<path d="M415.433 329.87C411.38 329.87 407.469 329.242 403.702 327.987C399.936 326.696 396.635 324.866 393.801 322.499C391.003 320.132 389.012 317.316 387.828 314.052L396.277 310.878C396.994 312.886 398.321 314.644 400.259 316.151C402.232 317.621 404.546 318.769 407.2 319.594C409.855 320.419 412.599 320.831 415.433 320.831C418.662 320.831 421.659 320.311 424.42 319.271C427.218 318.195 429.478 316.706 431.2 314.805C432.922 312.905 433.783 310.681 433.783 308.134C433.783 305.516 432.884 303.382 431.093 301.732C429.301 300.046 427.003 298.719 424.205 297.75C421.406 296.746 418.483 295.975 415.433 295.437C410.231 294.576 405.568 293.356 401.442 291.778C397.353 290.164 394.106 287.922 391.703 285.053C389.335 282.184 388.151 278.399 388.151 273.701C388.151 269.325 389.406 265.505 391.918 262.241C394.465 258.977 397.819 256.448 401.981 254.655C406.142 252.862 410.626 251.965 415.433 251.965C419.415 251.965 423.274 252.593 427.003 253.848C430.77 255.068 434.09 256.861 436.958 259.228C439.826 261.596 441.893 264.483 443.146 267.89L434.59 271.011C433.875 268.966 432.529 267.209 430.554 265.738C428.617 264.232 426.319 263.084 423.667 262.295C421.046 261.47 418.303 261.058 415.433 261.058C412.241 261.022 409.263 261.542 406.501 262.618C403.739 263.694 401.496 265.183 399.774 267.083C398.052 268.984 397.191 271.19 397.191 273.701C397.191 276.714 397.981 279.027 399.559 280.641C401.173 282.219 403.362 283.403 406.124 284.192C408.886 284.982 411.989 285.681 415.433 286.291C420.314 287.115 424.834 288.425 428.994 290.218C433.154 291.976 436.49 294.325 439.003 297.266C441.548 300.207 442.823 303.83 442.823 308.134C442.823 312.51 441.548 316.33 439.003 319.594C436.49 322.858 433.154 325.387 428.994 327.18C424.834 328.973 420.314 329.87 415.433 329.87ZM497.329 274.669H506.369V328.471H497.329L496.952 319.379C495.268 322.499 492.938 325.028 489.957 326.965C487.019 328.902 483.5 329.87 479.41 329.87C475.465 329.87 471.769 329.134 468.325 327.664C464.881 326.158 461.835 324.095 459.177 321.477C456.562 318.823 454.517 315.774 453.042 312.331C451.573 308.887 450.836 305.175 450.836 301.194C450.836 297.356 451.557 293.733 452.988 290.326C454.425 286.918 456.416 283.941 458.962 281.395C461.544 278.812 464.526 276.804 467.894 275.369C471.268 273.898 474.89 273.163 478.764 273.163C482.999 273.163 486.712 274.167 489.903 276.176C493.1 278.149 495.682 280.713 497.652 283.87L497.329 274.669ZM479.248 321.1C482.8 321.1 485.867 320.239 488.45 318.518C491.071 316.76 493.078 314.393 494.477 311.416C495.914 308.439 496.63 305.157 496.63 301.57C496.63 297.912 495.914 294.612 494.477 291.671C493.046 288.694 491.017 286.344 488.396 284.623C485.813 282.865 482.768 281.986 479.248 281.986C475.697 281.986 472.468 282.865 469.562 284.623C466.657 286.38 464.343 288.748 462.621 291.725C460.936 294.666 460.092 297.948 460.092 301.57C460.092 305.193 460.974 308.493 462.728 311.47C464.488 314.411 466.818 316.76 469.724 318.518C472.63 320.239 475.805 321.1 479.248 321.1ZM545.001 283.708H532.786L532.732 328.471H523.691L523.745 283.708H514.49V274.669H523.745L523.691 257.776H532.732L532.786 274.669H545.001V283.708ZM554.122 274.669H563.162V328.471H554.122V274.669ZM558.75 265.9C557.313 265.9 556.113 265.433 555.144 264.501C554.176 263.569 553.691 262.403 553.691 261.004C553.691 259.605 554.176 258.439 555.144 257.507C556.113 256.574 557.297 256.108 558.696 256.108C560.095 256.108 561.279 256.574 562.247 257.507C563.216 258.439 563.7 259.605 563.7 261.004C563.7 262.403 563.216 263.569 562.247 264.501C561.316 265.433 560.149 265.9 558.75 265.9ZM591.978 329.493C589.072 329.386 586.236 328.848 583.476 327.879C580.748 326.875 578.342 325.53 576.265 323.844C574.22 322.122 572.73 320.15 571.799 317.926L579.548 314.59C580.086 315.81 581.054 316.958 582.453 318.034C583.853 319.11 585.467 319.97 587.296 320.616C589.126 321.262 590.972 321.584 592.839 321.584C594.809 321.584 596.66 321.279 598.382 320.67C600.104 320.06 601.503 319.163 602.579 317.98C603.688 316.76 604.247 315.307 604.247 313.622C604.247 311.829 603.634 310.43 602.418 309.425C601.234 308.385 599.727 307.578 597.897 307.004C596.1 306.395 594.271 305.821 592.409 305.283C588.712 304.35 585.413 303.238 582.507 301.947C579.601 300.62 577.304 298.952 575.619 296.943C573.967 294.899 573.144 292.299 573.144 289.142C573.144 285.806 574.059 282.919 575.888 280.48C577.75 278.041 580.193 276.158 583.207 274.831C586.22 273.504 589.449 272.84 592.893 272.84C597.23 272.84 601.196 273.773 604.785 275.638C608.369 277.503 611.044 280.032 612.803 283.224L605.539 287.474C604.925 286.183 603.994 285.053 602.74 284.085C601.481 283.08 600.05 282.292 598.435 281.717C596.821 281.143 595.169 280.839 593.485 280.803C591.402 280.731 589.449 281 587.619 281.61C585.822 282.219 584.369 283.152 583.261 284.408C582.184 285.627 581.646 287.151 581.646 288.981C581.646 290.774 582.217 292.137 583.368 293.07C584.552 294.002 586.075 294.755 587.942 295.329C589.842 295.867 591.903 296.495 594.131 297.212C597.392 298.252 600.443 299.454 603.278 300.817C606.109 302.18 608.391 303.884 610.113 305.928C611.867 307.973 612.728 310.501 612.696 313.514C612.696 316.814 611.705 319.701 609.736 322.176C607.761 324.615 605.194 326.48 602.041 327.772C598.92 329.063 595.562 329.637 591.978 329.493ZM634.129 261.38V274.669H649.895V283.708H634.129V328.471H625.088V283.708H618.147V274.669H625.088V261.38C625.088 258.619 625.75 256.126 627.079 253.902C628.441 251.642 630.254 249.849 632.514 248.522C634.807 247.159 637.32 246.477 640.048 246.477C642.055 246.477 644.008 246.89 645.913 247.715C647.813 248.504 649.497 249.688 650.972 251.266L644.514 257.668C644.008 256.986 643.347 256.467 642.523 256.108C641.732 255.713 640.909 255.516 640.048 255.516C638.434 255.516 637.034 256.09 635.851 257.238C634.699 258.385 634.129 259.766 634.129 261.38ZM700.597 274.669H709.637V328.471H700.597L700.22 319.379C698.53 322.499 696.2 325.028 693.224 326.965C690.281 328.902 686.767 329.87 682.677 329.87C678.728 329.87 675.036 329.134 671.592 327.664C668.148 326.158 665.097 324.095 662.444 321.477C659.824 318.823 657.779 315.774 656.31 312.331C654.835 308.887 654.103 305.175 654.103 301.194C654.103 297.356 654.819 293.733 656.256 290.326C657.687 286.918 659.678 283.941 662.229 281.395C664.812 278.812 667.788 276.804 671.162 275.369C674.53 273.898 678.157 273.163 682.032 273.163C686.261 273.163 689.974 274.167 693.171 276.176C696.362 278.149 698.945 280.713 700.919 283.87L700.597 274.669ZM682.516 321.1C686.067 321.1 689.135 320.239 691.718 318.518C694.333 316.76 696.345 314.393 697.745 311.416C699.176 308.439 699.897 305.157 699.897 301.57C699.897 297.912 699.176 294.612 697.745 291.671C696.308 288.694 694.279 286.344 691.664 284.623C689.081 282.865 686.03 281.986 682.516 281.986C678.964 281.986 675.736 282.865 672.83 284.623C669.924 286.38 667.61 288.748 665.888 291.725C664.199 294.666 663.359 297.948 663.359 301.57C663.359 305.193 664.236 308.493 665.996 311.47C667.75 314.411 670.085 316.76 672.991 318.518C675.897 320.239 679.072 321.1 682.516 321.1ZM756.415 314.267L764.487 318.625C762.049 322.033 758.944 324.759 755.178 326.803C751.448 328.848 747.396 329.87 743.016 329.87C738.065 329.87 733.545 328.596 729.456 326.05C725.404 323.504 722.159 320.096 719.716 315.828C717.316 311.524 716.11 306.771 716.11 301.57C716.11 297.625 716.81 293.948 718.209 290.541C719.608 287.098 721.529 284.085 723.967 281.502C726.442 278.884 729.316 276.839 732.577 275.369C735.843 273.898 739.325 273.163 743.016 273.163C747.396 273.163 751.448 274.185 755.178 276.23C758.944 278.274 762.049 281.018 764.487 284.461L756.415 288.819C754.693 286.703 752.648 285.071 750.281 283.923C747.913 282.776 745.491 282.202 743.016 282.202C739.68 282.202 736.65 283.099 733.922 284.892C731.231 286.649 729.101 288.998 727.519 291.94C725.942 294.881 725.151 298.091 725.151 301.57C725.151 305.05 725.942 308.259 727.519 311.201C729.133 314.106 731.285 316.437 733.976 318.195C736.704 319.953 739.718 320.831 743.016 320.831C745.674 320.831 748.166 320.222 750.496 319.002C752.831 317.782 754.801 316.204 756.415 314.267ZM802.08 283.708H789.864L789.811 328.471H780.77L780.824 283.708H771.569V274.669H780.824L780.77 257.776H789.811L789.864 274.669H802.08V283.708ZM811.201 274.669H820.241V328.471H811.201V274.669ZM815.828 265.9C814.392 265.9 813.192 265.433 812.223 264.501C811.255 263.569 810.77 262.403 810.77 261.004C810.77 259.605 811.255 258.439 812.223 257.507C813.192 256.574 814.376 256.108 815.775 256.108C817.174 256.108 818.358 256.574 819.326 257.507C820.295 258.439 820.779 259.605 820.779 261.004C820.779 262.403 820.295 263.569 819.326 264.501C818.39 265.433 817.228 265.9 815.828 265.9ZM856.106 329.87C851.156 329.87 846.636 328.596 842.546 326.05C838.494 323.504 835.244 320.096 832.806 315.828C830.401 311.524 829.201 306.771 829.201 301.57C829.201 297.625 829.9 293.948 831.299 290.541C832.698 287.098 834.619 284.085 837.057 281.502C839.532 278.884 842.401 276.839 845.667 275.369C848.933 273.898 852.41 273.163 856.106 273.163C861.057 273.163 865.561 274.436 869.613 276.983C873.703 279.529 876.948 282.955 879.353 287.259C881.791 291.563 883.012 296.334 883.012 301.57C883.012 305.48 882.313 309.139 880.913 312.546C879.514 315.953 877.577 318.966 875.102 321.584C872.664 324.167 869.812 326.194 866.546 327.664C863.317 329.134 859.836 329.87 856.106 329.87ZM856.106 320.831C859.48 320.831 862.51 319.953 865.201 318.195C867.929 316.402 870.06 314.052 871.604 311.147C873.181 308.206 873.972 305.014 873.972 301.57C873.972 298.055 873.165 294.827 871.55 291.886C869.974 288.945 867.837 286.596 865.147 284.838C862.456 283.08 859.443 282.202 856.106 282.202C852.732 282.202 849.703 283.099 847.012 284.892C844.322 286.649 842.185 288.998 840.609 291.94C839.032 294.881 838.241 298.091 838.241 301.57C838.241 305.157 839.048 308.421 840.662 311.362C842.277 314.267 844.445 316.581 847.174 318.303C849.902 319.988 852.878 320.831 856.106 320.831ZM939.487 295.006V328.471H930.447V296.997C930.447 294.271 929.78 291.796 928.456 289.572C927.127 287.349 925.351 285.591 923.129 284.3C920.901 282.973 918.425 282.309 915.703 282.309C913.012 282.309 910.537 282.973 908.277 284.3C906.049 285.591 904.273 287.349 902.949 289.572C901.62 291.796 900.958 294.271 900.958 296.997V328.471H891.918V274.669H900.958V281.395C902.858 278.884 905.263 276.893 908.169 275.423C911.075 273.916 914.228 273.163 917.64 273.163C921.654 273.163 925.313 274.149 928.617 276.122C931.954 278.059 934.59 280.677 936.528 283.977C938.497 287.277 939.487 290.954 939.487 295.006Z" fill="#6B7280"/>
</svg>
