<svg width="244" height="121" viewBox="0 0 244 121" fill="none" xmlns="http://www.w3.org/2000/svg">
<g filter="url(#filter0_d_17_293)">
<rect x="22" y="6" width="200" height="77" rx="8" fill="#F4F3F8" shape-rendering="crispEdges"/>
<path d="M61.5 29L64.98 39.7102H76.2414L67.1307 46.3295L70.6107 57.0398L61.5 50.4205L52.3893 57.0398L55.8693 46.3295L46.7586 39.7102H58.02L61.5 29Z" fill="#005ED3"/>
<path d="M103.185 44V38.63H94.2V35.495L102.435 23H106.305V35.51H108.225V38.63H106.305V44H103.185ZM97.83 35.495L103.185 35.51L103.155 27.305L97.83 35.495ZM112.856 44.39C112.396 44.39 112.006 44.23 111.686 43.91C111.376 43.59 111.221 43.2 111.221 42.74C111.221 42.29 111.376 41.905 111.686 41.585C112.006 41.265 112.396 41.105 112.856 41.105C113.316 41.105 113.706 41.265 114.026 41.585C114.346 41.905 114.506 42.29 114.506 42.74C114.506 43.2 114.346 43.59 114.026 43.91C113.706 44.23 113.316 44.39 112.856 44.39ZM124.39 44.39C123.12 44.39 121.965 44.1 120.925 43.52C119.885 42.94 119.055 42.165 118.435 41.195C117.825 40.215 117.52 39.125 117.52 37.925C117.52 36.915 117.77 35.975 118.27 35.105C118.77 34.235 119.435 33.515 120.265 32.945C119.595 32.445 119.05 31.815 118.63 31.055C118.21 30.295 118 29.475 118 28.595C118 27.495 118.285 26.495 118.855 25.595C119.435 24.685 120.21 23.96 121.18 23.42C122.15 22.88 123.22 22.61 124.39 22.61C125.56 22.61 126.63 22.88 127.6 23.42C128.57 23.96 129.34 24.685 129.91 25.595C130.49 26.495 130.78 27.495 130.78 28.595C130.78 29.475 130.57 30.295 130.15 31.055C129.74 31.815 129.195 32.445 128.515 32.945C129.365 33.515 130.035 34.235 130.525 35.105C131.025 35.975 131.275 36.915 131.275 37.925C131.275 39.115 130.965 40.2 130.345 41.18C129.725 42.16 128.895 42.94 127.855 43.52C126.815 44.1 125.66 44.39 124.39 44.39ZM124.39 41.27C125.05 41.27 125.65 41.12 126.19 40.82C126.73 40.52 127.16 40.12 127.48 39.62C127.81 39.11 127.975 38.545 127.975 37.925C127.975 37.315 127.81 36.76 127.48 36.26C127.16 35.75 126.73 35.345 126.19 35.045C125.65 34.745 125.05 34.595 124.39 34.595C123.74 34.595 123.14 34.745 122.59 35.045C122.05 35.345 121.615 35.75 121.285 36.26C120.965 36.76 120.805 37.315 120.805 37.925C120.805 38.545 120.965 39.11 121.285 39.62C121.615 40.12 122.05 40.52 122.59 40.82C123.14 41.12 123.74 41.27 124.39 41.27ZM124.39 31.475C124.96 31.475 125.475 31.345 125.935 31.085C126.405 30.825 126.78 30.48 127.06 30.05C127.34 29.61 127.48 29.125 127.48 28.595C127.48 28.065 127.34 27.585 127.06 27.155C126.78 26.725 126.405 26.38 125.935 26.12C125.475 25.86 124.96 25.73 124.39 25.73C123.82 25.73 123.3 25.86 122.83 26.12C122.37 26.38 122 26.725 121.72 27.155C121.44 27.585 121.3 28.065 121.3 28.595C121.3 29.125 121.44 29.61 121.72 30.05C122 30.48 122.37 30.825 122.83 31.085C123.3 31.345 123.82 31.475 124.39 31.475Z" fill="#111827"/>
<path d="M99.13 67.26C98.3767 67.26 97.65 67.1433 96.95 66.91C96.25 66.67 95.6367 66.33 95.11 65.89C94.59 65.45 94.22 64.9267 94 64.32L95.57 63.73C95.7033 64.1033 95.95 64.43 96.31 64.71C96.6767 64.9833 97.1067 65.1967 97.6 65.35C98.0933 65.5033 98.6033 65.58 99.13 65.58C99.73 65.58 100.287 65.4833 100.8 65.29C101.32 65.09 101.74 64.8133 102.06 64.46C102.38 64.1067 102.54 63.6933 102.54 63.22C102.54 62.7333 102.373 62.3367 102.04 62.03C101.707 61.7167 101.28 61.47 100.76 61.29C100.24 61.1033 99.6967 60.96 99.13 60.86C98.1633 60.7 97.2967 60.4733 96.53 60.18C95.77 59.88 95.1667 59.4633 94.72 58.93C94.28 58.3967 94.06 57.6933 94.06 56.82C94.06 56.0067 94.2933 55.2967 94.76 54.69C95.2333 54.0833 95.8567 53.6133 96.63 53.28C97.4033 52.9467 98.2367 52.78 99.13 52.78C99.87 52.78 100.587 52.8967 101.28 53.13C101.98 53.3567 102.597 53.69 103.13 54.13C103.663 54.57 104.047 55.1067 104.28 55.74L102.69 56.32C102.557 55.94 102.307 55.6133 101.94 55.34C101.58 55.06 101.153 54.8467 100.66 54.7C100.173 54.5467 99.6633 54.47 99.13 54.47C98.5367 54.4633 97.9833 54.56 97.47 54.76C96.9567 54.96 96.54 55.2367 96.22 55.59C95.9 55.9433 95.74 56.3533 95.74 56.82C95.74 57.38 95.8867 57.81 96.18 58.11C96.48 58.4033 96.8867 58.6233 97.4 58.77C97.9133 58.9167 98.49 59.0467 99.13 59.16C100.037 59.3133 100.877 59.5567 101.65 59.89C102.423 60.2167 103.043 60.6533 103.51 61.2C103.983 61.7467 104.22 62.42 104.22 63.22C104.22 64.0333 103.983 64.7433 103.51 65.35C103.043 65.9567 102.423 66.4267 101.65 66.76C100.877 67.0933 100.037 67.26 99.13 67.26ZM114.349 57H116.029V67H114.349L114.279 65.31C113.966 65.89 113.533 66.36 112.979 66.72C112.433 67.08 111.779 67.26 111.019 67.26C110.286 67.26 109.599 67.1233 108.959 66.85C108.319 66.57 107.753 66.1867 107.259 65.7C106.773 65.2067 106.393 64.64 106.119 64C105.846 63.36 105.709 62.67 105.709 61.93C105.709 61.2167 105.843 60.5433 106.109 59.91C106.376 59.2767 106.746 58.7233 107.219 58.25C107.699 57.77 108.253 57.3967 108.879 57.13C109.506 56.8567 110.179 56.72 110.899 56.72C111.686 56.72 112.376 56.9067 112.969 57.28C113.563 57.6467 114.043 58.1233 114.409 58.71L114.349 57ZM110.989 65.63C111.649 65.63 112.219 65.47 112.699 65.15C113.186 64.8233 113.559 64.3833 113.819 63.83C114.086 63.2767 114.219 62.6667 114.219 62C114.219 61.32 114.086 60.7067 113.819 60.16C113.553 59.6067 113.176 59.17 112.689 58.85C112.209 58.5233 111.643 58.36 110.989 58.36C110.329 58.36 109.729 58.5233 109.189 58.85C108.649 59.1767 108.219 59.6167 107.899 60.17C107.586 60.7167 107.429 61.3267 107.429 62C107.429 62.6733 107.593 63.2867 107.919 63.84C108.246 64.3867 108.679 64.8233 109.219 65.15C109.759 65.47 110.349 65.63 110.989 65.63ZM123.208 58.68H120.938L120.928 67H119.248L119.258 58.68H117.538V57H119.258L119.248 53.86H120.928L120.938 57H123.208V58.68ZM124.903 57H126.583V67H124.903V57ZM125.763 55.37C125.496 55.37 125.273 55.2833 125.093 55.11C124.913 54.9367 124.823 54.72 124.823 54.46C124.823 54.2 124.913 53.9833 125.093 53.81C125.273 53.6367 125.493 53.55 125.753 53.55C126.013 53.55 126.233 53.6367 126.413 53.81C126.593 53.9833 126.683 54.2 126.683 54.46C126.683 54.72 126.593 54.9367 126.413 55.11C126.24 55.2833 126.023 55.37 125.763 55.37ZM131.938 67.19C131.398 67.17 130.871 67.07 130.358 66.89C129.851 66.7033 129.404 66.4533 129.018 66.14C128.638 65.82 128.361 65.4533 128.188 65.04L129.628 64.42C129.728 64.6467 129.908 64.86 130.168 65.06C130.428 65.26 130.728 65.42 131.068 65.54C131.408 65.66 131.751 65.72 132.098 65.72C132.464 65.72 132.808 65.6633 133.128 65.55C133.448 65.4367 133.708 65.27 133.908 65.05C134.114 64.8233 134.218 64.5533 134.218 64.24C134.218 63.9067 134.104 63.6467 133.878 63.46C133.658 63.2667 133.378 63.1167 133.038 63.01C132.704 62.8967 132.364 62.79 132.018 62.69C131.331 62.5167 130.718 62.31 130.178 62.07C129.638 61.8233 129.211 61.5133 128.898 61.14C128.591 60.76 128.438 60.2767 128.438 59.69C128.438 59.07 128.608 58.5333 128.948 58.08C129.294 57.6267 129.748 57.2767 130.308 57.03C130.868 56.7833 131.468 56.66 132.108 56.66C132.914 56.66 133.651 56.8333 134.318 57.18C134.984 57.5267 135.481 57.9967 135.808 58.59L134.458 59.38C134.344 59.14 134.171 58.93 133.938 58.75C133.704 58.5633 133.438 58.4167 133.138 58.31C132.838 58.2033 132.531 58.1467 132.218 58.14C131.831 58.1267 131.468 58.1767 131.128 58.29C130.794 58.4033 130.524 58.5767 130.318 58.81C130.118 59.0367 130.018 59.32 130.018 59.66C130.018 59.9933 130.124 60.2467 130.338 60.42C130.558 60.5933 130.841 60.7333 131.188 60.84C131.541 60.94 131.924 61.0567 132.338 61.19C132.944 61.3833 133.511 61.6067 134.038 61.86C134.564 62.1133 134.988 62.43 135.308 62.81C135.634 63.19 135.794 63.66 135.788 64.22C135.788 64.8333 135.604 65.37 135.238 65.83C134.871 66.2833 134.394 66.63 133.808 66.87C133.228 67.11 132.604 67.2167 131.938 67.19ZM139.771 54.53V57H142.701V58.68H139.771V67H138.091V58.68H136.801V57H138.091V54.53C138.091 54.0167 138.214 53.5533 138.461 53.14C138.714 52.72 139.051 52.3867 139.471 52.14C139.897 51.8867 140.364 51.76 140.871 51.76C141.244 51.76 141.607 51.8367 141.961 51.99C142.314 52.1367 142.627 52.3567 142.901 52.65L141.701 53.84C141.607 53.7133 141.484 53.6167 141.331 53.55C141.184 53.4767 141.031 53.44 140.871 53.44C140.571 53.44 140.311 53.5467 140.091 53.76C139.877 53.9733 139.771 54.23 139.771 54.53ZM152.123 57H153.803V67H152.123L152.053 65.31C151.739 65.89 151.306 66.36 150.753 66.72C150.206 67.08 149.553 67.26 148.793 67.26C148.059 67.26 147.373 67.1233 146.733 66.85C146.093 66.57 145.526 66.1867 145.033 65.7C144.546 65.2067 144.166 64.64 143.893 64C143.619 63.36 143.483 62.67 143.483 61.93C143.483 61.2167 143.616 60.5433 143.883 59.91C144.149 59.2767 144.519 58.7233 144.993 58.25C145.473 57.77 146.026 57.3967 146.653 57.13C147.279 56.8567 147.953 56.72 148.673 56.72C149.459 56.72 150.149 56.9067 150.743 57.28C151.336 57.6467 151.816 58.1233 152.183 58.71L152.123 57ZM148.763 65.63C149.423 65.63 149.993 65.47 150.473 65.15C150.959 64.8233 151.333 64.3833 151.593 63.83C151.859 63.2767 151.993 62.6667 151.993 62C151.993 61.32 151.859 60.7067 151.593 60.16C151.326 59.6067 150.949 59.17 150.463 58.85C149.983 58.5233 149.416 58.36 148.763 58.36C148.103 58.36 147.503 58.5233 146.963 58.85C146.423 59.1767 145.993 59.6167 145.673 60.17C145.359 60.7167 145.203 61.3267 145.203 62C145.203 62.6733 145.366 63.2867 145.693 63.84C146.019 64.3867 146.453 64.8233 146.993 65.15C147.533 65.47 148.123 65.63 148.763 65.63ZM162.496 64.36L163.996 65.17C163.543 65.8033 162.966 66.31 162.266 66.69C161.573 67.07 160.82 67.26 160.006 67.26C159.086 67.26 158.246 67.0233 157.486 66.55C156.733 66.0767 156.13 65.4433 155.676 64.65C155.23 63.85 155.006 62.9667 155.006 62C155.006 61.2667 155.136 60.5833 155.396 59.95C155.656 59.31 156.013 58.75 156.466 58.27C156.926 57.7833 157.46 57.4033 158.066 57.13C158.673 56.8567 159.32 56.72 160.006 56.72C160.82 56.72 161.573 56.91 162.266 57.29C162.966 57.67 163.543 58.18 163.996 58.82L162.496 59.63C162.176 59.2367 161.796 58.9333 161.356 58.72C160.916 58.5067 160.466 58.4 160.006 58.4C159.386 58.4 158.823 58.5667 158.316 58.9C157.816 59.2267 157.42 59.6633 157.126 60.21C156.833 60.7567 156.686 61.3533 156.686 62C156.686 62.6467 156.833 63.2433 157.126 63.79C157.426 64.33 157.826 64.7633 158.326 65.09C158.833 65.4167 159.393 65.58 160.006 65.58C160.5 65.58 160.963 65.4667 161.396 65.24C161.83 65.0133 162.196 64.72 162.496 64.36ZM170.982 58.68H168.712L168.702 67H167.022L167.032 58.68H165.312V57H167.032L167.022 53.86H168.702L168.712 57H170.982V58.68ZM172.677 57H174.357V67H172.677V57ZM173.537 55.37C173.27 55.37 173.047 55.2833 172.867 55.11C172.687 54.9367 172.597 54.72 172.597 54.46C172.597 54.2 172.687 53.9833 172.867 53.81C173.047 53.6367 173.267 53.55 173.527 53.55C173.787 53.55 174.007 53.6367 174.187 53.81C174.367 53.9833 174.457 54.2 174.457 54.46C174.457 54.72 174.367 54.9367 174.187 55.11C174.013 55.2833 173.797 55.37 173.537 55.37ZM181.022 67.26C180.102 67.26 179.262 67.0233 178.502 66.55C177.749 66.0767 177.145 65.4433 176.692 64.65C176.245 63.85 176.022 62.9667 176.022 62C176.022 61.2667 176.152 60.5833 176.412 59.95C176.672 59.31 177.029 58.75 177.482 58.27C177.942 57.7833 178.475 57.4033 179.082 57.13C179.689 56.8567 180.335 56.72 181.022 56.72C181.942 56.72 182.779 56.9567 183.532 57.43C184.292 57.9033 184.895 58.54 185.342 59.34C185.795 60.14 186.022 61.0267 186.022 62C186.022 62.7267 185.892 63.4067 185.632 64.04C185.372 64.6733 185.012 65.2333 184.552 65.72C184.099 66.2 183.569 66.5767 182.962 66.85C182.362 67.1233 181.715 67.26 181.022 67.26ZM181.022 65.58C181.649 65.58 182.212 65.4167 182.712 65.09C183.219 64.7567 183.615 64.32 183.902 63.78C184.195 63.2333 184.342 62.64 184.342 62C184.342 61.3467 184.192 60.7467 183.892 60.2C183.599 59.6533 183.202 59.2167 182.702 58.89C182.202 58.5633 181.642 58.4 181.022 58.4C180.395 58.4 179.832 58.5667 179.332 58.9C178.832 59.2267 178.435 59.6633 178.142 60.21C177.849 60.7567 177.702 61.3533 177.702 62C177.702 62.6667 177.852 63.2733 178.152 63.82C178.452 64.36 178.855 64.79 179.362 65.11C179.869 65.4233 180.422 65.58 181.022 65.58ZM196.517 60.78V67H194.837V61.15C194.837 60.6433 194.713 60.1833 194.467 59.77C194.22 59.3567 193.89 59.03 193.477 58.79C193.063 58.5433 192.603 58.42 192.097 58.42C191.597 58.42 191.137 58.5433 190.717 58.79C190.303 59.03 189.973 59.3567 189.727 59.77C189.48 60.1833 189.357 60.6433 189.357 61.15V67H187.677V57H189.357V58.25C189.71 57.7833 190.157 57.4133 190.697 57.14C191.237 56.86 191.823 56.72 192.457 56.72C193.203 56.72 193.883 56.9033 194.497 57.27C195.117 57.63 195.607 58.1167 195.967 58.73C196.333 59.3433 196.517 60.0267 196.517 60.78Z" fill="#6B7280"/>
</g>
<defs>
<filter id="filter0_d_17_293" x="0" y="0" width="244" height="121" filterUnits="userSpaceOnUse" color-interpolation-filters="sRGB">
<feFlood flood-opacity="0" result="BackgroundImageFix"/>
<feColorMatrix in="SourceAlpha" type="matrix" values="0 0 0 0 0 0 0 0 0 0 0 0 0 0 0 0 0 0 127 0" result="hardAlpha"/>
<feOffset dy="16"/>
<feGaussianBlur stdDeviation="11"/>
<feComposite in2="hardAlpha" operator="out"/>
<feColorMatrix type="matrix" values="0 0 0 0 0 0 0 0 0 0 0 0 0 0 0 0 0 0 0.15 0"/>
<feBlend mode="normal" in2="BackgroundImageFix" result="effect1_dropShadow_17_293"/>
<feBlend mode="normal" in="SourceGraphic" in2="effect1_dropShadow_17_293" result="shape"/>
</filter>
</defs>
</svg>
