<svg width="704" height="145" viewBox="0 0 704 145" fill="none" xmlns="http://www.w3.org/2000/svg">
<path d="M190.303 55.1681V105.668C190.303 109.089 191.076 111.573 192.621 113.118C194.277 114.553 197.036 115.271 200.9 115.271H212.49V131H197.588C189.089 131 182.576 129.013 178.051 125.039C173.525 121.066 171.262 114.608 171.262 105.668V55.1681H160.5V39.7701H171.262V17.087H190.303V39.7701H212.49V55.1681H190.303ZM212.004 84.9711C212.004 75.8091 213.881 67.6961 217.634 60.6321C221.497 53.5681 226.685 48.1041 233.198 44.2401C239.82 40.2671 247.106 38.2801 255.053 38.2801C262.228 38.2801 268.464 39.7151 273.763 42.5851C279.171 45.3441 283.476 48.8211 286.677 53.0161V39.7701H305.718V131H286.677V117.423C283.476 121.728 279.116 125.315 273.597 128.185C268.078 131.055 261.786 132.49 254.722 132.49C246.885 132.49 239.71 130.503 233.198 126.53C226.685 122.445 221.497 116.816 217.634 109.641C213.881 102.356 212.004 94.1331 212.004 84.9711ZM286.677 85.3021C286.677 79.0111 285.353 73.5471 282.704 68.9111C280.165 64.2751 276.798 60.7421 272.604 58.3141C268.409 55.8861 263.884 54.6711 259.027 54.6711C254.17 54.6711 249.644 55.8861 245.45 58.3141C241.255 60.6321 237.834 64.1091 235.184 68.7451C232.646 73.2711 231.376 78.6791 231.376 84.9711C231.376 91.2631 232.646 96.7821 235.184 101.528C237.834 106.275 241.255 109.917 245.45 112.456C249.755 114.884 254.28 116.099 259.027 116.099C263.884 116.099 268.409 114.884 272.604 112.456C276.798 110.028 280.165 106.495 282.704 101.859C285.353 97.1131 286.677 91.5941 286.677 85.3021ZM366.108 38.2801C373.062 38.2801 379.243 39.7701 384.652 42.7501C390.171 45.7311 394.476 50.146 397.566 55.996C400.767 61.846 402.368 68.9111 402.368 77.1891V131H383.658V80.0041C383.658 71.8361 381.616 65.5991 377.532 61.2941C373.448 56.8791 367.874 54.6711 360.809 54.6711C353.745 54.6711 348.116 56.8791 343.921 61.2941C339.837 65.5991 337.795 71.8361 337.795 80.0041V131H318.92V8.47705H337.795V50.3671C340.996 46.5031 345.025 43.5231 349.882 41.4261C354.849 39.3291 360.257 38.2801 366.108 38.2801ZM408.563 84.9711C408.563 75.8091 410.439 67.6961 414.192 60.6321C418.055 53.5681 423.243 48.1041 429.756 44.2401C436.379 40.2671 443.719 38.2801 451.777 38.2801C457.737 38.2801 463.588 39.6041 469.327 42.2541C475.178 44.7921 479.814 48.214 483.235 52.519V8.47705H502.276V131H483.235V117.258C480.145 121.673 475.84 125.315 470.321 128.185C464.912 131.055 458.676 132.49 451.611 132.49C443.664 132.49 436.379 130.503 429.756 126.53C423.243 122.445 418.055 116.816 414.192 109.641C410.439 102.356 408.563 94.1331 408.563 84.9711ZM483.235 85.3021C483.235 79.0111 481.911 73.5471 479.262 68.9111C476.723 64.2751 473.356 60.7421 469.162 58.3141C464.967 55.8861 460.442 54.6711 455.585 54.6711C450.728 54.6711 446.203 55.8861 442.008 58.3141C437.814 60.6321 434.392 64.1091 431.743 68.7451C429.204 73.2711 427.934 78.6791 427.934 84.9711C427.934 91.2631 429.204 96.7821 431.743 101.528C434.392 106.275 437.814 109.917 442.008 112.456C446.313 114.884 450.839 116.099 455.585 116.099C460.442 116.099 464.967 114.884 469.162 112.456C473.356 110.028 476.723 106.495 479.262 101.859C481.911 97.1131 483.235 91.5941 483.235 85.3021ZM509.186 84.9711C509.186 75.8091 511.063 67.6961 514.816 60.6321C518.679 53.5681 523.867 48.1041 530.379 44.2401C537.002 40.2671 544.287 38.2801 552.235 38.2801C559.41 38.2801 565.646 39.7151 570.944 42.5851C576.353 45.3441 580.658 48.8211 583.859 53.0161V39.7701H602.9V131H583.859V117.423C580.658 121.728 576.298 125.315 570.779 128.185C565.26 131.055 558.968 132.49 551.904 132.49C544.067 132.49 536.892 130.503 530.379 126.53C523.867 122.445 518.679 116.816 514.816 109.641C511.063 102.356 509.186 94.1331 509.186 84.9711ZM583.859 85.3021C583.859 79.0111 582.534 73.5471 579.885 68.9111C577.346 64.2751 573.98 60.7421 569.785 58.3141C565.591 55.8861 561.065 54.6711 556.208 54.6711C551.352 54.6711 546.826 55.8861 542.632 58.3141C538.437 60.6321 535.015 64.1091 532.366 68.7451C529.827 73.2711 528.558 78.6791 528.558 84.9711C528.558 91.2631 529.827 96.7821 532.366 101.528C535.015 106.275 538.437 109.917 542.632 112.456C546.936 114.884 551.462 116.099 556.208 116.099C561.065 116.099 565.591 114.884 569.785 112.456C573.98 110.028 577.346 106.495 579.885 101.859C582.534 97.1131 583.859 91.5941 583.859 85.3021ZM609.81 84.9711C609.81 75.8091 611.686 67.6961 615.439 60.6321C619.302 53.5681 624.49 48.1041 631.003 44.2401C637.626 40.2671 644.911 38.2801 652.858 38.2801C660.033 38.2801 666.27 39.7151 671.568 42.5851C676.977 45.3441 681.281 48.8211 684.483 53.0161V39.7701H703.52V131H684.483V117.423C681.281 121.728 676.921 125.315 671.402 128.185C665.883 131.055 659.592 132.49 652.527 132.49C644.69 132.49 637.515 130.503 631.003 126.53C624.49 122.445 619.302 116.816 615.439 109.641C611.686 102.356 609.81 94.1331 609.81 84.9711ZM684.483 85.3021C684.483 79.0111 683.158 73.5471 680.509 68.9111C677.97 64.2751 674.603 60.7421 670.409 58.3141C666.214 55.8861 661.689 54.6711 656.832 54.6711C651.975 54.6711 647.45 55.8861 643.255 58.3141C639.061 60.6321 635.639 64.1091 632.99 68.7451C630.451 73.2711 629.182 78.6791 629.182 84.9711C629.182 91.2631 630.451 96.7821 632.99 101.528C635.639 106.275 639.061 109.917 643.255 112.456C647.56 114.884 652.086 116.099 656.832 116.099C661.689 116.099 666.214 114.884 670.409 112.456C674.603 110.028 677.97 106.495 680.509 101.859C683.158 97.1131 684.483 91.5941 684.483 85.3021Z" fill="#384152"/>
<path fill-rule="evenodd" clip-rule="evenodd" d="M70.9101 0.0470824C72.1241 0.00708241 73.337 7.21514e-05 74.551 0.0240722C75.765 0.0480722 76.978 0.104064 78.189 0.191064C79.4 0.279064 80.608 0.398059 81.813 0.548059C83.018 0.699059 84.2181 0.881079 85.4141 1.09408C86.6091 1.30708 87.7981 1.55111 88.9801 1.82711C90.1631 2.10211 91.3381 2.40808 92.5041 2.74508C93.6711 3.08108 94.8281 3.44809 95.9761 3.84609C97.1231 4.24309 98.2601 4.67006 99.3851 5.12606C118.615 12.8981 132.448 27.1341 140.475 46.1071C130.16 45.8011 119.697 45.8521 109.383 46.1981C109.969 46.9171 110.522 47.6611 111.042 48.4291C111.562 49.1961 112.048 49.9861 112.498 50.7961C112.949 51.6071 113.362 52.4361 113.74 53.2841C114.117 54.1311 114.456 54.9931 114.756 55.8711C115.186 57.1351 115.498 58.3831 115.802 59.6031C116.591 62.7591 117.333 65.7321 119.957 68.3271C120.354 68.7201 120.774 69.0861 121.219 69.4251C121.663 69.7641 122.128 70.0731 122.613 70.3511C123.097 70.6301 123.598 70.8761 124.115 71.0901C124.631 71.3031 125.159 71.4831 125.699 71.6281C128.993 72.5011 136.078 72.2791 141.382 72.1131C142.89 72.0661 144.254 72.0231 145.347 72.0121C145.35 72.5471 145.347 73.0811 145.339 73.6161C145.33 74.1511 145.315 74.6851 145.294 75.2201C145.274 75.7541 145.247 76.2881 145.214 76.8221C145.181 77.3561 145.143 77.8891 145.098 78.4221C145.053 78.9551 145.003 79.4871 144.946 80.0191C144.89 80.5511 144.827 81.0821 144.759 81.6131C144.69 82.1431 144.616 82.6731 144.535 83.2011C144.455 83.7301 144.369 84.2581 144.276 84.7851C144.184 85.3111 144.086 85.8371 143.982 86.3621C143.878 86.8861 143.768 87.4101 143.652 87.9321C143.536 88.4541 143.415 88.9751 143.288 89.4941C143.16 90.0131 143.027 90.5311 142.888 91.0481C142.748 91.5641 142.604 92.0791 142.453 92.5921C142.303 93.1051 142.146 93.6171 141.984 94.1261C141.822 94.6361 141.654 95.1441 141.481 95.6501C141.307 96.1561 141.128 96.6591 140.944 97.1611C140.759 97.6631 140.569 98.1631 140.373 98.6601C140.177 99.1581 139.975 99.6541 139.768 100.147C139.561 100.64 139.348 101.131 139.13 101.619C138.912 102.107 138.688 102.593 138.459 103.076C138.23 103.56 137.996 104.04 137.756 104.519C137.517 104.997 137.271 105.472 137.021 105.944C136.771 106.417 136.515 106.886 136.254 107.353C135.993 107.82 135.727 108.284 135.455 108.745C135.184 109.206 134.908 109.663 134.626 110.118C134.344 110.573 134.057 111.024 133.766 111.472C133.474 111.921 133.177 112.365 132.876 112.807C132.574 113.249 132.267 113.687 131.956 114.121C131.644 114.556 131.327 114.987 131.006 115.415C130.685 115.842 130.359 116.266 130.028 116.687C129.698 117.107 129.362 117.523 129.022 117.936C128.682 118.349 128.337 118.758 127.988 119.163C114.436 135.015 96.5341 142.922 75.9761 144.498C64.5701 144.853 53.3811 142.882 42.9431 138.196C25.9041 130.547 11.409 115.806 4.80404 98.2431C9.01604 98.2681 13.2291 98.2651 17.4431 98.2621C23.6371 98.2581 29.831 98.2531 36.024 98.3371C33.54 95.5361 31.671 92.3911 30.486 88.8331C30.052 87.5291 29.7471 86.2351 29.4481 84.9651C28.6881 81.7411 27.968 78.6821 25.274 76.0711C24.895 75.7031 24.494 75.3611 24.072 75.0441C23.65 74.7261 23.2091 74.4371 22.7511 74.1741C22.2921 73.9121 21.8191 73.6791 21.3311 73.4761C20.8441 73.2731 20.3461 73.1011 19.8371 72.9601C16.3681 71.9931 9.55306 72.1321 4.24206 72.2411C2.65006 72.2741 1.19405 72.3041 0.00304755 72.3001C-0.168952 53.9601 7.58505 35.9451 20.132 22.6921C20.54 22.2591 20.9541 21.8321 21.3721 21.4111C21.7911 20.9881 22.2151 20.5721 22.6441 20.1601C23.0731 19.7491 23.5071 19.3431 23.9461 18.9421C24.3851 18.5411 24.8291 18.1461 25.2781 17.7561C25.7271 17.3661 26.1801 16.9821 26.6391 16.6031C27.0971 16.2241 27.5601 15.8511 28.0271 15.4841C28.4941 15.1171 28.9661 14.7561 29.4431 14.4001C29.9191 14.0441 30.4001 13.6951 30.8851 13.3511C31.3701 13.0071 31.859 12.6691 32.352 12.3371C32.846 12.0061 33.3431 11.6801 33.8441 11.3611C34.3451 11.0411 34.85 10.7281 35.36 10.4211C35.869 10.1141 36.3811 9.81307 36.8981 9.51907C37.4151 9.22407 37.9341 8.93611 38.4581 8.65511C38.9821 8.37311 39.5091 8.0981 40.0391 7.8301C40.5691 7.5611 41.1031 7.29909 41.6391 7.04409C42.1761 6.78809 42.7161 6.53908 43.2591 6.29708C43.8021 6.05508 44.3481 5.82009 44.8971 5.59109C45.4451 5.36209 45.9971 5.14111 46.5511 4.92611C47.1051 4.71011 47.6621 4.50211 48.2211 4.30111C48.7811 4.09911 49.3421 3.9051 49.9061 3.7181C50.4711 3.5301 51.0371 3.34911 51.6051 3.17611C52.1741 3.00211 52.745 2.83609 53.317 2.67709C53.89 2.51709 54.464 2.36408 55.041 2.21908C55.617 2.07408 56.1961 1.93608 56.7761 1.80508C57.3551 1.67408 57.936 1.55007 58.52 1.43307C59.102 1.31607 59.6871 1.20709 60.2721 1.10409C60.8581 1.00209 61.445 0.907055 62.033 0.819055C62.621 0.731055 63.2091 0.651112 63.7991 0.577112C64.3891 0.504112 64.9801 0.438114 65.5711 0.379114C66.1631 0.320114 66.755 0.269084 67.348 0.224084C67.941 0.180084 68.534 0.143099 69.128 0.114099C69.721 0.084099 70.3151 0.0620824 70.9101 0.0470824ZM105.457 72.3401H117.144C117.161 73.2851 117.146 74.2291 117.101 75.1731C117.055 76.1171 116.978 77.0581 116.87 77.9971C116.761 78.9361 116.622 79.8701 116.452 80.7991C116.282 81.7291 116.082 82.6521 115.851 83.5681C115.62 84.4851 115.359 85.3921 115.068 86.2911C114.777 87.1901 114.456 88.0791 114.107 88.9571C113.757 89.8341 113.378 90.6991 112.971 91.5521C112.564 92.4051 112.129 93.2431 111.666 94.0671C111.486 94.3861 111.302 94.7041 111.115 95.0181C110.927 95.3341 110.735 95.6461 110.54 95.9561C110.345 96.2671 110.146 96.5751 109.943 96.8801C109.74 97.1861 109.534 97.4891 109.324 97.7891C109.113 98.0891 108.9 98.3871 108.683 98.6821C108.465 98.9781 108.244 99.2701 108.02 99.5601C107.795 99.8501 107.568 100.137 107.336 100.422C107.105 100.706 106.87 100.987 106.632 101.266C106.393 101.544 106.152 101.82 105.907 102.093C105.662 102.366 105.413 102.635 105.162 102.902C104.911 103.169 104.656 103.433 104.398 103.693C104.14 103.954 103.879 104.211 103.615 104.465C103.351 104.719 103.084 104.97 102.813 105.218C102.543 105.466 102.27 105.71 101.993 105.951C101.717 106.192 101.438 106.43 101.156 106.665C100.874 106.899 100.589 107.13 100.302 107.357C100.014 107.585 99.7241 107.809 99.4311 108.029C99.1381 108.249 98.8431 108.466 98.5441 108.679C98.2461 108.892 97.9451 109.101 97.6421 109.307C97.3381 109.513 97.0331 109.716 96.7241 109.914C96.4161 110.112 96.1061 110.307 95.7931 110.498C95.4791 110.689 95.164 110.876 94.847 111.059C94.529 111.243 94.2101 111.422 93.8881 111.597C93.5661 111.773 93.242 111.944 92.916 112.112C92.59 112.279 92.2621 112.443 91.9321 112.603C91.6011 112.762 91.2691 112.918 90.9361 113.07C90.6021 113.221 90.266 113.369 89.929 113.512C89.592 113.656 89.252 113.795 88.912 113.93C88.571 114.065 88.2291 114.196 87.8851 114.323C87.5411 114.45 87.195 114.573 86.848 114.691C86.501 114.81 86.1531 114.924 85.8031 115.034C85.4541 115.144 85.1031 115.25 84.7501 115.351C72.9801 118.692 60.8431 116.929 50.2341 111.005C44.6111 107.687 40.296 103.366 36.098 98.4471C37.276 98.4281 38.505 98.4601 39.757 98.4931C44.788 98.6251 50.188 98.7661 54.166 95.6351C57.552 92.9711 58.743 89.2951 59.24 85.2011C62.682 88.1381 66.3541 90.0261 70.9101 90.4731C75.9381 90.9661 80.707 89.4901 84.576 86.2421C88.969 82.5551 90.7621 78.0491 91.2811 72.4511L105.457 72.3401ZM79.955 28.2311C76.592 27.6651 72.7101 27.3241 69.3021 27.7461C56.8561 29.0301 46.1651 34.2311 38.18 44.0011C31.587 52.0701 28.5061 61.7661 28.1691 72.0891C32.0531 72.2521 35.954 72.2291 39.848 72.2061C40.992 72.2001 42.1361 72.1931 43.2781 72.1911C44.2421 72.1891 45.2141 72.1981 46.1901 72.2071C48.9041 72.2331 51.646 72.2591 54.317 72.0501C54.695 66.9501 56.3191 62.5151 60.1901 59.0201C64.3451 55.4331 68.7641 53.6311 74.3151 54.0571C78.9911 54.4161 82.6361 56.4581 86.1861 59.4041C86.5771 55.3761 87.6111 51.8801 90.8421 49.1331C95.0511 45.5531 100.876 45.8081 106.254 46.0441C107.243 46.0871 108.218 46.1301 109.165 46.1481C102.226 36.4731 91.664 30.2031 79.955 28.2311Z" fill="#458EFF"/>
</svg>
