<svg width="1600" height="644" viewBox="0 0 1600 644" fill="none" xmlns="http://www.w3.org/2000/svg">
<path d="M1869.88 -232C1794.39 -153.159 1713.83 -78.5314 1623.56 -17.1523C1594.3 2.74858 1563.84 21.3353 1530.7 33.7698C1463.14 59.1259 1388.86 57.503 1317.81 70.1852C1227.59 86.2887 1141.95 126.581 1071.42 185.03C1018.36 229.013 960.81 288.705 895.699 314.388C836.548 337.718 758.637 295.209 699.663 284.658C639.259 273.853 576.014 282.193 519.704 306.207C490.205 318.789 462.498 335.692 438.046 356.464C414.665 376.331 397.284 407.784 361.571 393.492C349.767 388.768 340.367 379.632 329.638 372.806C292.352 349.089 237.82 358.137 210.194 392.629" stroke="#2EA7E0" stroke-width="0.552088" stroke-miterlimit="10"/>
<path d="M1866.39 -229.29C1793.08 -150.066 1713.58 -75.0598 1623.83 -13.9444C1593.95 6.42846 1562.72 24.8096 1529.11 37.9745C1488.55 53.8036 1445.54 60.1968 1402.16 65.5302C1372.55 69.1728 1342.77 72.3186 1313.47 77.6266C1255.6 88.1173 1199.4 107.487 1147.56 134.225C1117.25 149.862 1088.44 168.023 1061.65 188.481C1042.81 202.803 1023.48 218.87 1003.53 234.752C975.452 257.045 946.134 278.96 915.15 295.574C904.029 301.551 892.698 306.845 881.152 311.189C833.417 329.115 774.453 308.351 722.516 294.883C708.587 291.243 695.164 288.126 682.585 286.422C630.852 279.258 577.504 285.987 528.351 304.248C519.888 307.39 511.545 310.875 503.349 314.694C474.121 328.307 446.635 346.132 422.051 367.474C407.492 380.116 395.073 396.978 379.154 404.84C369.352 409.682 358.263 411.051 344.544 406.034C332.559 401.65 322.843 393.016 311.845 386.558C273.665 364.095 218.654 373.023 189.993 407.365" stroke="#2EA7E0" stroke-width="0.552088" stroke-miterlimit="10"/>
<path d="M1862.89 -226.585C1791.76 -146.972 1713.34 -71.5927 1624.1 -10.7402C1593.6 10.1098 1561.59 28.2844 1527.52 42.1712C1486.55 58.7563 1443.06 66.0061 1399.12 71.9916C1369.11 76.0817 1338.89 79.5817 1309.12 85.061C1250.32 95.8737 1193.02 114.821 1139.98 140.392C1108.97 155.341 1079.43 172.573 1051.86 191.925C1032.43 205.458 1012.53 220.623 992.036 235.576C963.168 256.552 933.095 277.099 901.333 292.953C889.956 298.66 878.379 303.757 866.587 307.989C817.741 325.452 758.086 306.438 705.692 295.034C691.667 291.929 678.155 289.4 665.495 288.192C613.544 283.238 560.46 291.825 511.751 311.849C503.368 315.29 495.107 319.078 486.985 323.183C458.023 337.828 430.759 356.573 406.047 378.489C391.406 391.477 378.742 408.462 362.553 416.603C352.575 421.619 341.332 423.168 327.509 418.581C315.334 414.54 305.311 406.41 294.044 400.315C254.974 379.107 199.476 387.915 169.787 422.101" stroke="#2EA7E0" stroke-width="0.552088" stroke-miterlimit="10"/>
<path d="M1859.41 -223.881C1790.45 -143.883 1713.09 -68.121 1624.37 -7.5374C1593.25 13.7854 1560.48 31.7535 1525.93 46.3707C1484.56 63.7162 1440.59 71.8184 1396.08 78.456C1365.68 82.9978 1335.03 86.851 1304.78 92.4941C1245.05 103.632 1186.65 122.154 1132.41 146.552C1100.69 160.82 1070.48 177.195 1042.08 195.363C1022.09 208.158 1001.58 222.367 980.559 236.392C950.894 256.054 920.074 275.231 887.533 290.321C875.903 295.757 864.071 300.659 852.044 304.781C802.083 321.782 741.716 304.655 688.884 295.174C674.757 292.637 661.166 290.639 648.419 289.947C596.268 287.114 543.427 297.648 495.17 319.438C486.865 323.182 478.684 327.264 470.64 331.658C441.95 347.334 414.907 367.002 390.067 389.49C375.344 402.824 362.439 419.932 345.976 428.352C335.823 433.548 324.428 435.28 310.494 431.112C298.13 427.417 287.799 419.783 276.261 414.052C236.297 394.098 180.32 402.781 149.597 436.821" stroke="#2EA7E0" stroke-width="0.552088" stroke-miterlimit="10"/>
<path d="M1855.91 -221.171C1789.13 -140.789 1712.85 -64.6493 1624.64 -4.3252C1592.9 17.4748 1559.39 35.3007 1524.34 50.5754C1482.6 68.7584 1438.11 77.6348 1393.04 84.9297C1362.25 89.918 1331.17 94.1297 1300.44 99.9398C1239.77 111.404 1180.28 129.504 1124.84 152.731C1092.42 166.311 1061.48 181.782 1032.31 198.817C1011.72 210.841 990.64 224.128 969.081 237.231C938.623 255.577 907.047 273.385 873.728 287.711C861.841 292.878 849.759 297.584 837.494 301.591C786.423 318.13 725.364 302.792 672.071 295.332C657.846 293.339 644.176 291.896 631.343 291.72C578.999 291.005 526.397 303.488 478.583 327.041C470.354 331.084 462.254 335.464 454.29 340.149C425.87 356.855 399.044 377.445 374.076 400.503C359.27 414.183 346.124 431.408 329.388 440.113C319.06 445.488 307.508 447.404 293.472 443.657C280.914 440.309 270.28 433.175 258.473 427.807C217.615 409.108 161.155 417.671 129.404 451.555" stroke="#2EA7E0" stroke-width="0.552088" stroke-miterlimit="10"/>
<path d="M1852.43 -218.467C1787.82 -137.697 1712.61 -61.179 1624.91 -1.12202C1592.55 21.1508 1558.28 38.7864 1522.75 54.771C1480.61 73.7263 1435.64 83.4432 1390 91.3902C1358.82 96.8302 1327.3 101.395 1296.1 107.369C1234.5 119.159 1173.91 136.832 1117.27 158.891C1084.15 171.789 1052.49 186.347 1022.53 202.255C1001.35 213.501 979.725 225.926 957.599 238.048C926.386 255.154 893.991 271.435 859.923 285.079C847.769 289.947 835.452 294.485 822.941 298.38C770.755 314.457 709.011 300.903 655.254 295.472C640.935 294.024 627.178 293.137 614.259 293.476C561.725 294.867 509.359 309.312 461.99 334.631C453.843 338.977 445.822 343.651 437.928 348.628C409.781 366.37 383.172 387.882 358.075 411.508C343.187 425.535 329.796 442.883 312.79 451.866C302.286 457.421 290.578 459.52 276.44 456.195C263.689 453.194 252.752 446.559 240.675 441.555C198.927 424.11 141.984 432.553 109.197 466.287" stroke="#2EA7E0" stroke-width="0.552088" stroke-miterlimit="10"/>
<path d="M1848.93 -215.757C1786.51 -134.603 1712.37 -57.7074 1625.18 2.08583C1592.21 24.8349 1557.17 42.2725 1521.16 58.9757C1478.62 78.7031 1433.16 89.2563 1386.96 97.8597C1355.39 103.747 1323.43 108.67 1291.76 114.81C1229.22 126.926 1167.54 144.178 1109.7 165.061C1075.88 177.272 1043.49 190.922 1012.75 205.701C990.98 216.172 968.784 227.687 946.123 238.873C914.115 254.677 880.963 269.563 846.12 282.456C833.712 287.049 821.142 291.401 808.393 295.177C755.097 310.791 692.668 299.02 638.442 295.617C624.029 294.712 610.193 294.375 597.18 295.24C544.46 298.736 492.327 315.144 445.401 342.226C437.33 346.871 429.391 351.843 421.575 357.105C393.699 375.878 367.311 398.312 342.082 422.513C327.112 436.885 313.48 454.355 296.2 463.619C285.525 469.351 273.648 471.642 259.412 468.733C246.465 466.084 235.227 459.939 222.885 455.297C180.242 439.107 122.815 447.426 89.0027 481.012" stroke="#2EA7E0" stroke-width="0.552088" stroke-miterlimit="10"/>
<path d="M1845.44 -213.052C1785.19 -131.513 1712.12 -54.2403 1625.44 5.29001C1591.85 28.512 1556.05 45.7507 1519.56 63.1724C1476.63 83.6677 1430.68 95.0657 1383.91 104.321C1351.95 110.66 1319.56 115.937 1287.41 122.24C1223.94 134.682 1161.16 151.508 1102.12 171.223C1067.6 182.751 1034.48 195.489 1002.97 209.141C980.595 218.836 957.829 229.441 934.634 239.696C901.83 254.193 867.927 267.688 832.307 279.83C819.646 284.148 806.823 288.309 793.832 291.972C739.421 307.124 676.315 297.131 621.621 295.758C607.113 295.394 593.195 295.611 580.092 296.997C527.188 302.588 475.28 320.969 428.803 349.818C420.809 354.762 412.951 360.037 405.213 365.584C377.608 385.388 351.437 408.744 326.08 433.514C311.027 448.232 297.15 465.825 279.601 475.368C268.75 481.275 256.71 483.765 242.378 481.262C229.23 478.967 217.696 473.315 205.085 469.037C161.551 454.096 103.643 462.299 68.7937 495.731" stroke="#2EA7E0" stroke-width="0.552088" stroke-miterlimit="10"/>
<path d="M1841.95 -210.348C1783.88 -128.421 1711.88 -50.77 1625.71 8.49659C1591.5 32.1957 1554.95 49.2311 1517.97 67.3756C1474.65 88.6347 1428.21 100.882 1380.88 110.794C1348.52 117.579 1315.7 123.214 1283.07 129.686C1218.66 142.453 1154.79 158.853 1094.55 177.4C1059.33 188.242 1025.47 200.065 993.192 212.595C970.22 221.511 946.889 231.209 923.159 240.529C889.561 253.724 854.906 265.827 818.506 277.215C805.587 281.259 792.518 285.227 779.286 288.777C723.765 303.466 659.98 295.246 604.81 295.911C590.208 296.086 576.211 296.857 563.018 298.764C509.929 306.442 458.253 326.804 412.225 357.418C404.312 362.665 396.534 368.234 388.867 374.073C361.533 394.908 335.579 419.186 310.094 444.529C294.959 459.594 280.84 477.304 263.018 487.131C251.991 493.218 239.785 495.907 225.361 493.81C212.013 491.873 200.182 486.705 187.302 482.795C142.874 469.109 84.4826 477.192 48.6067 510.472" stroke="#2EA7E0" stroke-width="0.552088" stroke-miterlimit="10"/>
<path d="M1838.46 -207.638C1782.57 -125.327 1711.64 -47.2983 1625.98 11.7054C1591.15 35.8773 1553.83 52.7139 1516.37 71.5778C1472.65 93.6006 1425.72 106.697 1377.83 117.261C1345.08 124.498 1311.82 130.483 1278.72 137.12C1213.38 150.213 1148.42 166.192 1086.97 183.562C1051.05 193.721 1016.47 204.628 983.41 216.038C959.839 224.175 935.939 232.967 911.674 241.352C877.28 253.24 841.875 263.956 804.693 274.59C791.521 278.358 778.199 282.136 764.725 285.572C708.089 299.8 643.626 293.349 587.986 296.058C573.293 296.772 559.208 298.094 545.927 300.526C492.66 310.285 441.208 332.634 395.623 365.012C387.787 370.557 380.09 376.425 372.501 382.554C345.438 404.419 319.706 429.623 294.089 455.536C278.876 470.946 264.508 488.78 246.415 498.886C235.214 505.152 222.841 508.04 208.32 506.351C194.768 504.771 182.645 500.092 169.494 496.541C124.176 484.109 65.2972 492.068 28.3901 525.198" stroke="#2EA7E0" stroke-width="0.552088" stroke-miterlimit="10"/>
<path d="M1834.97 -204.934C1781.25 -122.239 1711.4 -43.8275 1626.25 14.9082C1590.8 39.5573 1552.72 56.1907 1514.79 75.7774C1470.66 98.5648 1423.25 112.508 1374.79 123.726C1341.65 131.411 1307.96 137.753 1274.37 144.559C1208.1 157.978 1142.04 173.53 1079.4 189.733C1042.77 199.206 1007.45 209.192 973.63 219.485C949.457 226.838 924.99 234.729 900.191 242.183C864.996 252.762 828.845 262.094 790.888 271.977C777.462 275.47 763.886 279.056 750.175 282.379C692.429 296.144 627.29 291.456 571.171 296.212C556.384 297.465 542.22 299.338 528.845 302.296C475.398 314.126 424.173 338.471 379.032 372.616C371.273 378.465 363.656 384.626 356.147 391.045C329.354 413.941 303.84 440.068 278.098 466.549C262.802 482.305 248.194 500.261 229.827 510.647C218.45 517.092 205.912 520.184 191.298 518.896C177.543 517.679 165.119 513.508 151.707 510.296C105.471 499.217 46.1366 506.957 8.19409 539.937" stroke="#2EA7E0" stroke-width="0.552088" stroke-miterlimit="10"/>
<path d="M1831.48 -202.229C1779.94 -119.144 1711.15 -40.3596 1626.52 18.1114C1590.45 43.2334 1551.6 59.6645 1513.2 79.9732C1468.67 103.52 1420.78 118.316 1371.75 130.186C1338.21 138.323 1304.09 145.018 1270.02 151.988C1202.83 165.732 1135.67 180.859 1071.82 195.894C1034.5 204.684 998.441 213.747 963.852 222.923C939.078 229.492 914.042 236.477 888.713 243C852.722 252.267 815.823 260.221 777.083 269.345C763.4 272.568 749.579 275.958 735.622 279.168C676.761 292.471 610.945 289.543 554.354 296.348C539.475 298.136 525.227 300.559 511.761 304.052C458.132 317.946 407.13 344.295 362.437 380.202C354.76 386.35 347.224 392.814 339.788 399.519C313.267 423.446 287.969 450.495 262.1 477.55C246.722 493.651 231.867 511.726 213.232 522.395C201.684 529.018 188.973 532.321 174.268 531.425C160.307 530.576 147.593 526.883 133.91 524.03C86.7842 514.206 26.9629 521.826 -12.0066 554.655" stroke="#2EA7E0" stroke-width="0.552088" stroke-miterlimit="10"/>
<path d="M1827.99 -199.519C1778.62 -116.051 1710.91 -36.8837 1626.78 21.3245C1590.1 46.9227 1550.49 63.1472 1511.6 84.1829C1466.67 108.489 1418.3 124.135 1368.71 136.661C1334.78 145.244 1300.22 152.298 1265.68 159.434C1197.55 173.505 1129.3 188.21 1064.25 202.073C1026.22 210.177 989.431 218.32 954.069 226.38C928.695 232.165 903.09 238.244 877.226 243.836C840.434 251.793 802.791 258.367 763.273 266.732C749.336 269.68 735.262 272.879 721.069 275.979C661.097 288.819 594.604 287.647 537.541 296.51C522.571 298.833 508.24 301.807 494.685 305.829C440.875 321.783 390.101 350.14 345.853 387.814C338.252 394.265 330.797 401.023 323.435 408.018C297.186 432.981 272.109 460.947 246.108 488.576C230.647 505.024 215.552 523.22 196.643 534.169C184.919 540.967 172.035 544.484 157.241 543.984C143.078 543.507 130.069 540.289 116.116 537.8C68.1017 529.234 7.79565 536.726 -32.2093 569.404" stroke="#2EA7E0" stroke-width="0.552088" stroke-miterlimit="10"/>
<path d="M1824.5 -196.815C1777.31 -112.963 1710.55 -33.5842 1627.05 24.5269C1589.7 50.5244 1549.37 66.6161 1510.01 88.3779C1464.68 113.44 1415.82 129.942 1365.67 143.125C1331.35 152.16 1296.36 159.568 1261.34 166.867C1192.27 181.263 1122.93 195.541 1056.68 208.233C1017.95 215.654 980.424 222.865 944.295 229.816C918.319 234.814 892.145 239.987 865.753 244.655C828.161 251.303 789.777 256.497 749.473 264.103C735.284 266.781 720.955 269.785 706.52 272.772C645.434 285.15 578.266 285.728 520.728 296.65C505.666 299.507 491.252 303.032 477.605 307.584C423.611 325.593 373.067 355.962 329.266 395.398C321.742 402.149 314.367 409.205 307.085 416.49C281.107 442.484 256.247 471.373 230.117 499.57C214.574 516.364 199.234 534.683 180.055 545.912C168.155 552.889 155.103 556.619 140.219 556.511C125.851 556.406 112.551 553.663 98.3329 551.536C49.4292 544.228 -11.3648 551.596 -52.3967 584.123" stroke="#2EA7E0" stroke-width="0.552088" stroke-miterlimit="10"/>
<path d="M1821.01 -194.109C1776 -109.869 1710.31 -30.1167 1627.32 27.7315C1589.35 54.2018 1548.25 70.0861 1508.42 92.5749C1462.68 118.393 1413.34 135.752 1362.62 149.587C1327.91 159.069 1292.49 166.835 1256.99 174.302C1186.99 189.02 1116.55 202.881 1049.1 214.4C1009.67 221.135 971.401 227.418 934.509 233.26C907.927 237.467 881.19 241.742 854.264 245.479C815.87 250.813 776.743 254.635 735.657 261.479C721.21 263.886 706.636 266.698 691.959 269.567C629.762 281.482 561.917 283.811 503.903 296.793C488.745 300.186 474.252 304.26 460.513 309.342C406.329 329.399 356.021 361.788 312.665 402.991C305.221 410.04 297.927 417.395 290.72 424.971C265.013 451.995 240.37 481.811 214.112 510.577C198.486 527.713 182.905 546.154 163.453 557.667C151.378 564.823 138.154 568.771 123.183 569.05C108.606 569.322 95.022 567.044 80.53 565.281C30.7363 559.227 -30.5404 566.475 -72.6087 598.848" stroke="#2EA7E0" stroke-width="0.552088" stroke-miterlimit="10"/>
<path d="M1817.52 -191.401C1774.68 -106.776 1710.07 -26.6423 1627.59 30.9379C1589 57.8812 1547.14 73.5589 1506.83 96.7781C1460.69 123.353 1410.87 141.568 1359.59 156.055C1324.48 165.989 1288.63 174.108 1252.65 181.738C1181.72 196.781 1110.19 210.216 1041.53 220.568C1001.4 226.62 962.396 231.971 924.737 236.705C897.553 240.124 870.247 243.493 842.788 246.304C803.595 250.318 763.723 252.774 721.857 258.854C707.158 260.991 692.33 263.608 677.415 266.362C614.104 277.816 545.583 281.887 487.095 296.936C471.845 300.859 457.268 305.484 443.438 311.105C389.069 333.204 338.989 367.619 296.081 410.589C288.715 417.941 281.502 425.594 274.372 433.455C248.936 461.511 224.515 492.248 198.125 521.588C182.417 539.07 166.595 557.633 146.869 569.426C134.619 576.761 121.224 580.932 106.161 581.595C91.3788 582.243 77.5034 580.435 62.7418 579.036C12.0582 574.235 -49.7066 581.361 -92.801 613.585" stroke="#2EA7E0" stroke-width="0.552088" stroke-miterlimit="10"/>
<path d="M1814.03 -188.695C1773.37 -103.686 1709.94 -23.0082 1627.86 34.1425C1588.7 61.6407 1546.01 77.0299 1505.23 100.975C1458.69 128.306 1408.39 147.377 1356.54 162.517C1321.05 172.897 1284.76 181.37 1248.3 189.172C1176.44 204.542 1103.81 217.551 1033.96 226.73C993.118 232.096 953.38 236.514 914.95 240.145C887.163 242.767 859.29 245.239 831.303 247.126C791.309 249.826 750.693 250.912 708.045 256.229C693.094 258.095 678.011 260.516 662.855 263.158C598.433 274.149 529.231 279.962 470.271 297.083C454.93 301.541 440.263 306.713 426.351 312.867C371.79 337.005 321.948 373.449 279.483 418.181C272.198 425.831 265.061 433.783 258.007 441.936C232.842 471.022 208.638 502.681 182.119 532.591C166.328 550.419 150.262 569.105 130.27 581.176C117.848 588.685 104.28 593.083 89.1274 594.125C74.1413 595.154 59.9757 593.78 44.9422 592.776C-6.62654 589.126 -68.8791 596.234 -113.01 628.305" stroke="#2EA7E0" stroke-width="0.552088" stroke-miterlimit="10"/>
<path d="M1810.53 -185.99C1772.05 -100.592 1709.69 -19.5361 1628.12 37.3508C1588.35 65.321 1544.9 80.5035 1503.64 105.18C1456.69 133.263 1405.92 153.19 1353.5 168.991C1317.61 179.823 1280.89 188.65 1243.96 196.615C1171.16 212.31 1097.43 224.898 1026.38 232.905C984.844 237.588 944.366 241.07 905.17 243.597C876.78 245.427 848.343 246.992 819.819 247.958C779.026 249.338 737.665 249.058 694.238 253.611C679.034 255.206 663.701 257.432 648.304 259.96C582.767 270.489 512.884 278.037 453.46 297.232C438.022 302.221 423.275 307.938 409.272 314.631C354.516 340.805 304.916 379.281 262.895 425.78C255.688 433.734 248.635 441.979 241.654 450.418C216.761 480.535 192.778 513.116 166.127 543.6C150.254 561.774 133.946 580.577 113.681 592.932C101.083 600.621 87.3454 605.246 72.1044 606.666C56.9154 608.08 42.4556 607.163 27.1524 606.523C-25.3063 604.127 -88.0459 611.116 -133.208 643.036" stroke="#2EA7E0" stroke-width="0.552088" stroke-miterlimit="10"/>
<path d="M1807.05 -183.281C1770.74 -97.4996 1709.45 -16.0655 1628.4 40.5576C1588.01 69.005 1543.78 83.9725 1502.06 109.38C1454.7 138.214 1403.45 159.002 1350.47 175.455C1314.18 186.735 1277.03 195.919 1239.62 204.051C1165.89 220.073 1091.07 232.234 1018.82 239.073C976.577 243.07 935.368 245.613 895.403 247.041C866.409 248.075 837.405 248.743 808.352 248.781C766.756 248.839 724.655 247.2 680.445 250.991C664.984 252.315 649.4 254.345 633.761 256.76C567.11 266.827 496.545 276.109 436.653 297.38C421.122 302.894 406.288 309.163 392.198 316.394C337.244 344.595 287.888 385.111 246.315 433.373C239.184 441.626 232.212 450.169 225.311 458.898C200.688 490.046 176.923 523.554 150.147 554.601C134.192 573.121 117.638 592.048 97.1041 604.682C84.3309 612.549 70.4284 617.405 55.0892 619.201C39.6981 621.004 24.944 620.545 9.37111 620.267C-43.9827 619.122 -107.201 625.99 -153.393 657.764" stroke="#2EA7E0" stroke-width="0.552088" stroke-miterlimit="10"/>
<path d="M1803.55 -180.576C1769.43 -94.4105 1709.21 -12.5985 1628.66 43.7618C1587.65 72.682 1542.66 87.4397 1500.46 113.581C1452.7 143.167 1400.96 164.817 1347.42 181.922C1310.74 193.653 1273.15 203.191 1235.27 211.486C1160.61 227.833 1084.69 239.573 1011.23 245.236C968.292 248.55 926.342 250.153 885.612 250.482C856.019 250.718 826.442 250.485 796.858 249.605C754.463 248.344 711.617 245.344 666.628 248.366C650.914 249.42 635.077 251.255 619.2 253.555C551.439 263.16 480.187 274.176 419.828 297.527C404.201 303.572 389.286 310.387 375.106 318.156C319.949 348.385 270.838 390.942 229.714 440.97C222.665 449.525 215.769 458.368 208.946 467.382C184.595 499.565 161.046 533.991 134.142 565.612C118.105 584.478 101.311 603.526 80.5033 616.444C67.5547 624.491 53.4834 629.578 38.0545 631.748C22.457 633.941 7.4121 633.934 -8.42955 634.025C-62.6733 634.134 -126.379 640.883 -173.603 672.501" stroke="#2EA7E0" stroke-width="0.552088" stroke-miterlimit="10"/>
<path d="M1800.07 -177.872C1768.11 -91.3175 1708.96 -9.12738 1628.93 46.964C1587.3 76.3613 1541.54 90.904 1498.87 117.776C1450.7 148.115 1398.49 170.624 1344.38 188.381C1307.31 200.56 1269.29 210.455 1230.93 218.918C1155.33 235.591 1078.32 246.905 1003.67 251.399C960.024 254.027 917.344 254.692 875.843 253.921C845.647 253.362 815.507 252.226 785.386 250.424C742.192 247.84 698.602 243.482 652.828 245.737C636.859 246.525 620.774 248.159 604.652 250.348C535.776 259.49 463.837 272.237 403.016 297.666C387.295 304.238 372.293 311.604 358.032 319.915C302.668 352.173 253.81 396.768 213.129 448.559C206.156 457.413 199.346 466.553 192.593 475.859C168.509 509.074 145.186 544.421 118.15 576.616C102.034 595.827 84.9899 614.995 63.9138 628.196C50.7899 636.422 36.5507 641.744 21.0302 644.28C5.23163 646.867 -10.1085 647.313 -26.2207 647.762C-81.3586 649.126 -145.543 655.754 -193.798 687.221" stroke="#2EA7E0" stroke-width="0.552088" stroke-miterlimit="10"/>
<path d="M1796.57 -175.162C1766.8 -88.2237 1708.72 -5.65562 1629.2 50.1771C1586.95 80.0473 1540.42 94.3749 1497.28 121.986C1448.7 153.072 1396.01 176.447 1341.34 194.86C1303.88 207.49 1265.42 217.74 1226.58 226.366C1150.05 243.364 1071.94 254.252 996.093 257.579C951.746 259.524 908.329 259.243 866.056 257.379C835.26 256.022 804.552 253.985 773.898 251.261C729.91 247.352 685.567 241.638 639.014 243.125C622.792 243.643 606.453 245.082 590.093 247.156C520.107 255.835 447.476 270.31 386.193 297.822C370.375 304.925 355.284 312.838 340.942 321.686C285.37 355.964 236.766 402.606 196.53 456.164C189.634 465.322 182.904 474.757 176.229 484.352C152.416 518.598 129.31 554.867 102.146 587.631C85.948 607.189 68.6629 626.478 47.3129 639.959C34.017 648.36 19.6106 653.921 3.99106 656.829C-12.0045 659.808 -27.6448 660.704 -44.0216 661.52C-100.054 664.139 -164.72 670.647 -214.008 701.959" stroke="#2EA7E0" stroke-width="0.552088" stroke-miterlimit="10"/>
<path d="M1793.08 -172.457C1765.49 -85.1348 1708.48 -2.18446 1629.47 53.3802C1586.6 83.7267 1539.3 97.8402 1495.68 126.182C1446.7 158.016 1393.54 182.254 1338.3 201.321C1300.44 214.398 1261.55 225.001 1222.23 233.799C1144.77 251.124 1065.58 261.589 988.52 263.74C943.469 264.999 899.319 263.775 856.278 260.816C824.882 258.658 793.602 255.724 762.418 252.082C717.63 246.849 672.544 239.783 625.21 240.498C608.732 240.749 592.143 241.992 575.542 243.953C504.44 252.171 431.121 268.368 369.381 297.966C353.466 305.596 338.291 314.055 323.863 323.445C268.078 359.745 219.733 408.433 179.946 463.758C173.131 473.214 166.477 482.947 159.882 492.832C136.339 528.11 113.451 565.301 86.1588 598.638C69.8783 618.542 52.3482 637.954 30.7284 651.714C17.2571 660.294 2.68808 666.094 -13.0273 669.369C-29.2231 672.745 -45.1595 674.09 -61.8068 675.265C-118.729 679.138 -183.884 685.522 -234.197 716.687" stroke="#2EA7E0" stroke-width="0.552088" stroke-miterlimit="10"/>
<path d="M1789.59 -169.752C1764.18 -82.0418 1708.24 1.2822 1629.74 56.584C1586.25 87.4033 1538.12 101.216 1494.09 130.378C1444.64 162.867 1391.06 188.059 1335.26 207.782C1297.01 221.31 1257.69 232.267 1217.89 241.228C1139.5 258.878 1059.2 268.918 980.947 269.901C935.197 270.477 890.314 268.307 846.499 264.254C814.504 261.294 782.657 257.463 750.94 252.899C705.357 246.341 659.521 238.017 611.405 237.866C594.672 237.879 577.835 238.894 560.992 240.742C488.78 248.496 414.764 266.422 352.568 298.106C336.556 306.263 321.297 315.273 306.782 325.201C250.785 363.522 202.695 414.258 163.355 471.344C156.617 481.099 150.049 491.134 143.523 501.307C120.252 537.615 97.5852 575.732 70.1607 609.639C53.7978 629.889 36.0261 649.419 14.1332 663.463C0.486628 672.222 -14.2453 678.26 -30.0564 681.902C-46.4524 685.676 -62.6849 687.47 -79.6019 689.009C-137.418 694.136 -203.052 700.4 -254.401 731.414" stroke="#2EA7E0" stroke-width="0.552088" stroke-miterlimit="10"/>
<path d="M1786.1 -167.043C1762.86 -78.9472 1707.99 4.75392 1630 59.792C1585.9 91.0884 1537 104.695 1492.5 134.582C1442.64 167.828 1388.58 193.876 1332.22 214.251C1293.58 228.227 1253.82 239.542 1213.55 248.67C1134.22 266.647 1052.83 276.264 973.377 276.075C926.922 275.965 881.312 272.851 836.724 267.705C804.128 263.943 771.724 259.155 739.461 253.729C693.096 245.764 646.492 236.159 597.603 235.248C580.617 234.989 563.526 235.809 546.441 237.544C473.115 244.837 398.406 264.485 335.753 298.256C319.643 306.939 304.296 316.497 289.705 326.969C233.49 367.309 185.664 420.093 146.769 478.947C140.108 489.006 133.62 499.335 127.173 509.797C104.173 547.136 81.7232 586.175 54.1701 620.652C37.7249 641.248 19.7124 660.899 -2.45446 675.224C-16.2764 684.162 -31.1711 690.439 -47.0831 694.444C-63.6743 698.619 -80.2088 700.854 -97.3946 702.761C-156.101 709.142 -222.222 715.282 -274.602 746.146" stroke="#2EA7E0" stroke-width="0.552088" stroke-miterlimit="10"/>
<path d="M1782.61 -164.339C1761.55 -75.8592 1707.75 8.22419 1630.28 62.9985C1585.55 94.7678 1535.89 108.168 1490.91 138.782C1440.65 172.787 1386.11 199.688 1329.18 220.719C1290.15 235.146 1249.96 246.815 1209.21 256.107C1128.95 274.41 1046.46 283.601 965.806 282.244C918.651 281.451 872.307 277.387 826.943 271.152C793.752 266.588 760.777 260.908 727.977 254.56C680.814 245.276 633.464 234.304 583.792 232.63C566.549 232.101 549.208 232.726 531.886 234.346C457.449 241.176 382.037 262.545 318.933 298.406C302.726 307.616 287.29 317.721 272.618 328.735C216.181 371.093 168.624 425.927 130.171 486.543C123.591 496.9 117.18 507.528 110.812 518.28C88.0829 556.65 65.8502 596.612 38.1737 631.661C21.6462 652.602 3.38868 672.377 -19.0479 686.981C-33.0452 696.098 -48.1017 702.618 -64.1105 706.985C-80.8959 711.565 -97.7325 714.242 -115.189 716.508C-174.789 724.144 -241.389 730.163 -294.801 760.876" stroke="#2EA7E0" stroke-width="0.552088" stroke-miterlimit="10"/>
<path d="M1779.12 -161.633C1760.23 -72.7658 1707.51 11.6913 1630.54 66.2028C1585.2 98.4492 1534.76 111.638 1489.32 142.983C1438.65 177.744 1383.63 205.502 1326.14 227.185C1286.71 242.064 1246.09 254.086 1204.86 263.545C1123.67 282.173 1040.09 290.939 958.233 288.41C910.374 286.93 863.302 281.922 817.166 274.594C783.374 269.228 749.834 262.659 716.5 255.38C668.544 244.78 620.438 232.44 569.992 230.006C552.497 229.206 534.902 229.636 517.338 231.143C441.787 237.511 365.678 260.604 302.126 298.549C285.817 308.287 270.296 318.939 255.543 330.493C198.883 374.866 151.595 431.753 113.587 494.136C107.084 504.797 100.757 515.718 94.4635 526.761C72.0066 566.166 49.9943 607.045 22.1859 642.668C5.57603 663.956 -12.9231 683.848 -35.6328 698.736C-49.8021 708.027 -65.0187 714.798 -81.1292 719.525C-98.1098 724.506 -115.248 727.624 -132.974 730.258C-193.468 739.149 -260.551 745.047 -314.995 775.605" stroke="#2EA7E0" stroke-width="0.552088" stroke-miterlimit="10"/>
<path d="M1775.63 -158.924C1758.92 -69.6722 1707.26 15.1671 1630.81 69.4105C1584.85 102.13 1533.64 115.113 1487.73 147.183C1436.65 182.701 1381.15 211.315 1323.09 233.651C1283.27 248.977 1242.22 261.357 1200.51 270.984C1118.38 289.934 1033.71 298.282 950.654 294.581C902.096 292.419 854.305 286.386 807.382 278.046C773.005 271.823 738.884 264.417 705.012 256.212C656.259 244.297 607.406 230.583 556.178 227.39C538.425 226.32 520.584 226.553 502.779 227.947C426.117 233.852 349.233 258.552 285.303 298.705C268.877 308.939 253.287 320.168 238.453 332.264C181.567 378.657 134.547 437.592 96.9909 501.737C90.5649 512.697 84.319 523.92 78.0997 535.25C55.9138 575.686 34.1185 617.487 6.18165 653.679C-10.5115 675.309 -29.2547 695.328 -52.2342 710.495C-66.5788 719.965 -81.9531 726.979 -98.1688 732.069C-115.338 737.459 -132.784 741.015 -150.779 744.012C-212.164 754.157 -279.73 759.931 -335.204 790.343" stroke="#2EA7E0" stroke-width="0.552088" stroke-miterlimit="10"/>
<path d="M1772.14 -156.219C1757.6 -66.5825 1707.02 18.6348 1631.08 72.6144C1584.5 105.81 1532.53 118.587 1486.14 151.383C1434.66 187.657 1378.67 217.124 1320.05 240.117C1279.84 255.894 1238.35 268.628 1196.17 278.418C1113.11 297.693 1027.34 305.616 943.078 300.747C893.819 297.898 845.299 290.935 797.6 281.489C762.625 274.473 727.936 266.165 693.532 257.038C643.986 243.808 594.377 228.725 542.37 224.768C524.364 223.423 506.269 223.465 488.227 224.745C410.451 230.188 332.877 256.633 268.487 298.85C251.965 309.619 236.261 321.362 221.374 334.025C164.161 382.321 117.514 443.42 80.4023 509.331C74.0579 520.594 67.8876 532.113 61.7464 543.727C39.8316 585.194 18.2584 627.922 -9.81127 664.683C-26.5868 686.659 -45.5708 706.801 -68.8242 722.247C-83.3442 731.897 -98.8751 739.157 -115.194 744.602C-132.553 750.396 -150.306 754.39 -168.567 757.749C-230.845 769.149 -298.895 774.804 -355.4 805.064" stroke="#2EA7E0" stroke-width="0.552088" stroke-miterlimit="10"/>
<path d="M1768.65 -153.513C1756.29 -63.4888 1706.78 22.1023 1631.35 75.8181C1584.15 109.487 1531.41 122.057 1484.54 155.581C1432.66 192.615 1376.2 222.933 1317.01 246.579C1276.4 262.803 1234.48 275.891 1191.82 285.852C1107.83 305.453 1020.96 312.95 935.505 306.909C885.543 303.377 836.293 295.481 787.823 284.927C752.25 277.122 716.989 267.914 682.05 257.856C631.707 243.31 581.351 226.857 528.566 222.137C510.303 220.522 491.958 220.368 473.674 221.534C394.787 226.515 316.522 254.709 251.669 298.987C235.051 310.288 219.259 322.581 204.29 335.781C146.876 386.132 100.476 449.24 63.8081 516.918C57.5402 528.48 51.4549 540.296 45.3885 552.202C23.7447 594.7 2.3886 638.349 -25.8087 675.684C-42.6666 698.006 -61.8965 718.266 -85.4187 733.996C-100.114 743.824 -115.798 751.33 -132.222 757.135C-149.771 763.338 -167.831 767.77 -186.361 771.493C-249.531 784.142 -318.062 789.681 -375.599 819.786" stroke="#2EA7E0" stroke-width="0.552088" stroke-miterlimit="10"/>
<path d="M1765.16 -150.805C1754.98 -60.3966 1706.54 25.5768 1631.62 79.0298C1583.8 113.175 1530.29 125.535 1482.95 159.785C1430.66 197.575 1373.72 228.75 1313.97 253.052C1272.97 269.728 1230.61 283.169 1187.48 293.293C1102.55 313.22 1014.59 320.295 927.931 313.083C877.268 308.865 827.284 300.039 778.039 288.379C741.867 279.781 706.038 269.671 670.562 258.687C619.426 242.826 568.314 225 514.75 219.52C496.235 217.634 477.641 217.289 459.115 218.337C379.113 222.856 300.16 252.799 234.846 299.142C218.132 310.978 202.257 323.823 187.2 337.552C129.58 389.958 83.4317 455.078 47.2086 524.524C41.0172 536.384 35.0127 548.499 29.0252 560.694C7.65249 604.223 -13.4866 648.795 -41.8125 686.699C-58.7527 709.367 -78.2233 729.749 -102.02 745.759C-116.89 755.766 -132.715 763.55 -149.261 769.683C-166.987 776.328 -185.367 781.16 -204.166 785.251C-268.23 799.155 -337.244 804.574 -395.812 834.528" stroke="#2EA7E0" stroke-width="0.552088" stroke-miterlimit="10"/>
<path d="M1761.67 -148.1C1753.66 -57.3071 1706.29 29.0442 1631.88 82.2335C1583.45 116.852 1529.17 129.004 1481.36 163.985C1428.67 202.532 1371.25 234.563 1310.93 259.517C1188.07 310.349 1052.86 331.89 920.359 319.248C831.233 310.744 744.088 287.622 659.086 259.508C607.152 242.332 555.293 223.136 500.951 216.892C401.048 205.414 299.033 239.682 218.038 299.281C137.043 358.881 75.7705 442.252 30.6278 532.112C-10.342 613.656 -43.031 706.353 -118.601 757.509C-205.028 816.013 -322.655 802.567 -415.999 849.248" stroke="#2EA7E0" stroke-width="0.552088" stroke-miterlimit="10"/>
<path d="M1678.14 432.77C1656.41 324.744 1595.53 225.028 1509.37 156.346C1484.86 136.806 1457.24 119.267 1426.19 114.984C1336.46 102.615 1261.25 186.97 1199 238.997C1123.87 301.777 1050.15 366.511 970.049 423.016C925.081 454.74 870.802 485.067 817.74 470.479C764.007 455.702 733.272 401.363 702.53 354.882C666.71 300.719 622.547 250.583 566.381 217.996C510.215 185.408 440.763 172.016 379.069 192.282C330.757 208.153 290.992 242.766 255.745 279.423C163.136 375.742 91.8212 492.423 48.336 618.771" stroke="#2EA7E0" stroke-width="0.552088" stroke-miterlimit="10"/>
<path d="M1679.86 427.538C1660.66 332.063 1607.44 245.891 1531.12 178.466C1524.04 172.204 1516.81 166.099 1509.39 160.246C1484.97 141.023 1457.61 123.728 1426.95 119.278C1338.26 106.373 1263.69 187.014 1201.25 237.685C1145.89 282.609 1091.35 329.217 1033.94 373.104C1014.04 388.372 993.855 403.29 973.268 417.69C928.609 448.922 874.967 478.862 822.506 465.349C769.386 451.665 738.527 399.706 707.652 355.327C671.671 303.619 627.605 255.773 571.875 224.807C552.471 214.026 531.502 205.486 509.825 199.774C469.261 189.074 426.211 188.262 386.333 201.189C338.433 216.716 298.781 250.243 263.528 285.569C192.148 357.048 133.151 439.521 89.1499 529.465C76.0174 556.303 64.2234 583.8 53.8478 611.872" stroke="#2EA7E0" stroke-width="0.552088" stroke-miterlimit="10"/>
<path d="M1681.58 422.312C1663.02 330.02 1609.11 249.391 1531.04 182.037C1523.95 175.926 1516.78 169.907 1509.4 164.156C1485.08 145.255 1457.98 128.198 1427.7 123.578C1340.05 110.134 1266.13 187.063 1203.5 236.383C1148.49 279.707 1094.3 325.313 1036.79 368.55C1016.99 383.534 996.929 398.2 976.484 412.374C932.136 443.118 879.127 472.667 827.27 460.23C774.762 447.634 743.779 398.055 712.776 355.782C676.638 306.527 632.661 260.972 577.372 231.632C558.119 221.419 537.344 213.357 515.883 208.017C475.735 198.002 433.139 197.468 393.605 210.108C346.117 225.295 306.581 257.732 271.317 291.723C199.881 360.496 140.587 439.186 95.661 525.615C82.2539 551.406 70.1275 577.876 59.3657 604.981" stroke="#2EA7E0" stroke-width="0.552088" stroke-miterlimit="10"/>
<path d="M1683.3 417.081C1665.37 327.972 1610.8 252.881 1530.96 185.604C1523.87 179.634 1516.76 173.706 1509.42 168.061C1485.2 149.477 1458.35 132.668 1428.47 127.876C1341.86 113.897 1268.6 187.111 1205.76 235.075C1151.1 276.801 1097.15 321.267 1039.64 363.994C1019.92 378.651 1000.01 393.107 979.709 407.056C935.67 437.308 883.294 466.47 832.046 455.109C780.15 443.6 749.045 396.406 717.908 356.235C681.609 309.435 637.729 266.169 582.88 238.45C563.774 228.806 543.198 221.222 521.952 216.249C482.215 206.92 440.081 206.661 400.884 219.022C353.808 233.869 314.388 265.215 279.113 297.871C207.618 363.944 148.029 438.844 102.18 521.765C88.4988 546.507 76.0442 571.949 64.897 598.093" stroke="#2EA7E0" stroke-width="0.552088" stroke-miterlimit="10"/>
<path d="M1685.01 411.855C1667.73 325.928 1612.5 256.363 1530.87 189.175C1523.79 183.351 1516.72 177.51 1509.43 171.971C1485.3 153.709 1458.71 137.139 1429.22 132.176C1343.65 117.661 1271.06 187.167 1208.01 233.774C1153.72 273.907 1100.07 317.321 1042.48 359.441C1022.86 373.802 1003.09 388.015 982.922 401.74C939.192 431.505 887.454 460.279 836.806 449.99C785.523 439.574 754.294 394.759 723.024 356.691C686.564 312.345 642.78 271.364 588.368 245.272C569.412 236.191 549.035 229.089 528 224.485C488.68 215.845 447.004 215.863 408.141 227.935C361.473 242.438 322.169 272.699 286.888 304.019C215.336 367.385 155.45 438.502 108.673 517.91C94.7124 541.605 81.9298 566.02 70.3963 591.197" stroke="#2EA7E0" stroke-width="0.552088" stroke-miterlimit="10"/>
<path d="M1686.73 406.625C1670.09 323.881 1614.22 259.833 1530.78 192.743C1523.71 187.059 1516.69 181.315 1509.44 175.877C1485.41 157.932 1459.08 141.607 1429.98 136.476C1345.45 121.426 1273.54 187.226 1210.26 232.473C1156.35 271.026 1102.99 313.377 1045.33 354.891C1025.8 368.956 1006.17 382.929 986.143 396.428C942.723 425.701 891.618 454.088 841.575 444.875C790.903 435.547 759.556 393.115 728.148 357.15C691.531 315.255 647.84 276.567 593.865 252.102C575.06 243.589 554.878 236.966 534.058 232.729C495.154 224.774 453.932 225.069 415.413 236.86C369.157 251.023 329.971 280.197 294.678 310.183C223.071 370.847 162.887 438.176 115.187 514.075C100.951 536.722 87.8364 560.109 75.9166 584.32" stroke="#2EA7E0" stroke-width="0.552088" stroke-miterlimit="10"/>
<path d="M1688.45 401.394C1672.45 321.832 1615.96 263.284 1530.7 196.304C1523.64 190.76 1516.67 185.109 1509.46 179.777C1485.53 162.154 1459.45 146.067 1430.74 140.766C1347.25 125.181 1276.04 187.275 1212.52 231.157C1158.99 268.135 1105.91 309.42 1048.18 350.323C1028.75 364.092 1009.24 377.824 989.36 391.093C946.25 419.879 895.782 447.874 846.339 439.738C796.279 431.497 764.809 391.45 733.268 357.587C696.49 318.146 652.896 281.748 599.357 258.906C580.703 250.96 560.72 244.814 540.112 240.95C501.619 233.682 460.859 234.251 422.676 245.758C376.832 259.581 337.758 287.665 302.458 316.316C230.795 374.274 170.314 437.819 121.689 510.205C107.175 531.805 93.7316 554.165 81.4298 577.407" stroke="#2EA7E0" stroke-width="0.552088" stroke-miterlimit="10"/>
<path d="M1690.17 396.168C1674.8 319.789 1617.72 266.732 1530.61 199.877C1523.56 194.468 1516.63 188.914 1509.47 183.688C1485.64 166.382 1459.81 150.539 1431.49 145.07C1349.04 128.946 1278.55 187.351 1214.77 229.859C1161.65 265.269 1108.84 305.483 1051.03 345.778C1031.69 359.256 1012.31 372.738 992.579 385.785C949.778 414.08 899.943 441.688 851.105 434.628C801.658 427.479 770.063 389.808 738.394 358.051C701.459 321.063 657.958 286.955 604.86 265.738C586.356 258.356 566.568 252.693 546.175 249.197C508.098 242.613 467.797 243.464 429.95 254.687C384.517 268.165 345.559 295.163 310.245 322.48C238.526 377.735 177.747 437.493 128.194 506.37C113.406 526.922 99.63 548.256 86.942 570.532" stroke="#2EA7E0" stroke-width="0.552088" stroke-miterlimit="10"/>
<path d="M1691.89 390.936C1677.16 317.74 1619.51 270.157 1530.53 203.442C1523.49 198.168 1516.61 192.716 1509.49 187.592C1485.75 170.608 1460.18 155.008 1432.25 149.368C1350.85 132.709 1281.07 187.42 1217.03 228.552C1164.32 262.403 1111.77 301.537 1053.88 341.218C1034.65 354.399 1015.4 367.641 995.798 380.463C953.308 408.27 904.11 435.486 855.873 429.507C807.037 423.446 775.32 388.159 743.518 358.505C706.421 323.972 663.014 292.154 610.355 272.559C592.003 265.744 572.413 260.559 552.232 257.431C514.571 251.537 474.727 252.659 437.216 263.602C392.195 276.74 353.354 302.648 318.03 328.635C246.254 381.184 185.178 437.158 134.701 502.522C119.633 522.027 105.529 542.328 92.4563 563.646" stroke="#2EA7E0" stroke-width="0.552088" stroke-miterlimit="10"/>
<path d="M1693.6 385.706C1679.52 315.692 1621.3 273.566 1530.44 207.009C1523.42 201.869 1516.58 196.516 1509.51 191.498C1485.86 174.83 1460.55 159.475 1433.01 153.663C1352.64 136.469 1283.61 187.498 1219.28 227.245C1167 259.549 1114.7 297.6 1056.73 336.663C1037.59 349.557 1018.47 362.549 999.019 375.146C956.838 402.461 908.273 429.29 860.641 424.387C812.417 419.414 780.577 386.512 748.642 358.959C711.384 326.881 668.074 297.352 615.852 279.383C597.65 273.137 578.255 268.43 558.289 265.67C521.039 260.461 481.655 261.865 444.486 272.518C399.877 285.311 361.149 310.133 325.818 334.785C253.987 384.632 192.612 436.818 141.212 498.672C125.87 517.13 111.433 536.404 97.9784 556.754" stroke="#2EA7E0" stroke-width="0.552088" stroke-miterlimit="10"/>
<path d="M1695.32 380.48C1681.88 313.648 1623.12 276.967 1530.36 210.577C1523.35 205.566 1516.55 200.315 1509.52 195.4C1485.97 179.054 1460.91 163.938 1433.77 157.959C1354.44 140.23 1286.15 187.583 1221.53 225.936C1169.69 256.704 1117.63 293.659 1059.57 332.102C1040.54 344.703 1021.54 357.452 1002.23 369.823C960.358 396.65 912.43 423.087 865.399 419.261C817.787 415.376 785.824 384.858 753.755 359.408C716.341 329.784 673.123 302.545 621.338 286.198C603.286 280.515 584.085 276.287 564.335 273.898C527.501 269.375 488.575 271.054 451.743 281.428C407.541 293.882 368.933 317.613 333.591 340.929C261.704 388.07 200.031 436.469 147.703 494.815C132.087 512.224 117.317 530.471 103.476 549.855" stroke="#2EA7E0" stroke-width="0.552088" stroke-miterlimit="10"/>
<path d="M1697.04 375.249C1684.24 311.6 1624.96 280.341 1530.27 214.143C1523.29 209.262 1516.52 204.119 1509.53 199.304C1486.08 183.276 1461.28 168.403 1434.53 162.253C1356.24 143.988 1288.72 187.68 1223.78 224.629C1172.4 253.87 1120.57 289.72 1062.42 327.546C1043.49 339.859 1024.62 352.359 1005.45 364.504C963.892 390.84 916.599 416.894 870.176 414.139C823.176 411.345 791.094 383.202 758.889 359.864C721.312 332.691 678.192 307.745 626.847 293.02C608.947 287.904 589.944 284.154 570.406 282.138C533.988 278.3 495.52 280.256 459.023 290.345C415.234 302.459 376.738 325.1 341.39 347.086C269.447 391.524 207.476 436.135 154.224 490.967C138.328 507.33 123.231 524.549 109.008 542.965" stroke="#2EA7E0" stroke-width="0.552088" stroke-miterlimit="10"/>
<path d="M1698.75 370.023C1686.59 309.558 1626.81 283.7 1530.18 217.715C1523.22 212.962 1516.49 207.908 1509.55 203.215C1486.22 187.462 1461.65 172.879 1435.28 166.557C1358.04 147.753 1291.29 187.794 1226.04 223.331C1175.12 251.062 1123.52 285.799 1065.27 322.996C1046.44 335.02 1027.7 347.267 1008.67 359.188C967.419 385.037 920.762 410.699 874.939 409.02C828.552 407.315 796.346 381.556 764.012 360.319C726.275 335.6 683.252 312.944 632.344 299.845C614.594 295.297 595.786 292.026 576.463 290.377C540.457 287.229 502.447 289.462 466.294 299.265C422.916 311.034 384.537 332.59 349.178 353.24C277.179 394.973 214.911 435.8 160.736 487.123C144.565 502.437 129.136 518.63 114.528 536.084" stroke="#2EA7E0" stroke-width="0.552088" stroke-miterlimit="10"/>
<path d="M1700.47 364.792C1688.95 307.509 1628.68 287.03 1530.1 221.282C1523.16 216.653 1516.47 211.711 1509.56 207.12C1486.34 191.683 1462.01 177.345 1436.04 170.852C1359.83 151.513 1293.88 187.918 1228.29 222.02C1177.85 248.251 1126.45 281.865 1068.12 318.437C1049.4 330.172 1030.78 342.171 1011.89 353.867C970.948 379.223 924.925 404.498 879.707 403.896C833.931 403.278 801.603 379.903 769.135 360.769C731.241 338.504 688.311 318.137 637.839 306.661C620.235 302.678 601.631 299.887 582.515 298.608C546.925 296.145 509.373 298.654 473.555 308.173C430.589 319.602 392.326 340.067 356.956 359.383C284.902 398.413 222.335 435.453 167.232 483.263C150.782 497.531 135.025 512.696 120.03 529.183" stroke="#2EA7E0" stroke-width="0.552088" stroke-miterlimit="10"/>
<path d="M1702.19 359.561C1691.31 305.461 1630.56 290.341 1530.01 224.848C1523.1 220.344 1516.43 215.511 1509.58 211.026C1486.45 195.906 1462.38 181.811 1436.8 175.151C1361.63 155.277 1296.48 188.056 1230.54 220.718C1180.59 245.465 1129.4 277.942 1070.96 313.883C1052.35 325.329 1033.85 337.08 1015.11 348.55C974.475 373.419 929.088 398.302 884.471 398.776C839.307 399.25 806.856 378.256 774.255 361.224C736.199 341.414 693.362 323.337 643.331 313.487C625.878 310.071 607.468 307.759 588.568 306.848C553.393 305.07 516.299 307.855 480.817 317.094C438.264 328.183 400.113 347.558 364.733 365.544C292.622 401.868 229.759 435.124 173.732 479.425C157.008 492.644 140.918 506.783 125.541 522.302" stroke="#2EA7E0" stroke-width="0.552088" stroke-miterlimit="10"/>
<path d="M1703.91 354.334C1693.67 303.416 1632.47 293.629 1529.93 228.414C1523.04 224.034 1516.41 219.309 1509.6 214.93C1486.57 200.127 1462.75 186.277 1437.56 179.445C1363.43 159.036 1299.1 188.209 1232.8 219.407C1183.34 242.681 1132.34 274.016 1073.81 309.324C1055.3 320.487 1036.93 331.984 1018.33 343.228C978.004 367.606 933.25 392.102 889.238 393.652C844.686 395.214 812.111 376.6 779.378 361.675C741.165 344.318 698.421 328.531 648.83 320.302C631.528 317.454 613.317 315.62 594.629 315.081C559.865 313.989 523.23 317.055 488.092 326.009C445.951 336.753 407.916 355.042 372.525 371.693C300.359 405.315 237.197 434.783 180.246 475.571C163.242 487.739 146.824 500.849 131.062 515.407" stroke="#2EA7E0" stroke-width="0.552088" stroke-miterlimit="10"/>
<path d="M1705.63 349.104C1696.02 301.369 1634.39 296.888 1529.84 231.982C1522.98 227.721 1516.37 223.11 1509.6 218.837C1486.67 204.356 1463.09 190.796 1438.31 183.746C1365.18 162.948 1301.73 188.388 1235.05 218.106C1186.09 239.928 1135.29 270.103 1076.65 304.771C1058.25 315.648 1040 326.894 1021.54 337.912C981.53 361.803 937.413 385.907 894.001 388.533C850.057 391.184 817.364 374.953 784.501 362.129C746.128 347.227 703.481 333.73 654.327 327.127C637.175 324.843 619.159 323.491 600.686 323.32C566.339 322.918 530.161 326.255 495.359 334.925C453.625 345.33 415.707 362.528 380.309 377.844C308.086 408.76 244.627 434.444 186.749 471.724C169.47 482.844 152.72 494.927 136.572 508.522" stroke="#2EA7E0" stroke-width="0.552088" stroke-miterlimit="10"/>
<path d="M1707.35 343.877C1698.39 299.325 1636.32 300.126 1529.76 235.553C1522.92 231.41 1516.35 226.918 1509.63 222.746C1486.79 208.581 1463.47 195.265 1439.08 188.048C1366.99 166.711 1304.37 188.585 1237.31 216.806C1188.88 237.19 1138.25 266.195 1079.51 300.223C1061.22 310.819 1043.09 321.809 1024.77 332.603C985.066 356.001 941.583 379.718 898.777 383.425C855.445 387.168 822.632 373.317 789.632 362.596C751.098 350.149 708.548 338.94 659.83 333.96C642.829 332.243 625.007 331.371 606.75 331.567C572.818 331.849 537.099 335.467 502.632 343.853C461.31 353.914 423.51 370.03 388.101 384.011C315.823 412.225 252.061 434.122 193.263 467.887C175.705 477.961 158.631 489.015 142.097 501.644" stroke="#2EA7E0" stroke-width="0.552088" stroke-miterlimit="10"/>
<path d="M1709.06 338.647C1700.74 297.273 1638.28 303.334 1529.67 239.121C1522.86 235.097 1516.32 230.718 1509.63 226.653C1486.89 212.811 1463.83 199.734 1439.82 192.345C1368.78 170.473 1307.01 188.805 1239.55 215.498C1191.64 234.46 1141.19 262.283 1082.35 295.662C1064.17 305.978 1046.16 316.707 1027.98 327.279C988.587 350.19 945.741 373.52 903.534 378.299C860.814 383.129 827.879 371.662 794.746 363.044C756.054 353.046 713.596 344.128 665.315 340.774C648.465 339.625 630.842 339.23 612.795 339.795C579.275 340.764 544.015 344.658 509.887 352.759C468.977 362.479 431.293 377.505 395.874 390.152C323.539 415.659 259.479 433.768 199.758 464.028C181.926 473.054 164.519 483.082 147.599 494.743" stroke="#2EA7E0" stroke-width="0.552088" stroke-miterlimit="10"/>
<path d="M1710.78 333.416C1703.1 295.224 1640.24 306.507 1529.59 242.683C1522.8 238.772 1516.29 234.517 1509.65 230.552C1487.01 217.027 1464.2 204.194 1440.59 196.638C1370.58 174.227 1309.68 189.041 1241.81 214.189C1194.43 231.748 1144.16 258.379 1085.21 291.106C1067.13 301.141 1049.24 311.614 1031.21 321.956C992.12 344.376 949.908 367.318 908.306 373.174C866.198 379.092 833.139 370.005 799.873 363.493C761.02 355.95 718.66 349.321 670.819 347.593C654.12 347.007 636.692 347.095 618.861 348.032C585.757 349.685 550.955 353.856 517.167 361.676C476.67 371.056 439.097 384.992 403.671 396.304C331.281 419.109 266.923 433.43 206.274 460.178C188.167 468.155 170.428 477.156 153.122 487.852" stroke="#2EA7E0" stroke-width="0.552088" stroke-miterlimit="10"/>
<path d="M1712.5 328.19C1705.46 293.181 1642.23 309.654 1529.5 246.254C1522.75 242.457 1516.26 238.321 1509.67 234.463C1487.12 221.259 1464.56 208.665 1441.35 200.938C1372.38 177.987 1312.35 189.312 1244.07 212.883C1197.22 229.054 1147.11 254.477 1088.05 286.548C1070.09 296.302 1052.32 306.518 1034.42 316.636C995.646 338.568 954.066 361.119 913.073 368.049C871.577 375.06 838.395 368.353 804.996 363.943C765.982 358.855 723.714 354.515 676.314 354.409C659.765 354.391 642.536 354.957 624.917 356.262C592.229 358.605 557.885 363.052 524.432 370.584C484.345 379.619 446.89 392.469 411.454 402.45C339.007 422.549 274.352 433.087 212.779 456.321C194.393 463.251 176.326 471.225 158.638 480.952" stroke="#2EA7E0" stroke-width="0.552088" stroke-miterlimit="10"/>
<path d="M1714.22 322.959C1707.81 291.133 1644.22 312.768 1529.41 249.821C1522.69 246.133 1516.22 242.12 1509.68 238.368C1487.22 225.487 1464.95 213.088 1442.1 205.238C1374.22 181.613 1315.02 189.614 1246.31 211.582C1200.01 226.385 1150.07 250.583 1090.89 281.998C1073.04 291.476 1055.39 301.431 1037.64 311.323C999.173 332.764 958.23 354.927 917.838 362.934C876.954 371.032 843.649 366.71 810.121 364.402C770.949 361.767 728.775 359.718 681.811 361.238C665.414 361.788 648.379 362.832 630.975 364.505C598.699 367.534 564.817 372.256 531.7 379.508C492.022 388.204 454.683 399.964 419.235 408.61C346.733 426.007 281.78 432.757 219.283 452.482C200.623 458.364 182.222 465.307 164.15 474.076" stroke="#2EA7E0" stroke-width="0.552088" stroke-miterlimit="10"/>
<path d="M1715.94 317.733C1710.17 289.089 1646.24 315.851 1529.33 253.392C1522.64 249.818 1516.2 245.928 1509.7 242.278C1487.34 229.719 1465.31 217.559 1442.86 209.536C1376.02 185.373 1317.7 189.944 1248.58 210.279C1202.82 223.736 1153.04 246.695 1093.75 277.443C1076.01 286.644 1058.47 296.339 1040.86 306.007C1002.7 326.959 962.394 348.731 922.606 357.815C882.334 367 848.906 365.062 815.245 364.857C775.912 364.677 733.835 364.916 687.308 368.059C671.056 369.173 654.224 370.694 637.032 372.74C605.171 376.453 571.743 381.453 538.971 388.424C499.705 396.78 462.482 407.449 427.024 414.76C354.465 429.451 289.215 432.417 225.789 448.63C206.85 453.465 188.121 459.38 169.667 467.182" stroke="#2EA7E0" stroke-width="0.552088" stroke-miterlimit="10"/>
<path d="M1717.65 312.502C1712.53 287.041 1648.26 318.894 1529.24 256.955C1522.58 253.489 1516.16 249.724 1509.71 246.179C1487.45 233.941 1465.68 222.02 1443.62 213.832C1377.82 189.133 1320.39 190.305 1250.83 208.968C1205.61 221.098 1156 242.801 1096.59 272.885C1078.96 281.81 1061.54 291.24 1044.07 300.686C1006.23 321.147 966.556 342.531 927.369 352.691C887.71 362.969 854.162 363.406 820.363 365.308C780.87 367.583 738.89 370.111 692.803 374.88C676.703 376.562 660.065 378.561 643.089 380.979C611.64 385.378 578.675 390.658 546.237 397.34C507.383 405.351 470.277 414.934 434.807 420.911C362.193 432.9 296.645 432.078 232.296 444.782C213.082 448.569 194.021 453.457 175.18 460.292" stroke="#2EA7E0" stroke-width="0.552088" stroke-miterlimit="10"/>
<path d="M1719.37 307.271C1714.89 284.992 1650.3 321.9 1529.16 260.522C1522.53 257.161 1516.13 253.538 1509.72 250.085C1487.53 238.21 1466.05 226.487 1444.37 218.131C1379.61 192.897 1323.08 190.705 1253.08 207.667C1208.42 218.486 1158.97 238.928 1099.44 268.33C1081.92 276.982 1064.62 286.149 1047.3 295.369C1009.76 315.342 970.72 336.335 932.137 347.571C893.089 358.937 859.419 361.758 825.487 365.763C785.836 370.487 743.95 375.31 698.299 381.701C682.349 383.95 665.906 386.428 649.146 389.213C618.113 394.302 585.605 399.854 553.504 406.256C515.061 413.927 478.067 422.421 442.592 427.066C369.922 436.348 304.076 431.744 238.803 440.933C219.31 443.674 199.921 447.533 180.694 453.402" stroke="#2EA7E0" stroke-width="0.552088" stroke-miterlimit="10"/>
<path d="M1721.09 302.045C1717.25 282.949 1652.35 324.874 1529.07 264.093C1522.47 260.841 1516.1 257.346 1509.74 253.99C1487.65 242.436 1466.42 230.957 1445.13 222.425C1381.41 196.656 1325.77 191.14 1255.33 206.355C1211.22 215.886 1161.94 235.045 1102.29 263.771C1084.88 272.15 1067.7 281.053 1050.51 290.043C1013.29 309.525 974.886 330.134 936.903 342.443C898.467 354.896 864.674 360.102 830.609 366.208C790.797 373.387 749.007 380.499 703.793 388.512C687.993 391.325 671.749 394.286 655.2 397.439C624.582 403.213 592.53 409.046 560.767 415.16C522.737 422.49 485.859 429.893 450.373 433.204C377.647 439.784 311.503 431.392 245.302 437.073C225.535 438.765 205.814 441.598 186.205 446.504" stroke="#2EA7E0" stroke-width="0.552088" stroke-miterlimit="10"/>
<path d="M1722.81 296.813C1719.61 280.9 1654.41 327.804 1528.99 267.658C1522.42 264.511 1516.07 261.144 1509.76 257.894C1487.76 246.658 1466.78 235.423 1445.89 226.724C1383.21 200.42 1328.45 191.617 1257.58 205.053C1214.01 213.315 1164.91 231.18 1105.14 259.216C1087.84 267.327 1070.77 275.961 1053.73 284.726C1016.81 303.721 979.045 323.939 941.668 337.328C903.844 350.869 869.928 358.459 835.734 366.667C795.765 376.299 754.068 385.701 709.29 395.341C693.642 398.722 677.592 402.161 661.258 405.682C631.052 412.142 599.462 418.25 568.039 424.083C530.421 431.069 493.655 437.387 458.163 439.362C385.38 443.236 318.938 431.056 251.814 433.228C231.773 433.872 211.719 435.678 191.724 439.617" stroke="#2EA7E0" stroke-width="0.552088" stroke-miterlimit="10"/>
<path d="M1724.52 291.588C1721.96 278.857 1656.49 330.697 1528.9 271.231C1522.37 268.187 1516.04 264.95 1509.77 261.805C1487.87 250.89 1467.15 239.894 1446.65 231.024C1385.01 204.18 1331.14 192.134 1259.84 203.751C1216.8 210.763 1167.88 227.318 1107.99 254.666C1090.81 262.508 1073.85 270.874 1056.95 279.414C1020.34 297.916 983.214 317.747 946.437 332.212C909.225 346.845 875.185 356.811 840.859 367.126C800.728 379.213 759.125 390.905 714.787 402.167C699.289 406.115 683.439 410.031 667.311 413.922C637.521 421.067 606.389 427.452 575.302 433C538.091 439.647 501.446 444.873 465.943 445.519C393.105 446.69 326.365 430.722 258.317 429.381C237.997 428.978 217.614 429.756 197.234 432.729" stroke="#2EA7E0" stroke-width="0.552088" stroke-miterlimit="10"/>
<path d="M1726.24 286.357C1724.32 276.808 1658.57 333.544 1528.82 274.793C1522.32 271.849 1516.01 268.748 1509.79 265.706C1487.98 255.109 1467.51 244.356 1447.41 235.318C1386.81 207.94 1333.81 192.689 1262.1 202.439C1219.59 208.22 1170.86 223.455 1110.83 250.103C1093.77 257.677 1076.93 265.769 1060.17 274.088C1023.87 292.103 987.375 311.542 951.207 327.083C914.607 342.804 880.444 355.154 845.985 367.571C805.693 382.113 764.187 396.094 720.29 408.981C704.943 413.493 689.287 417.892 673.376 422.155C644.002 429.989 613.324 436.651 582.576 441.915C545.777 448.217 509.249 452.357 473.731 451.669C400.838 450.138 333.799 430.382 264.824 425.532C244.228 424.082 223.513 423.829 202.751 425.838" stroke="#2EA7E0" stroke-width="0.552088" stroke-miterlimit="10"/>
<path d="M1727.96 281.126C1726.68 274.761 1660.67 336.348 1528.73 278.36C1522.26 275.515 1515.98 272.548 1509.8 269.611C1488.09 259.334 1467.89 248.826 1448.16 239.613C1388.61 211.699 1336.47 193.285 1264.35 201.133C1222.36 205.702 1173.83 219.607 1113.68 245.548C1096.74 252.858 1080.01 260.677 1063.39 268.77C1027.4 286.294 991.543 305.345 955.976 321.963C919.987 338.771 885.702 353.506 851.109 368.026C810.661 385.021 769.247 401.292 725.786 415.802C710.59 420.881 695.133 425.758 679.433 430.389C650.47 438.909 620.254 445.847 589.847 450.83C553.46 456.792 517.044 459.842 481.519 457.818C408.57 453.582 341.234 430.042 271.334 421.679C250.46 419.181 229.416 417.901 208.269 418.947" stroke="#2EA7E0" stroke-width="0.552088" stroke-miterlimit="10"/>
<path d="M1729.68 275.9C1729.04 272.717 1662.77 339.11 1528.64 281.932C1522.2 279.187 1515.95 276.356 1509.81 273.522C1488.2 263.562 1468.24 253.298 1448.92 243.918C1390.4 215.468 1339.11 193.935 1266.6 199.832C1225.11 203.206 1176.83 215.842 1116.52 240.995C1099.7 248.061 1083.08 255.587 1066.6 263.455C1030.93 280.491 995.697 299.151 960.735 316.844C925.359 334.745 890.954 351.859 856.224 368.482C815.615 387.932 774.298 406.492 731.274 422.628C716.229 428.276 700.966 433.631 685.481 438.629C656.935 447.835 627.176 455.048 597.105 459.748C561.13 465.37 524.831 467.334 489.296 463.975C416.29 457.036 348.656 429.709 277.833 417.836C256.684 414.291 235.308 411.984 213.779 412.063" stroke="#2EA7E0" stroke-width="0.552088" stroke-miterlimit="10"/>
<path d="M1731.4 270.669C1731.4 270.669 1664.89 341.825 1528.56 285.498C1392.23 229.171 1332.65 149.912 1119.38 236.439C971.994 296.234 841.707 394.062 691.547 446.862C629.765 468.586 562.35 478.739 497.088 470.125C424.026 460.479 356.095 429.368 284.344 413.983C262.916 409.391 241.216 406.055 219.296 405.168" stroke="#2EA7E0" stroke-width="0.552088" stroke-miterlimit="10"/>
</svg>
